<?xml version="1.0" encoding="UTF-8" standalone="no"?><!-- Generator: Gravit.io --><svg xmlns="http://www.w3.org/2000/svg" xmlns:xlink="http://www.w3.org/1999/xlink" style="isolation:isolate" viewBox="-182 -1290 542 47" width="542pt" height="47pt"><defs><filter id="6Cm37QUd896VT75zgfsspGPdQax2n6dT" x="-200%" y="-200%" width="400%" height="400%" filterUnits="objectBoundingBox" color-interpolation-filters="sRGB"><feGaussianBlur xmlns="http://www.w3.org/2000/svg" in="SourceGraphic" stdDeviation="0"/><feOffset xmlns="http://www.w3.org/2000/svg" dx="0" dy="5" result="pf_100_offsetBlur"/><feFlood xmlns="http://www.w3.org/2000/svg" flood-color="#4D4D4D" flood-opacity="1"/><feComposite xmlns="http://www.w3.org/2000/svg" in2="pf_100_offsetBlur" operator="in" result="pf_100_dropShadow"/><feBlend xmlns="http://www.w3.org/2000/svg" in="SourceGraphic" in2="pf_100_dropShadow" mode="normal"/></filter></defs><g filter="url(#6Cm37QUd896VT75zgfsspGPdQax2n6dT)"><path d=" M 44.259 -1275.353 L 44.259 -1276.765 L 41.435 -1276.765 L 41.435 -1275.353 L 40.024 -1275.353 L 40.024 -1268.294 L 38.612 -1268.294 L 38.612 -1266.882 L 37.2 -1266.882 L 37.2 -1266.882 L 37.2 -1275.353 L 35.788 -1275.353 L 35.788 -1276.765 L 30.141 -1276.765 L 30.141 -1275.353 L 32.965 -1275.353 L 32.965 -1273.941 L 31.553 -1273.941 L 31.553 -1272.529 L 30.141 -1272.529 L 30.141 -1275.353 L 28.729 -1275.353 L 28.729 -1262.647 L 30.141 -1262.647 L 30.141 -1261.235 L 31.553 -1261.235 L 31.553 -1259.824 L 38.612 -1259.824 L 38.612 -1261.235 L 40.024 -1261.235 L 40.024 -1262.647 L 41.435 -1262.647 L 41.435 -1264.059 L 42.847 -1264.059 L 42.847 -1265.471 L 44.259 -1265.471 L 44.259 -1266.882 L 45.671 -1266.882 L 45.671 -1275.353 L 44.259 -1275.353 L 44.259 -1275.353 Z  M 64.024 -1275.353 L 64.024 -1276.765 L 49.906 -1276.765 L 49.906 -1275.353 L 52.729 -1275.353 L 52.729 -1273.941 L 51.318 -1273.941 L 51.318 -1272.529 L 49.906 -1272.529 L 49.906 -1275.353 L 48.494 -1275.353 L 48.494 -1261.235 L 49.906 -1261.235 L 49.906 -1259.824 L 64.024 -1259.824 L 64.024 -1261.235 L 65.435 -1261.235 L 65.435 -1264.059 L 64.024 -1264.059 L 64.024 -1265.471 L 56.965 -1265.471 L 56.965 -1266.882 L 64.024 -1266.882 L 64.024 -1268.294 L 65.435 -1268.294 L 65.435 -1269.706 L 64.024 -1269.706 L 64.024 -1271.118 L 56.965 -1271.118 L 56.965 -1272.529 L 64.024 -1272.529 L 64.024 -1273.941 L 65.435 -1273.941 L 65.435 -1275.353 L 64.024 -1275.353 L 64.024 -1275.353 Z  M 83.788 -1273.941 L 83.788 -1275.353 L 82.376 -1275.353 L 82.376 -1276.765 L 69.671 -1276.765 L 69.671 -1275.353 L 72.494 -1275.353 L 72.494 -1273.941 L 71.082 -1273.941 L 71.082 -1272.529 L 69.671 -1272.529 L 69.671 -1275.353 L 68.259 -1275.353 L 68.259 -1261.235 L 69.671 -1261.235 L 69.671 -1259.824 L 75.318 -1259.824 L 75.318 -1261.235 L 76.729 -1261.235 L 76.729 -1265.471 L 78.141 -1265.471 L 78.141 -1264.059 L 79.553 -1264.059 L 79.553 -1262.647 L 80.965 -1262.647 L 80.965 -1261.235 L 82.376 -1261.235 L 82.376 -1259.824 L 83.788 -1259.824 L 83.788 -1261.235 L 85.2 -1261.235 L 85.2 -1265.471 L 83.788 -1265.471 L 83.788 -1266.882 L 82.376 -1266.882 L 82.376 -1268.294 L 83.788 -1268.294 L 83.788 -1269.706 L 85.2 -1269.706 L 85.2 -1273.941 L 83.788 -1273.941 L 83.788 -1273.941 Z  M 80.965 -1271.118 L 76.729 -1271.118 L 76.729 -1272.529 L 80.965 -1272.529 L 80.965 -1271.118 L 80.965 -1271.118 Z  M 103.553 -1275.353 L 103.553 -1276.765 L 90.847 -1276.765 L 90.847 -1275.353 L 92.259 -1275.353 L 92.259 -1273.941 L 90.847 -1273.941 L 90.847 -1272.529 L 89.435 -1272.529 L 89.435 -1273.941 L 88.024 -1273.941 L 88.024 -1269.706 L 89.435 -1269.706 L 89.435 -1268.294 L 99.318 -1268.294 L 99.318 -1266.882 L 89.435 -1266.882 L 89.435 -1265.471 L 88.024 -1265.471 L 88.024 -1261.235 L 89.435 -1261.235 L 89.435 -1259.824 L 102.141 -1259.824 L 102.141 -1261.235 L 103.553 -1261.235 L 103.553 -1262.647 L 104.965 -1262.647 L 104.965 -1269.706 L 103.553 -1269.706 L 103.553 -1271.118 L 96.494 -1271.118 L 96.494 -1272.529 L 103.553 -1272.529 L 103.553 -1273.941 L 104.965 -1273.941 L 104.965 -1275.353 L 103.553 -1275.353 L 103.553 -1275.353 Z  M 123.318 -1275.353 L 123.318 -1276.765 L 120.494 -1276.765 L 120.494 -1275.353 L 119.082 -1275.353 L 119.082 -1265.471 L 116.259 -1265.471 L 116.259 -1275.353 L 114.847 -1275.353 L 114.847 -1276.765 L 109.2 -1276.765 L 109.2 -1275.353 L 112.024 -1275.353 L 112.024 -1273.941 L 110.612 -1273.941 L 110.612 -1272.529 L 109.2 -1272.529 L 109.2 -1275.353 L 107.788 -1275.353 L 107.788 -1262.647 L 109.2 -1262.647 L 109.2 -1261.235 L 110.612 -1261.235 L 110.612 -1259.824 L 121.906 -1259.824 L 121.906 -1261.235 L 123.318 -1261.235 L 123.318 -1262.647 L 124.729 -1262.647 L 124.729 -1275.353 L 123.318 -1275.353 L 123.318 -1275.353 Z  M 143.082 -1275.353 L 143.082 -1276.765 L 130.376 -1276.765 L 130.376 -1275.353 L 131.788 -1275.353 L 131.788 -1273.941 L 130.376 -1273.941 L 130.376 -1272.529 L 128.965 -1272.529 L 128.965 -1273.941 L 127.553 -1273.941 L 127.553 -1269.706 L 128.965 -1269.706 L 128.965 -1268.294 L 138.847 -1268.294 L 138.847 -1266.882 L 128.965 -1266.882 L 128.965 -1265.471 L 127.553 -1265.471 L 127.553 -1261.235 L 128.965 -1261.235 L 128.965 -1259.824 L 141.671 -1259.824 L 141.671 -1261.235 L 143.082 -1261.235 L 143.082 -1262.647 L 144.494 -1262.647 L 144.494 -1269.706 L 143.082 -1269.706 L 143.082 -1271.118 L 136.024 -1271.118 L 136.024 -1272.529 L 143.082 -1272.529 L 143.082 -1273.941 L 144.494 -1273.941 L 144.494 -1275.353 L 143.082 -1275.353 L 143.082 -1275.353 Z " fill="rgb(255,255,255)"/></g></svg>