<?xml version="1.0" encoding="UTF-8" standalone="no"?><!-- Generator: Gravit.io --><svg xmlns="http://www.w3.org/2000/svg" xmlns:xlink="http://www.w3.org/1999/xlink" style="isolation:isolate" viewBox="-182 -1259 542 109" width="542pt" height="109pt"><defs><filter id="1VzRAKA7Y4skO4tUeZ6avIDoKNHTT3jJ" x="-200%" y="-200%" width="400%" height="400%" filterUnits="objectBoundingBox" color-interpolation-filters="sRGB"><feGaussianBlur xmlns="http://www.w3.org/2000/svg" in="SourceGraphic" stdDeviation="0"/><feOffset xmlns="http://www.w3.org/2000/svg" dx="0" dy="10" result="pf_100_offsetBlur"/><feFlood xmlns="http://www.w3.org/2000/svg" flood-color="#8C2134" flood-opacity="1"/><feComposite xmlns="http://www.w3.org/2000/svg" in2="pf_100_offsetBlur" operator="in" result="pf_100_dropShadow"/><feBlend xmlns="http://www.w3.org/2000/svg" in="SourceGraphic" in2="pf_100_dropShadow" mode="normal"/></filter></defs><g filter="url(#1VzRAKA7Y4skO4tUeZ6avIDoKNHTT3jJ)"><path d=" M -90.176 -1232.441 L -90.176 -1235.971 L -100.765 -1235.971 L -100.765 -1232.441 L -104.294 -1232.441 L -104.294 -1218.324 L -107.824 -1218.324 L -107.824 -1214.794 L -111.353 -1214.794 L -111.353 -1218.324 L -114.882 -1218.324 L -114.882 -1232.441 L -118.412 -1232.441 L -118.412 -1235.971 L -136.059 -1235.971 L -136.059 -1232.441 L -129 -1232.441 L -129 -1228.912 L -132.529 -1228.912 L -132.529 -1225.382 L -136.059 -1225.382 L -136.059 -1232.441 L -139.588 -1232.441 L -139.588 -1190.088 L -136.059 -1190.088 L -136.059 -1186.559 L -118.412 -1186.559 L -118.412 -1190.088 L -114.882 -1190.088 L -114.882 -1200.676 L -111.353 -1200.676 L -111.353 -1197.147 L -107.824 -1197.147 L -107.824 -1200.676 L -104.294 -1200.676 L -104.294 -1190.088 L -100.765 -1190.088 L -100.765 -1186.559 L -90.176 -1186.559 L -90.176 -1190.088 L -86.647 -1190.088 L -86.647 -1232.441 L -90.176 -1232.441 L -90.176 -1232.441 Z  M -33.706 -1228.912 L -33.706 -1232.441 L -37.235 -1232.441 L -37.235 -1235.971 L -72.529 -1235.971 L -72.529 -1232.441 L -69 -1232.441 L -69 -1228.912 L -72.529 -1228.912 L -72.529 -1225.382 L -76.059 -1225.382 L -76.059 -1228.912 L -79.588 -1228.912 L -79.588 -1193.618 L -76.059 -1193.618 L -76.059 -1190.088 L -72.529 -1190.088 L -72.529 -1186.559 L -37.235 -1186.559 L -37.235 -1190.088 L -33.706 -1190.088 L -33.706 -1193.618 L -30.176 -1193.618 L -30.176 -1228.912 L -33.706 -1228.912 L -33.706 -1228.912 Z  M -44.294 -1200.676 L -54.882 -1200.676 L -54.882 -1225.382 L -44.294 -1225.382 L -44.294 -1200.676 L -44.294 -1200.676 Z  M 22.765 -1232.441 L 22.765 -1235.971 L 12.176 -1235.971 L 12.176 -1232.441 L 8.647 -1232.441 L 8.647 -1214.794 L 5.118 -1214.794 L 5.118 -1218.324 L 1.588 -1218.324 L 1.588 -1232.441 L -1.941 -1232.441 L -1.941 -1235.971 L -19.588 -1235.971 L -19.588 -1232.441 L -12.529 -1232.441 L -12.529 -1228.912 L -16.059 -1228.912 L -16.059 -1225.382 L -19.588 -1225.382 L -19.588 -1232.441 L -23.118 -1232.441 L -23.118 -1190.088 L -19.588 -1190.088 L -19.588 -1186.559 L -1.941 -1186.559 L -1.941 -1190.088 L 1.588 -1190.088 L 1.588 -1204.206 L 5.118 -1204.206 L 5.118 -1200.676 L 8.647 -1200.676 L 8.647 -1190.088 L 12.176 -1190.088 L 12.176 -1186.559 L 22.765 -1186.559 L 22.765 -1190.088 L 26.294 -1190.088 L 26.294 -1232.441 L 22.765 -1232.441 L 22.765 -1232.441 Z  M 79.235 -1232.441 L 79.235 -1235.971 L 40.412 -1235.971 L 40.412 -1232.441 L 43.941 -1232.441 L 43.941 -1228.912 L 40.412 -1228.912 L 40.412 -1225.382 L 36.882 -1225.382 L 36.882 -1228.912 L 33.353 -1228.912 L 33.353 -1211.265 L 36.882 -1211.265 L 36.882 -1207.735 L 65.118 -1207.735 L 65.118 -1204.206 L 36.882 -1204.206 L 36.882 -1200.676 L 33.353 -1200.676 L 33.353 -1190.088 L 36.882 -1190.088 L 36.882 -1186.559 L 75.706 -1186.559 L 75.706 -1190.088 L 79.235 -1190.088 L 79.235 -1193.618 L 82.765 -1193.618 L 82.765 -1214.794 L 79.235 -1214.794 L 79.235 -1218.324 L 58.059 -1218.324 L 58.059 -1221.853 L 79.235 -1221.853 L 79.235 -1225.382 L 82.765 -1225.382 L 82.765 -1232.441 L 79.235 -1232.441 L 79.235 -1232.441 Z  M 135.706 -1232.441 L 135.706 -1235.971 L 93.353 -1235.971 L 93.353 -1232.441 L 100.412 -1232.441 L 100.412 -1228.912 L 96.882 -1228.912 L 96.882 -1225.382 L 93.353 -1225.382 L 93.353 -1221.853 L 103.941 -1221.853 L 103.941 -1190.088 L 107.471 -1190.088 L 107.471 -1186.559 L 121.588 -1186.559 L 121.588 -1190.088 L 125.118 -1190.088 L 125.118 -1221.853 L 135.706 -1221.853 L 135.706 -1225.382 L 139.235 -1225.382 L 139.235 -1232.441 L 135.706 -1232.441 L 135.706 -1232.441 Z  M 93.353 -1225.382 L 93.353 -1232.441 L 89.824 -1232.441 L 89.824 -1225.382 L 93.353 -1225.382 L 93.353 -1225.382 Z  M 192.176 -1232.441 L 192.176 -1235.971 L 149.824 -1235.971 L 149.824 -1232.441 L 156.882 -1232.441 L 156.882 -1228.912 L 153.353 -1228.912 L 153.353 -1225.382 L 149.824 -1225.382 L 149.824 -1232.441 L 146.294 -1232.441 L 146.294 -1190.088 L 149.824 -1190.088 L 149.824 -1186.559 L 192.176 -1186.559 L 192.176 -1190.088 L 195.706 -1190.088 L 195.706 -1197.147 L 192.176 -1197.147 L 192.176 -1200.676 L 171 -1200.676 L 171 -1207.735 L 192.176 -1207.735 L 192.176 -1211.265 L 195.706 -1211.265 L 195.706 -1214.794 L 192.176 -1214.794 L 192.176 -1218.324 L 171 -1218.324 L 171 -1225.382 L 192.176 -1225.382 L 192.176 -1228.912 L 195.706 -1228.912 L 195.706 -1232.441 L 192.176 -1232.441 L 192.176 -1232.441 Z  M 248.647 -1228.912 L 248.647 -1232.441 L 245.118 -1232.441 L 245.118 -1235.971 L 206.294 -1235.971 L 206.294 -1232.441 L 213.353 -1232.441 L 213.353 -1228.912 L 209.824 -1228.912 L 209.824 -1225.382 L 206.294 -1225.382 L 206.294 -1232.441 L 202.765 -1232.441 L 202.765 -1190.088 L 206.294 -1190.088 L 206.294 -1186.559 L 223.941 -1186.559 L 223.941 -1190.088 L 227.471 -1190.088 L 227.471 -1200.676 L 231 -1200.676 L 231 -1197.147 L 234.529 -1197.147 L 234.529 -1193.618 L 238.059 -1193.618 L 238.059 -1190.088 L 241.588 -1190.088 L 241.588 -1186.559 L 248.647 -1186.559 L 248.647 -1190.088 L 252.176 -1190.088 L 252.176 -1204.206 L 248.647 -1204.206 L 248.647 -1207.735 L 245.118 -1207.735 L 245.118 -1211.265 L 248.647 -1211.265 L 248.647 -1214.794 L 252.176 -1214.794 L 252.176 -1228.912 L 248.647 -1228.912 L 248.647 -1228.912 Z  M 238.059 -1225.382 L 238.059 -1218.324 L 227.471 -1218.324 L 227.471 -1225.382 L 238.059 -1225.382 L 238.059 -1225.382 Z  M 305.118 -1232.441 L 305.118 -1235.971 L 266.294 -1235.971 L 266.294 -1232.441 L 269.824 -1232.441 L 269.824 -1228.912 L 266.294 -1228.912 L 266.294 -1225.382 L 262.765 -1225.382 L 262.765 -1228.912 L 259.235 -1228.912 L 259.235 -1211.265 L 262.765 -1211.265 L 262.765 -1207.735 L 291 -1207.735 L 291 -1204.206 L 262.765 -1204.206 L 262.765 -1200.676 L 259.235 -1200.676 L 259.235 -1190.088 L 262.765 -1190.088 L 262.765 -1186.559 L 301.588 -1186.559 L 301.588 -1190.088 L 305.118 -1190.088 L 305.118 -1193.618 L 308.647 -1193.618 L 308.647 -1214.794 L 305.118 -1214.794 L 305.118 -1218.324 L 283.941 -1218.324 L 283.941 -1221.853 L 305.118 -1221.853 L 305.118 -1225.382 L 308.647 -1225.382 L 308.647 -1232.441 L 305.118 -1232.441 L 305.118 -1232.441 Z " fill="rgb(235,59,90)"/></g></svg>