<?xml version="1.0" encoding="UTF-8" standalone="no"?><!-- Generator: Gravit.io --><svg xmlns="http://www.w3.org/2000/svg" xmlns:xlink="http://www.w3.org/1999/xlink" style="isolation:isolate" viewBox="-182 -1382 542 100" width="542pt" height="100pt"><defs><filter id="cp4YmHOGapOedjkQ7Uq90mF0sQai4Bjj" x="-200%" y="-200%" width="400%" height="400%" filterUnits="objectBoundingBox" color-interpolation-filters="sRGB"><feGaussianBlur xmlns="http://www.w3.org/2000/svg" in="SourceGraphic" stdDeviation="0"/><feOffset xmlns="http://www.w3.org/2000/svg" dx="0" dy="10" result="pf_100_offsetBlur"/><feFlood xmlns="http://www.w3.org/2000/svg" flood-color="#6A511A" flood-opacity="1"/><feComposite xmlns="http://www.w3.org/2000/svg" in2="pf_100_offsetBlur" operator="in" result="pf_100_dropShadow"/><feBlend xmlns="http://www.w3.org/2000/svg" in="SourceGraphic" in2="pf_100_dropShadow" mode="normal"/></filter></defs><g filter="url(#cp4YmHOGapOedjkQ7Uq90mF0sQai4Bjj)"><path d=" M -45.341 -1364.529 L -45.341 -1368.765 L -53.812 -1368.765 L -53.812 -1364.529 L -58.047 -1364.529 L -58.047 -1360.294 L -62.282 -1360.294 L -62.282 -1356.059 L -66.518 -1356.059 L -66.518 -1351.824 L -70.753 -1351.824 L -70.753 -1364.529 L -74.988 -1364.529 L -74.988 -1368.765 L -96.165 -1368.765 L -96.165 -1364.529 L -87.694 -1364.529 L -87.694 -1360.294 L -91.929 -1360.294 L -91.929 -1356.059 L -96.165 -1356.059 L -96.165 -1364.529 L -100.4 -1364.529 L -100.4 -1313.706 L -96.165 -1313.706 L -96.165 -1309.471 L -74.988 -1309.471 L -74.988 -1313.706 L -70.753 -1313.706 L -70.753 -1326.412 L -66.518 -1326.412 L -66.518 -1322.176 L -62.282 -1322.176 L -62.282 -1317.941 L -58.047 -1317.941 L -58.047 -1313.706 L -53.812 -1313.706 L -53.812 -1309.471 L -45.341 -1309.471 L -45.341 -1313.706 L -41.106 -1313.706 L -41.106 -1330.647 L -45.341 -1330.647 L -45.341 -1334.882 L -49.576 -1334.882 L -49.576 -1339.118 L -53.812 -1339.118 L -53.812 -1343.353 L -49.576 -1343.353 L -49.576 -1347.588 L -45.341 -1347.588 L -45.341 -1351.824 L -41.106 -1351.824 L -41.106 -1364.529 L -45.341 -1364.529 L -45.341 -1364.529 Z  M 22.424 -1364.529 L 22.424 -1368.765 L 9.718 -1368.765 L 9.718 -1364.529 L 5.482 -1364.529 L 5.482 -1343.353 L 1.247 -1343.353 L 1.247 -1347.588 L -2.988 -1347.588 L -2.988 -1364.529 L -7.224 -1364.529 L -7.224 -1368.765 L -28.4 -1368.765 L -28.4 -1364.529 L -19.929 -1364.529 L -19.929 -1360.294 L -24.165 -1360.294 L -24.165 -1356.059 L -28.4 -1356.059 L -28.4 -1364.529 L -32.635 -1364.529 L -32.635 -1313.706 L -28.4 -1313.706 L -28.4 -1309.471 L -7.224 -1309.471 L -7.224 -1313.706 L -2.988 -1313.706 L -2.988 -1330.647 L 1.247 -1330.647 L 1.247 -1326.412 L 5.482 -1326.412 L 5.482 -1313.706 L 9.718 -1313.706 L 9.718 -1309.471 L 22.424 -1309.471 L 22.424 -1313.706 L 26.659 -1313.706 L 26.659 -1364.529 L 22.424 -1364.529 L 22.424 -1364.529 Z  M 60.541 -1364.529 L 60.541 -1368.765 L 39.365 -1368.765 L 39.365 -1364.529 L 47.835 -1364.529 L 47.835 -1360.294 L 43.6 -1360.294 L 43.6 -1356.059 L 39.365 -1356.059 L 39.365 -1364.529 L 35.129 -1364.529 L 35.129 -1313.706 L 39.365 -1313.706 L 39.365 -1309.471 L 60.541 -1309.471 L 60.541 -1313.706 L 64.776 -1313.706 L 64.776 -1364.529 L 60.541 -1364.529 L 60.541 -1364.529 Z  M 128.306 -1364.529 L 128.306 -1368.765 L 81.718 -1368.765 L 81.718 -1364.529 L 85.953 -1364.529 L 85.953 -1360.294 L 81.718 -1360.294 L 81.718 -1356.059 L 77.482 -1356.059 L 77.482 -1360.294 L 73.247 -1360.294 L 73.247 -1317.941 L 77.482 -1317.941 L 77.482 -1313.706 L 81.718 -1313.706 L 81.718 -1309.471 L 124.071 -1309.471 L 124.071 -1313.706 L 128.306 -1313.706 L 128.306 -1317.941 L 132.541 -1317.941 L 132.541 -1343.353 L 128.306 -1343.353 L 128.306 -1347.588 L 111.365 -1347.588 L 111.365 -1343.353 L 107.129 -1343.353 L 107.129 -1339.118 L 111.365 -1339.118 L 111.365 -1334.882 L 115.6 -1334.882 L 115.6 -1326.412 L 102.894 -1326.412 L 102.894 -1356.059 L 128.306 -1356.059 L 128.306 -1360.294 L 132.541 -1360.294 L 132.541 -1364.529 L 128.306 -1364.529 L 128.306 -1364.529 Z  M 200.306 -1364.529 L 196.071 -1364.529 L 196.071 -1368.765 L 183.365 -1368.765 L 183.365 -1364.529 L 179.129 -1364.529 L 179.129 -1347.588 L 170.659 -1347.588 L 170.659 -1364.529 L 166.424 -1364.529 L 166.424 -1368.765 L 145.247 -1368.765 L 145.247 -1364.529 L 153.718 -1364.529 L 153.718 -1360.294 L 149.482 -1360.294 L 149.482 -1356.059 L 145.247 -1356.059 L 145.247 -1364.529 L 141.012 -1364.529 L 141.012 -1313.706 L 145.247 -1313.706 L 145.247 -1309.471 L 166.424 -1309.471 L 166.424 -1313.706 L 170.659 -1313.706 L 170.659 -1334.882 L 179.129 -1334.882 L 179.129 -1313.706 L 183.365 -1313.706 L 183.365 -1309.471 L 196.071 -1309.471 L 196.071 -1313.706 L 200.306 -1313.706 L 200.306 -1364.529 L 200.306 -1364.529 Z  M 263.835 -1364.529 L 263.835 -1368.765 L 213.012 -1368.765 L 213.012 -1364.529 L 221.482 -1364.529 L 221.482 -1360.294 L 217.247 -1360.294 L 217.247 -1356.059 L 213.012 -1356.059 L 213.012 -1351.824 L 225.718 -1351.824 L 225.718 -1313.706 L 229.953 -1313.706 L 229.953 -1309.471 L 246.894 -1309.471 L 246.894 -1313.706 L 251.129 -1313.706 L 251.129 -1351.824 L 263.835 -1351.824 L 263.835 -1356.059 L 268.071 -1356.059 L 268.071 -1364.529 L 263.835 -1364.529 L 263.835 -1364.529 Z  M 213.012 -1356.059 L 213.012 -1364.529 L 208.776 -1364.529 L 208.776 -1356.059 L 213.012 -1356.059 L 213.012 -1356.059 Z " fill="rgb(254,211,48)"/></g></svg>