<?xml version="1.0" encoding="UTF-8" standalone="no"?><!-- Generator: Gravit.io --><svg xmlns="http://www.w3.org/2000/svg" xmlns:xlink="http://www.w3.org/1999/xlink" style="isolation:isolate" viewBox="400 -1290 240 120" width="240pt" height="120pt"><g><defs><filter id="cUUDjwTONhQStHlw0CGMBiRyXBs759KZ" x="-200%" y="-200%" width="400%" height="400%" filterUnits="objectBoundingBox" color-interpolation-filters="sRGB"><feGaussianBlur xmlns="http://www.w3.org/2000/svg" in="SourceGraphic" stdDeviation="0"/><feOffset xmlns="http://www.w3.org/2000/svg" dx="0" dy="10" result="pf_100_offsetBlur"/><feFlood xmlns="http://www.w3.org/2000/svg" flood-color="#126A3E" flood-opacity="1"/><feComposite xmlns="http://www.w3.org/2000/svg" in2="pf_100_offsetBlur" operator="in" result="pf_100_dropShadow"/><feBlend xmlns="http://www.w3.org/2000/svg" in="SourceGraphic" in2="pf_100_dropShadow" mode="normal"/></filter></defs><g filter="url(#cUUDjwTONhQStHlw0CGMBiRyXBs759KZ)"><path d=" M 400 -1270 L 410 -1270 L 410 -1280 L 420 -1280 L 420 -1290 L 620 -1290 L 620 -1280 L 630 -1280 L 630 -1270 L 640 -1270 L 640 -1200 L 630 -1200 L 630 -1190 L 620 -1190 L 620 -1180 L 420 -1180 L 420 -1190 L 410 -1190 L 410 -1200 L 400 -1200 L 400 -1270 Z " fill="rgb(38,222,129)"/></g><mask id="_mask_iH8Oto26tPrEBu5FrcqsV2P34Be7Vldl"><path d=" M 400 -1270 L 400 -1200 L 410 -1200 L 410 -1190 L 420 -1190 L 420 -1180 L 620 -1180 L 620 -1190 L 630 -1190 L 630 -1200 L 640 -1200 L 640 -1270 L 630 -1270 L 630 -1280 L 620 -1280 L 620 -1290 L 420 -1290 L 420 -1280 L 410 -1280 L 410 -1270 L 400 -1270 Z " fill="white" stroke="none"/></mask><path d=" M 400 -1270 L 400 -1200 L 410 -1200 L 410 -1190 L 420 -1190 L 420 -1180 L 620 -1180 L 620 -1190 L 630 -1190 L 630 -1200 L 640 -1200 L 640 -1270 L 630 -1270 L 630 -1280 L 620 -1280 L 620 -1290 L 420 -1290 L 420 -1280 L 410 -1280 L 410 -1270 L 400 -1270 Z " fill="none" mask="url(#_mask_iH8Oto26tPrEBu5FrcqsV2P34Be7Vldl)" vector-effect="non-scaling-stroke" stroke-width="20" stroke="rgb(32,191,107)" stroke-linejoin="miter" stroke-linecap="square" stroke-miterlimit="3"/><path d=" M 400 -1270 L 400 -1200 L 410 -1200 L 410 -1190 L 420 -1190 L 420 -1180 L 620 -1180 L 620 -1190 L 630 -1190 L 630 -1200 L 640 -1200 L 640 -1270 L 630 -1270 L 630 -1280 L 620 -1280 L 620 -1290 L 420 -1290 L 420 -1280 L 410 -1280 L 410 -1270 L 400 -1270 Z " fill="none"/><path d=" M 440 -1270 L 440 -1260 L 450 -1260 L 450 -1270 L 440 -1270 L 440 -1270 L 440 -1270 L 440 -1270 L 440 -1270 L 440 -1270 L 440 -1270 L 440 -1270 L 440 -1270 Z  M 430 -1260 L 430 -1250 L 440 -1250 L 440 -1260 L 430 -1260 L 430 -1260 L 430 -1260 L 430 -1260 L 430 -1260 L 430 -1260 L 430 -1260 L 430 -1260 L 430 -1260 Z  M 460 -1260 L 460 -1250 L 470 -1250 L 470 -1260 L 460 -1260 L 460 -1260 L 460 -1260 L 460 -1260 L 460 -1260 L 460 -1260 L 460 -1260 L 460 -1260 Z  M 460 -1209.5 L 460 -1199.5 L 470 -1199.5 L 470 -1209.5 L 460 -1209.5 L 460 -1209.5 L 460 -1209.5 L 460 -1209.5 L 460 -1209.5 L 460 -1209.5 L 460 -1209.5 Z  M 500 -1270 L 500 -1260 L 510 -1260 L 510 -1270 L 500 -1270 L 500 -1270 L 500 -1270 L 500 -1270 L 500 -1270 L 500 -1270 Z  M 530 -1200 L 530 -1190 L 540 -1190 L 540 -1200 L 530 -1200 L 530 -1200 L 530 -1200 L 530 -1200 L 530 -1200 Z  M 570 -1209.5 L 570 -1199.5 L 580 -1199.5 L 580 -1209.5 L 570 -1209.5 L 570 -1209.5 L 570 -1209.5 L 570 -1209.5 Z  M 610 -1219 L 610 -1209 L 620 -1209 L 620 -1219 L 610 -1219 L 610 -1219 L 610 -1219 Z  M 610 -1240 L 610 -1230 L 620 -1230 L 620 -1240 L 610 -1240 L 610 -1240 Z  M 580 -1280 L 580 -1270 L 590 -1270 L 590 -1280 L 580 -1280 Z " fill-rule="evenodd" fill="rgb(32,191,107)"/><defs><filter id="I0Fy92JPOVHXL8Q0Mg9TDA2ruIwaTHmw" x="-200%" y="-200%" width="400%" height="400%" filterUnits="objectBoundingBox" color-interpolation-filters="sRGB"><feGaussianBlur xmlns="http://www.w3.org/2000/svg" in="SourceGraphic" stdDeviation="0"/><feOffset xmlns="http://www.w3.org/2000/svg" dx="-1" dy="7" result="pf_100_offsetBlur"/><feFlood xmlns="http://www.w3.org/2000/svg" flood-color="#666666" flood-opacity="1"/><feComposite xmlns="http://www.w3.org/2000/svg" in2="pf_100_offsetBlur" operator="in" result="pf_100_dropShadow"/><feBlend xmlns="http://www.w3.org/2000/svg" in="SourceGraphic" in2="pf_100_dropShadow" mode="normal"/></filter></defs><g filter="url(#I0Fy92JPOVHXL8Q0Mg9TDA2ruIwaTHmw)"><path d=" M 475.135 -1250.529 L 472.312 -1250.529 L 472.312 -1253.353 L 469.488 -1253.353 L 469.488 -1256.176 L 438.429 -1256.176 L 438.429 -1253.353 L 444.076 -1253.353 L 444.076 -1250.529 L 441.253 -1250.529 L 441.253 -1247.706 L 438.429 -1247.706 L 438.429 -1253.353 L 435.606 -1253.353 L 435.606 -1219.471 L 438.429 -1219.471 L 438.429 -1216.647 L 452.547 -1216.647 L 452.547 -1219.471 L 455.371 -1219.471 L 455.371 -1227.941 L 469.488 -1227.941 L 469.488 -1230.765 L 472.312 -1230.765 L 472.312 -1233.588 L 475.135 -1233.588 L 475.135 -1250.529 L 475.135 -1250.529 Z  M 455.371 -1236.412 L 455.371 -1247.706 L 461.018 -1247.706 L 461.018 -1236.412 L 455.371 -1236.412 L 455.371 -1236.412 Z  M 514.665 -1225.118 L 514.665 -1227.941 L 500.547 -1227.941 L 500.547 -1253.353 L 497.724 -1253.353 L 497.724 -1256.176 L 483.606 -1256.176 L 483.606 -1253.353 L 489.253 -1253.353 L 489.253 -1250.529 L 486.429 -1250.529 L 486.429 -1247.706 L 483.606 -1247.706 L 483.606 -1253.353 L 480.782 -1253.353 L 480.782 -1219.471 L 483.606 -1219.471 L 483.606 -1216.647 L 514.665 -1216.647 L 514.665 -1219.471 L 517.488 -1219.471 L 517.488 -1225.118 L 514.665 -1225.118 L 514.665 -1225.118 Z  M 559.841 -1247.706 L 559.841 -1250.529 L 557.018 -1250.529 L 557.018 -1253.353 L 554.194 -1253.353 L 554.194 -1256.176 L 528.782 -1256.176 L 528.782 -1253.353 L 531.606 -1253.353 L 531.606 -1250.529 L 528.782 -1250.529 L 528.782 -1247.706 L 525.959 -1247.706 L 525.959 -1250.529 L 523.135 -1250.529 L 523.135 -1219.471 L 525.959 -1219.471 L 525.959 -1216.647 L 540.076 -1216.647 L 540.076 -1219.471 L 542.9 -1219.471 L 542.9 -1236.412 L 551.371 -1236.412 L 551.371 -1219.471 L 554.194 -1219.471 L 554.194 -1216.647 L 559.841 -1216.647 L 559.841 -1219.471 L 562.665 -1219.471 L 562.665 -1247.706 L 559.841 -1247.706 L 559.841 -1247.706 Z  M 542.9 -1242.059 L 542.9 -1247.706 L 551.371 -1247.706 L 551.371 -1242.059 L 542.9 -1242.059 L 542.9 -1242.059 Z  M 605.018 -1242.059 L 602.194 -1242.059 L 602.194 -1239.235 L 599.371 -1239.235 L 599.371 -1236.412 L 596.547 -1236.412 L 596.547 -1219.471 L 593.724 -1219.471 L 593.724 -1216.647 L 582.429 -1216.647 L 582.429 -1219.471 L 579.606 -1219.471 L 579.606 -1236.412 L 576.782 -1236.412 L 576.782 -1239.235 L 573.959 -1239.235 L 573.959 -1242.059 L 571.135 -1242.059 L 571.135 -1244.882 L 568.312 -1244.882 L 568.312 -1253.353 L 571.135 -1253.353 L 571.135 -1247.706 L 573.959 -1247.706 L 573.959 -1250.529 L 576.782 -1250.529 L 576.782 -1253.353 L 571.135 -1253.353 L 571.135 -1256.176 L 582.429 -1256.176 L 582.429 -1253.353 L 585.253 -1253.353 L 585.253 -1250.529 L 590.9 -1250.529 L 590.9 -1253.353 L 593.724 -1253.353 L 593.724 -1256.176 L 605.018 -1256.176 L 605.018 -1253.353 L 607.841 -1253.353 L 607.841 -1244.882 L 605.018 -1244.882 L 605.018 -1242.059 L 605.018 -1242.059 Z " fill="rgb(255,255,255)"/></g></g></svg>