<svg id="Capa_1" enable-background="new 0 0 512.06 512.06" height="512" viewBox="0 0 512.06 512.06" width="512" xmlns="http://www.w3.org/2000/svg"><g><g><g><path d="m256.029 255.174-27.51 45.85 27.51 45.85 27.51-45.85zm0 0-27.51 45.85 27.51 45.85 27.51-45.85zm232.05-71.19-107.42 79.9-111.61-195.3c-5.75-10.07-20.29-10.06-26.04 0l-111.61 195.3-107.42-79.9c-11.31-8.41-26.95 2.1-23.49 15.74l41 161.3h94.54c8.28 0 15 6.72 15 15s-6.72 15-15 15h-86.92l12.38 48.7c1.69 6.64 7.68 11.3 14.54 11.3h360c6.86 0 12.85-4.66 14.54-11.3l12.38-48.7h-86.92c-8.28 0-15-6.72-15-15s6.72-15 15-15h94.54l41-161.3c3.47-13.67-12.2-24.13-23.49-15.74zm-174.19 124.76-45 75c-5.8 9.67-19.88 9.73-25.72 0l-45-75c-2.85-4.75-2.85-10.69 0-15.44l45-75c5.8-9.67 19.88-9.73 25.72 0l45 75c2.85 4.75 2.85 10.69 0 15.44zm-85.37-7.72 27.51 45.85 27.51-45.85-27.51-45.85z"/></g></g><g><g><path d="m150.399 170.184-28.25 49.43-41.9-31.17 11.07-55.36c2.54-12.69 18.94-16.41 26.71-6.06z"/></g></g><g><g><path d="m431.809 188.444-41.9 31.17-28.25-49.43 32.37-43.16c7.76-10.35 24.17-6.63 26.71 6.06z"/></g></g></g></svg>