<?xml version="1.0" encoding="UTF-8" standalone="no"?><!-- Generator: Gravit.io --><svg xmlns="http://www.w3.org/2000/svg" xmlns:xlink="http://www.w3.org/1999/xlink" style="isolation:isolate" viewBox="1112 356.259 21.518 21.518" width="21.518pt" height="21.518pt"><g><rect x="1112" y="356.259" width="21.518" height="21.518" transform="matrix(1,0,0,1,0,0)" fill="rgb(15,15,15)"/><g><path d=" M 1119.136 361.296 C 1119.04 361.315 1118.964 361.388 1118.942 361.483 C 1118.942 361.483 1118.809 362.022 1118.809 363.038 L 1118.809 371.993 C 1118.809 372.402 1119.147 372.739 1119.556 372.739 L 1125.028 372.739 C 1125.438 372.739 1125.775 372.402 1125.775 371.993 L 1125.775 370.874 C 1125.775 370.82 1125.846 370.749 1125.899 370.749 C 1126.829 370.749 1127.618 370.334 1128.161 369.676 C 1128.704 369.019 1129.009 368.126 1129.009 367.142 L 1129.009 366.248 C 1129.01 365.66 1128.776 365.096 1128.361 364.681 C 1127.945 364.265 1127.381 364.032 1126.793 364.033 L 1126.544 364.033 C 1126.132 364.033 1125.775 363.698 1125.775 363.263 L 1125.775 363.038 C 1125.775 362.022 1125.643 361.483 1125.643 361.483 C 1125.614 361.373 1125.515 361.296 1125.402 361.296 L 1119.136 361.296 L 1119.136 361.296 Z  M 1119.408 361.794 L 1125.176 361.794 C 1125.199 361.899 1125.277 362.19 1125.277 363.038 L 1125.277 363.286 L 1119.307 363.286 L 1119.307 363.038 C 1119.307 362.19 1119.385 361.899 1119.408 361.794 Z  M 1119.307 363.737 C 1119.382 363.737 1119.481 363.761 1119.556 363.761 C 1119.706 363.81 1119.853 363.887 1119.952 363.986 C 1119.952 363.986 1119.976 363.984 1119.976 364.009 L 1120.053 364.079 L 1120.1 364.134 C 1120.125 364.159 1120.129 364.179 1120.154 364.204 C 1120.18 364.229 1120.176 364.256 1120.201 364.282 C 1120.201 364.307 1120.224 364.334 1120.224 364.359 C 1120.25 364.384 1120.255 364.427 1120.255 364.452 C 1120.255 364.478 1120.254 364.505 1120.279 364.53 C 1120.279 364.58 1120.302 364.652 1120.302 364.701 C 1120.302 364.751 1120.304 364.831 1120.279 364.88 C 1120.279 364.905 1120.281 364.925 1120.255 364.95 C 1120.255 365 1120.224 365.026 1120.224 365.051 C 1120.224 365.076 1120.201 365.103 1120.201 365.129 C 1120.176 365.154 1120.18 365.174 1120.154 365.199 C 1120.129 365.224 1120.125 365.251 1120.1 365.277 L 1119.975 365.401 C 1119.975 365.401 1119.952 365.399 1119.952 365.424 C 1119.828 365.523 1119.706 365.6 1119.556 365.65 C 1119.481 365.675 1119.382 365.673 1119.307 365.673 L 1119.307 365.277 C 1119.406 365.277 1119.481 365.248 1119.556 365.199 C 1119.63 365.149 1119.677 365.103 1119.727 365.028 L 1119.727 365.004 C 1119.752 364.979 1119.756 364.953 1119.781 364.903 L 1119.781 364.88 C 1119.781 364.831 1119.805 364.805 1119.805 364.756 C 1119.805 364.706 1119.807 364.681 1119.781 364.631 L 1119.781 364.608 C 1119.781 364.583 1119.752 364.556 1119.727 364.507 L 1119.727 364.484 C 1119.677 364.409 1119.631 364.354 1119.556 364.305 C 1119.481 364.255 1119.406 364.235 1119.307 364.235 L 1119.307 363.737 Z  M 1122.292 363.784 C 1122.839 363.784 1123.287 364.232 1123.287 364.779 C 1123.287 365.326 1122.839 365.774 1122.292 365.774 C 1121.745 365.774 1121.297 365.326 1121.297 364.779 C 1121.297 364.232 1121.745 363.784 1122.292 363.784 Z  M 1125.153 363.885 C 1125.197 363.882 1125.24 363.885 1125.277 363.885 L 1125.277 364.282 C 1125.178 364.282 1125.103 364.31 1125.028 364.359 C 1124.954 364.409 1124.907 364.455 1124.857 364.53 L 1124.857 364.554 C 1124.832 364.579 1124.828 364.605 1124.803 364.655 L 1124.803 364.678 C 1124.803 364.728 1124.78 364.753 1124.78 364.802 C 1124.78 364.852 1124.778 364.877 1124.803 364.927 L 1124.803 364.95 C 1124.803 364.975 1124.832 365.002 1124.857 365.051 L 1124.857 365.074 C 1124.907 365.149 1124.954 365.204 1125.028 365.253 C 1125.103 365.303 1125.178 365.323 1125.277 365.323 L 1125.277 365.821 C 1125.203 365.821 1125.103 365.797 1125.028 365.797 C 1124.879 365.748 1124.731 365.671 1124.632 365.572 C 1124.632 365.572 1124.609 365.574 1124.609 365.549 L 1124.531 365.479 L 1124.484 365.424 C 1124.459 365.399 1124.455 365.38 1124.43 365.354 C 1124.405 365.329 1124.409 365.302 1124.383 365.277 C 1124.383 365.251 1124.36 365.224 1124.36 365.199 C 1124.335 365.174 1124.329 365.131 1124.329 365.105 C 1124.329 365.08 1124.331 365.053 1124.306 365.028 C 1124.306 364.978 1124.282 364.906 1124.282 364.857 C 1124.282 364.807 1124.28 364.728 1124.306 364.678 C 1124.306 364.653 1124.304 364.633 1124.329 364.608 C 1124.329 364.558 1124.36 364.532 1124.36 364.507 C 1124.36 364.482 1124.383 364.455 1124.383 364.429 C 1124.409 364.404 1124.405 364.384 1124.43 364.359 C 1124.455 364.334 1124.459 364.307 1124.484 364.282 L 1124.609 364.157 C 1124.609 364.157 1124.632 364.159 1124.632 364.134 C 1124.756 364.035 1124.879 363.958 1125.028 363.908 C 1125.065 363.896 1125.109 363.888 1125.153 363.885 Z  M 1125.775 364.258 C 1125.991 364.426 1126.257 364.53 1126.544 364.53 L 1126.793 364.53 C 1127.756 364.53 1128.511 365.285 1128.511 366.248 L 1128.511 367.142 C 1128.511 368.025 1128.239 368.811 1127.78 369.366 C 1127.322 369.92 1126.685 370.252 1125.899 370.252 C 1125.856 370.252 1125.816 370.258 1125.775 370.267 L 1125.775 369.708 C 1125.854 369.737 1125.939 369.753 1126.023 369.754 C 1126.657 369.754 1127.226 369.419 1127.625 368.884 C 1128.023 368.348 1128.262 367.612 1128.262 366.769 L 1128.262 366.373 C 1128.262 365.493 1127.549 364.78 1126.669 364.779 L 1126.373 364.779 C 1126.161 364.779 1125.953 364.841 1125.775 364.958 L 1125.775 364.258 Z  M 1122.292 364.282 C 1122.017 364.282 1121.795 364.504 1121.795 364.779 C 1121.795 365.054 1122.017 365.277 1122.292 365.277 C 1122.567 365.277 1122.79 365.054 1122.79 364.779 C 1122.79 364.504 1122.567 364.282 1122.292 364.282 Z  M 1126.373 365.277 L 1126.669 365.277 C 1126.96 365.274 1127.241 365.389 1127.447 365.595 C 1127.653 365.801 1127.767 366.081 1127.765 366.373 L 1127.765 366.769 C 1127.765 367.518 1127.552 368.154 1127.228 368.588 C 1126.905 369.023 1126.484 369.257 1126.023 369.257 C 1125.885 369.257 1125.775 369.146 1125.775 369.008 L 1125.775 365.875 C 1125.775 365.533 1126.031 365.277 1126.373 365.277 Z  M 1120.8 366.023 C 1121.347 366.023 1121.795 366.471 1121.795 367.018 C 1121.795 367.565 1121.347 368.013 1120.8 368.013 C 1120.252 368.013 1119.805 367.565 1119.805 367.018 C 1119.805 366.471 1120.252 366.023 1120.8 366.023 Z  M 1123.785 366.023 C 1124.332 366.023 1124.78 366.471 1124.78 367.018 C 1124.78 367.565 1124.332 368.013 1123.785 368.013 C 1123.237 368.013 1122.79 367.565 1122.79 367.018 C 1122.79 366.471 1123.237 366.023 1123.785 366.023 Z  M 1120.8 366.52 C 1120.525 366.52 1120.302 366.743 1120.302 367.018 C 1120.302 367.293 1120.525 367.515 1120.8 367.515 C 1121.074 367.515 1121.297 367.293 1121.297 367.018 C 1121.297 366.743 1121.074 366.52 1120.8 366.52 Z  M 1123.785 366.52 C 1123.51 366.52 1123.287 366.743 1123.287 367.018 C 1123.287 367.293 1123.51 367.515 1123.785 367.515 C 1124.059 367.515 1124.282 367.293 1124.282 367.018 C 1124.282 366.743 1124.059 366.52 1123.785 366.52 Z  M 1119.307 368.215 C 1119.382 368.215 1119.481 368.238 1119.556 368.238 C 1119.706 368.288 1119.853 368.365 1119.952 368.464 C 1119.952 368.464 1119.976 368.462 1119.976 368.487 L 1120.053 368.557 L 1120.1 368.611 C 1120.125 368.637 1120.129 368.656 1120.154 368.682 C 1120.18 368.707 1120.176 368.734 1120.201 368.759 C 1120.201 368.785 1120.224 368.811 1120.224 368.837 C 1120.25 368.862 1120.255 368.905 1120.255 368.93 C 1120.255 368.955 1120.254 368.983 1120.279 369.008 C 1120.279 369.058 1120.302 369.129 1120.302 369.179 C 1120.302 369.229 1120.304 369.308 1120.279 369.358 C 1120.279 369.383 1120.281 369.402 1120.255 369.428 C 1120.255 369.477 1120.224 369.503 1120.224 369.529 C 1120.224 369.554 1120.201 369.581 1120.201 369.606 C 1120.176 369.632 1120.18 369.651 1120.154 369.677 C 1120.129 369.702 1120.125 369.729 1120.1 369.754 L 1119.975 369.879 C 1119.975 369.879 1119.952 369.877 1119.952 369.902 C 1119.828 370.001 1119.706 370.078 1119.556 370.127 C 1119.481 370.226 1119.382 370.252 1119.307 370.252 L 1119.307 369.754 C 1119.406 369.754 1119.481 369.726 1119.556 369.676 C 1119.63 369.627 1119.677 369.58 1119.727 369.505 L 1119.727 369.482 C 1119.752 369.457 1119.756 369.431 1119.781 369.381 L 1119.781 369.358 C 1119.781 369.308 1119.805 369.283 1119.805 369.233 C 1119.805 369.184 1119.807 369.159 1119.781 369.109 L 1119.781 369.086 C 1119.781 369.06 1119.752 369.034 1119.727 368.985 L 1119.727 368.961 C 1119.677 368.887 1119.631 368.832 1119.556 368.782 C 1119.481 368.733 1119.406 368.713 1119.307 368.713 L 1119.307 368.215 Z  M 1122.292 368.262 C 1122.839 368.262 1123.287 368.709 1123.287 369.257 C 1123.287 369.804 1122.839 370.252 1122.292 370.252 C 1121.745 370.252 1121.297 369.804 1121.297 369.257 C 1121.297 368.709 1121.745 368.262 1122.292 368.262 Z  M 1125.153 368.363 C 1125.197 368.36 1125.24 368.363 1125.277 368.363 L 1125.277 368.759 C 1125.178 368.759 1125.103 368.787 1125.028 368.837 C 1124.954 368.887 1124.907 368.933 1124.857 369.008 L 1124.857 369.031 C 1124.832 369.056 1124.828 369.083 1124.803 369.132 L 1124.803 369.156 C 1124.803 369.205 1124.78 369.23 1124.78 369.28 C 1124.78 369.33 1124.778 369.355 1124.803 369.404 L 1124.803 369.428 C 1124.803 369.453 1124.832 369.479 1124.857 369.529 L 1124.857 369.552 C 1124.907 369.627 1124.954 369.681 1125.028 369.731 C 1125.103 369.78 1125.178 369.801 1125.277 369.801 L 1125.277 370.298 C 1125.203 370.298 1125.103 370.275 1125.028 370.275 C 1124.879 370.225 1124.731 370.149 1124.632 370.049 C 1124.632 370.049 1124.609 370.051 1124.609 370.026 L 1124.531 369.956 L 1124.484 369.902 C 1124.459 369.877 1124.455 369.857 1124.43 369.832 C 1124.405 369.807 1124.409 369.78 1124.383 369.754 C 1124.383 369.729 1124.36 369.702 1124.36 369.676 C 1124.335 369.651 1124.329 369.608 1124.329 369.583 C 1124.329 369.558 1124.331 369.531 1124.306 369.505 C 1124.306 369.456 1124.282 369.384 1124.282 369.334 C 1124.282 369.285 1124.28 369.205 1124.306 369.156 C 1124.306 369.13 1124.304 369.111 1124.329 369.086 C 1124.329 369.036 1124.36 369.01 1124.36 368.985 C 1124.36 368.959 1124.383 368.932 1124.383 368.907 C 1124.409 368.882 1124.405 368.862 1124.43 368.837 C 1124.455 368.812 1124.459 368.785 1124.484 368.759 L 1124.609 368.635 C 1124.609 368.635 1124.632 368.637 1124.632 368.611 C 1124.756 368.512 1124.879 368.436 1125.028 368.386 C 1125.065 368.374 1125.109 368.366 1125.153 368.363 Z  M 1122.292 368.759 C 1122.017 368.759 1121.795 368.982 1121.795 369.257 C 1121.795 369.531 1122.017 369.754 1122.292 369.754 C 1122.567 369.754 1122.79 369.531 1122.79 369.257 C 1122.79 368.982 1122.567 368.759 1122.292 368.759 Z  M 1120.823 370.5 C 1121.295 370.5 1121.67 370.824 1121.795 371.247 L 1121.219 371.247 C 1121.145 371.097 1120.973 370.998 1120.8 370.998 C 1120.625 370.998 1120.455 371.097 1120.38 371.247 L 1119.851 371.247 C 1119.95 370.824 1120.351 370.5 1120.823 370.5 Z  M 1123.808 370.5 C 1124.28 370.5 1124.655 370.824 1124.78 371.247 L 1124.204 371.247 C 1124.13 371.097 1123.959 370.998 1123.785 370.998 C 1123.611 370.998 1123.44 371.097 1123.365 371.247 L 1122.836 371.247 C 1122.935 370.824 1123.336 370.5 1123.808 370.5 Z  M 1119.307 371.744 L 1125.277 371.744 L 1125.277 371.993 C 1125.277 372.131 1125.167 372.242 1125.028 372.242 L 1119.556 372.242 C 1119.418 372.242 1119.307 372.131 1119.307 371.993 L 1119.307 371.744 Z " fill="rgb(255,255,255)"/></g></g></svg>