<?xml version="1.0" encoding="UTF-8" standalone="no"?><!-- Generator: Gravit.io --><svg xmlns="http://www.w3.org/2000/svg" xmlns:xlink="http://www.w3.org/1999/xlink" style="isolation:isolate" viewBox="1084 356.259 21.518 21.518" width="21.518pt" height="21.518pt"><g><rect x="1084" y="356.259" width="21.518" height="21.518" transform="matrix(1,0,0,1,0,0)" fill="rgb(15,15,15)"/><g><path d=" M 1091.088 362.363 C 1091.088 362.363 1090.694 362.347 1090.304 362.568 C 1089.913 362.79 1089.532 363.298 1089.532 364.1 C 1089.532 364.793 1090.103 365.338 1090.846 365.607 C 1091.184 365.725 1091.538 365.786 1091.896 365.788 C 1091.888 365.857 1091.884 365.936 1091.884 365.993 C 1091.884 367.383 1092.619 367.533 1092.619 370.467 L 1092.619 370.901 C 1092.459 370.904 1092.316 371.005 1092.262 371.156 C 1092.208 371.308 1092.253 371.477 1092.375 371.581 C 1092.498 371.685 1092.671 371.702 1092.812 371.624 C 1092.812 371.624 1092.937 371.635 1093.078 371.564 C 1093.218 371.493 1093.391 371.27 1093.391 371.046 L 1093.391 370.431 C 1093.391 369.427 1093.504 368.115 1093.62 367.729 C 1093.967 366.765 1094.66 367.725 1094.814 367.995 C 1094.968 368.265 1095.284 368.697 1095.284 370.395 L 1095.32 370.406 L 1095.32 370.901 C 1095.16 370.904 1095.017 371.005 1094.963 371.156 C 1094.909 371.308 1094.954 371.477 1095.076 371.581 C 1095.199 371.685 1095.373 371.702 1095.513 371.624 C 1095.513 371.624 1095.638 371.635 1095.779 371.564 C 1095.919 371.493 1096.092 371.27 1096.092 371.046 L 1096.092 369.092 C 1096.136 368.726 1096.229 368.537 1096.442 368.537 C 1096.867 368.537 1096.827 369.119 1096.827 370.623 C 1096.827 370.687 1096.843 370.737 1096.864 370.781 L 1096.864 371.046 C 1096.864 371.27 1097.037 371.493 1097.177 371.564 C 1097.318 371.635 1097.443 371.624 1097.443 371.624 C 1097.62 371.627 1097.776 371.509 1097.822 371.338 C 1097.867 371.167 1097.791 370.987 1097.636 370.901 L 1097.636 369.683 C 1097.681 368.977 1097.754 368.273 1097.853 367.573 C 1098.364 367.31 1098.713 366.804 1098.793 366.222 L 1098.793 366.029 C 1098.793 364.911 1098.407 364.293 1098.407 364.293 L 1097.901 365.185 C 1097.627 365.104 1097.342 365.064 1097.057 365.065 C 1096.748 365.065 1096.483 365.108 1096.212 365.185 L 1095.706 364.293 C 1095.706 364.293 1095.32 364.911 1095.32 366.029 L 1095.32 366.222 C 1095.397 367.11 1096.131 367.766 1097.057 367.766 C 1097.172 367.766 1097.286 367.75 1097.394 367.729 C 1097.198 367.837 1096.942 367.922 1096.598 367.922 C 1095.98 367.922 1094.467 367.187 1095.007 364.293 C 1094.93 364.293 1094.472 363.521 1093.777 363.521 C 1092.86 363.521 1092.331 364.291 1092.077 365.016 C 1091.745 365.039 1091.413 364.994 1091.1 364.884 C 1090.56 364.689 1090.304 364.332 1090.304 364.1 C 1090.304 363.512 1090.501 363.351 1090.69 363.244 C 1090.878 363.137 1091.064 363.135 1091.064 363.135 C 1091.277 363.141 1091.455 362.974 1091.461 362.761 C 1091.468 362.548 1091.301 362.37 1091.088 362.363 Z " fill="rgb(255,255,255)"/></g></g></svg>