<?xml version="1.0" encoding="UTF-8" standalone="no"?><!-- Generator: Gravit.io --><svg xmlns="http://www.w3.org/2000/svg" xmlns:xlink="http://www.w3.org/1999/xlink" style="isolation:isolate" viewBox="570 500 80 80" width="80pt" height="80pt"><g><g><rect x="570" y="500" width="10" height="10" transform="matrix(1,0,0,1,0,0)" fill="rgb(0,0,0)"/></g><g><rect x="570" y="500" width="10" height="10" transform="matrix(1,0,0,1,0,0)" fill="rgb(0,0,0)"/></g><g><rect x="640" y="500" width="10" height="10" transform="matrix(1,0,0,1,0,0)" fill="rgb(0,0,0)"/></g><g><rect x="640" y="570" width="10" height="10" transform="matrix(1,0,0,1,0,0)" fill="rgb(0,0,0)"/></g><g><rect x="570" y="570" width="10" height="10" transform="matrix(1,0,0,1,0,0)" fill="rgb(0,0,0)"/></g><g><rect x="570" y="570" width="10" height="10" transform="matrix(1,0,0,1,0,0)" fill="rgb(0,0,0)"/></g><g><rect x="580" y="560" width="10" height="10" transform="matrix(1,0,0,1,0,0)" fill="rgb(0,0,0)"/></g><g><rect x="590" y="550" width="10" height="10" transform="matrix(1,0,0,1,0,0)" fill="rgb(0,0,0)"/></g><g><rect x="600" y="540" width="10" height="10" transform="matrix(1,0,0,1,0,0)" fill="rgb(0,0,0)"/></g><g><rect x="610" y="530" width="10" height="10" transform="matrix(1,0,0,1,0,0)" fill="rgb(0,0,0)"/></g><g><rect x="620" y="520" width="10" height="10" transform="matrix(1,0,0,1,0,0)" fill="rgb(0,0,0)"/></g><g><rect x="630" y="510" width="10" height="10" transform="matrix(1,0,0,1,0,0)" fill="rgb(0,0,0)"/></g><g><rect x="640" y="500" width="10" height="10" transform="matrix(1,0,0,1,0,0)" fill="rgb(0,0,0)"/><g opacity="0.21"><rect x="640" y="510" width="10" height="10" transform="matrix(1,0,0,1,0,0)" fill="rgb(0,0,0)"/></g><g opacity="0.21"><rect x="630" y="520" width="10" height="10" transform="matrix(1,0,0,1,0,0)" fill="rgb(0,0,0)"/></g><g opacity="0.21"><rect x="620" y="530" width="10" height="10" transform="matrix(1,0,0,1,0,0)" fill="rgb(0,0,0)"/></g><g opacity="0.21"><rect x="600" y="550" width="10" height="10" transform="matrix(1,0,0,1,0,0)" fill="rgb(0,0,0)"/></g><g opacity="0.21"><rect x="590" y="560" width="10" height="10" transform="matrix(1,0,0,1,0,0)" fill="rgb(0,0,0)"/></g><g opacity="0.21"><rect x="580" y="570" width="10" height="10" transform="matrix(1,0,0,1,0,0)" fill="rgb(0,0,0)"/></g><g opacity="0.21"><rect x="610" y="550" width="10" height="10" transform="matrix(1,0,0,1,0,0)" fill="rgb(0,0,0)"/></g><g opacity="0.21"><rect x="620" y="560" width="10" height="10" transform="matrix(1,0,0,1,0,0)" fill="rgb(0,0,0)"/></g><g opacity="0.21"><rect x="630" y="570" width="10" height="10" transform="matrix(1,0,0,1,0,0)" fill="rgb(0,0,0)"/></g><g opacity="0.21"><rect x="570" y="510" width="10" height="10" transform="matrix(1,0,0,1,0,0)" fill="rgb(0,0,0)"/></g><g opacity="0.21"><rect x="580" y="520" width="10" height="10" transform="matrix(1,0,0,1,0,0)" fill="rgb(0,0,0)"/></g><g opacity="0.21"><rect x="590" y="530" width="10" height="10" transform="matrix(1,0,0,1,0,0)" fill="rgb(0,0,0)"/></g></g><g><rect x="580" y="510" width="10" height="10" transform="matrix(1,0,0,1,0,0)" fill="rgb(0,0,0)"/></g><g><rect x="590" y="520" width="10" height="10" transform="matrix(1,0,0,1,0,0)" fill="rgb(0,0,0)"/></g><g><rect x="600" y="530" width="10" height="10" transform="matrix(1,0,0,1,0,0)" fill="rgb(0,0,0)"/></g><g><rect x="610" y="540" width="10" height="10" transform="matrix(1,0,0,1,0,0)" fill="rgb(0,0,0)"/></g><g><rect x="620" y="550" width="10" height="10" transform="matrix(1,0,0,1,0,0)" fill="rgb(0,0,0)"/></g><g><rect x="630" y="560" width="10" height="10" transform="matrix(1,0,0,1,0,0)" fill="rgb(0,0,0)"/></g></g></svg>