<?xml version="1.0" encoding="UTF-8" standalone="no"?><!-- Generator: Gravit.io --><svg xmlns="http://www.w3.org/2000/svg" xmlns:xlink="http://www.w3.org/1999/xlink" style="isolation:isolate" viewBox="570 690 80 80" width="80pt" height="80pt"><g><g><rect x="570" y="690" width="10" height="10" transform="matrix(1,0,0,1,0,0)" fill="rgb(255,255,255)"/></g><g><rect x="570" y="690" width="10" height="10" transform="matrix(1,0,0,1,0,0)" fill="rgb(255,255,255)"/></g><g><rect x="640" y="690" width="10" height="10" transform="matrix(1,0,0,1,0,0)" fill="rgb(0,0,0)"/></g><g><rect x="640" y="760" width="10" height="10" transform="matrix(1,0,0,1,0,0)" fill="rgb(255,255,255)"/></g><g><rect x="570" y="760" width="10" height="10" transform="matrix(1,0,0,1,0,0)" fill="rgb(0,0,0)"/></g><g><rect x="570" y="760" width="10" height="10" transform="matrix(1,0,0,1,0,0)" fill="rgb(255,255,255)"/></g><g><rect x="580" y="750" width="10" height="10" transform="matrix(1,0,0,1,0,0)" fill="rgb(255,255,255)"/></g><g><rect x="590" y="740" width="10" height="10" transform="matrix(1,0,0,1,0,0)" fill="rgb(255,255,255)"/></g><g><rect x="600" y="730" width="10" height="10" transform="matrix(1,0,0,1,0,0)" fill="rgb(255,255,255)"/></g><g><rect x="610" y="720" width="10" height="10" transform="matrix(1,0,0,1,0,0)" fill="rgb(255,255,255)"/></g><g><rect x="620" y="710" width="10" height="10" transform="matrix(1,0,0,1,0,0)" fill="rgb(255,255,255)"/></g><g><rect x="630" y="700" width="10" height="10" transform="matrix(1,0,0,1,0,0)" fill="rgb(255,255,255)"/></g><g><rect x="640" y="690" width="10" height="10" transform="matrix(1,0,0,1,0,0)" fill="rgb(255,255,255)"/><g opacity="0.21"><rect x="640" y="700" width="10" height="10" transform="matrix(1,0,0,1,0,0)" fill="rgb(0,0,0)"/></g><g opacity="0.21"><rect x="630" y="710" width="10" height="10" transform="matrix(1,0,0,1,0,0)" fill="rgb(0,0,0)"/></g><g opacity="0.21"><rect x="620" y="720" width="10" height="10" transform="matrix(1,0,0,1,0,0)" fill="rgb(0,0,0)"/></g><g opacity="0.21"><rect x="600" y="740" width="10" height="10" transform="matrix(1,0,0,1,0,0)" fill="rgb(0,0,0)"/></g><g opacity="0.21"><rect x="590" y="750" width="10" height="10" transform="matrix(1,0,0,1,0,0)" fill="rgb(0,0,0)"/></g><g opacity="0.21"><rect x="580" y="760" width="10" height="10" transform="matrix(1,0,0,1,0,0)" fill="rgb(0,0,0)"/></g><g opacity="0.21"><rect x="610" y="740" width="10" height="10" transform="matrix(1,0,0,1,0,0)" fill="rgb(0,0,0)"/></g><g opacity="0.21"><rect x="620" y="750" width="10" height="10" transform="matrix(1,0,0,1,0,0)" fill="rgb(0,0,0)"/></g><g opacity="0.21"><rect x="630" y="760" width="10" height="10" transform="matrix(1,0,0,1,0,0)" fill="rgb(0,0,0)"/></g><g opacity="0.21"><rect x="570" y="700" width="10" height="10" transform="matrix(1,0,0,1,0,0)" fill="rgb(0,0,0)"/></g><g opacity="0.21"><rect x="580" y="710" width="10" height="10" transform="matrix(1,0,0,1,0,0)" fill="rgb(0,0,0)"/></g><g opacity="0.21"><rect x="590" y="720" width="10" height="10" transform="matrix(1,0,0,1,0,0)" fill="rgb(0,0,0)"/></g></g><g><rect x="580" y="700" width="10" height="10" transform="matrix(1,0,0,1,0,0)" fill="rgb(255,255,255)"/></g><g><rect x="590" y="710" width="10" height="10" transform="matrix(1,0,0,1,0,0)" fill="rgb(255,255,255)"/></g><g><rect x="600" y="720" width="10" height="10" transform="matrix(1,0,0,1,0,0)" fill="rgb(255,255,255)"/></g><g><rect x="610" y="730" width="10" height="10" transform="matrix(1,0,0,1,0,0)" fill="rgb(255,255,255)"/></g><g><rect x="620" y="740" width="10" height="10" transform="matrix(1,0,0,1,0,0)" fill="rgb(255,255,255)"/></g><g><rect x="630" y="750" width="10" height="10" transform="matrix(1,0,0,1,0,0)" fill="rgb(255,255,255)"/></g></g></svg>