<?xml version="1.0" encoding="UTF-8" standalone="no"?><!-- Generator: Gravit.io --><svg xmlns="http://www.w3.org/2000/svg" xmlns:xlink="http://www.w3.org/1999/xlink" style="isolation:isolate" viewBox="550 980 80 80" width="80pt" height="80pt"><g><g opacity="0.25"><rect x="550" y="1010" width="30" height="10" transform="matrix(1,0,0,1,0,0)" fill="rgb(0,0,0)"/></g><g opacity="0.25"><rect x="600" y="1010" width="30" height="10" transform="matrix(1,0,0,1,0,0)" fill="rgb(0,0,0)"/></g><path d=" M 570 980 L 580 980 L 580 1010 L 550 1010 L 550 1000 L 570 1000 L 570 980 Z " fill="rgb(0,0,0)"/><path d=" M 550 1040 L 550 1030 L 580 1030 L 580 1060 L 570 1060 L 570 1040 L 550 1040 Z " fill="rgb(0,0,0)"/><path d=" M 610 1060 L 600 1060 L 600 1030 L 630 1030 L 630 1040 L 610 1040 L 610 1060 Z " fill="rgb(0,0,0)"/><g opacity="0.24"><path d=" M 616.667 1060 L 610 1060 L 610 1040 L 630 1040 L 630 1046.667 L 616.667 1046.667 L 616.667 1060 Z " fill="rgb(0,0,0)"/></g><g opacity="0.24"><path d=" M 550 1046.667 L 550 1040 L 570 1040 L 570 1060 L 563.333 1060 L 563.333 1046.667 L 550 1046.667 Z " fill="rgb(0,0,0)"/></g><path d=" M 630 1000 L 630 1010 L 600 1010 L 600 980 L 610 980 L 610 1000 L 630 1000 Z " fill="rgb(0,0,0)"/></g></svg>