<?xml version="1.0" encoding="UTF-8" standalone="no"?><!-- Generator: Gravit.io --><svg xmlns="http://www.w3.org/2000/svg" xmlns:xlink="http://www.w3.org/1999/xlink" style="isolation:isolate" viewBox="676 690 50 49.997" width="50pt" height="49.997pt"><g><path d=" M 724.718 730.467 L 685.533 691.282 C 683.824 689.573 681.053 689.573 679.347 691.282 L 677.282 693.344 C 675.573 695.053 675.573 697.824 677.282 699.53 L 716.467 738.715 C 718.176 740.424 720.947 740.424 722.653 738.715 L 724.715 736.653 C 726.427 734.947 726.427 732.176 724.718 730.467 L 724.718 730.467 Z " fill="rgb(0,0,0)"/><path d=" M 716.467 691.282 L 677.282 730.467 C 675.573 732.176 675.573 734.947 677.282 736.653 L 679.344 738.715 C 681.053 740.424 683.824 740.424 685.53 738.715 L 724.718 699.533 C 726.427 697.824 726.427 695.053 724.718 693.347 L 722.656 691.285 C 720.947 689.573 718.176 689.573 716.467 691.282 L 716.467 691.282 Z " fill="rgb(0,0,0)"/></g></svg>