<svg class="logoImage-0-1-68" xmlns:xlink="http://www.w3.org/1999/xlink" xmlns="http://www.w3.org/2000/svg" viewBox="0 0 132 18" height="18px" width="132px"><title>CodinGame_Logo_Final_Full</title><g fill-rule="evenodd" fill="none" stroke-width="1" stroke="none" id="final"><g transform="translate(-30.000000, -21.000000)" id="header-"><g transform="translate(30.000000, 21.000000)" id="CodinGame_Logo_Final_Full"><path id="Path" d="M78.2594332,13.5779104 C78.0483401,14.7922388 79.3362753,14.6310448 79.3362753,14.6310448 C79.3362753,14.6310448 80.6990283,14.6767164 81.1906883,12.9170149 C81.2414575,12.6268657 81.3136032,12.2131343 81.3136032,12.2131343 C81.3136032,12.2131343 80.4505263,12.3931343 79.6676113,12.4602985 C78.4331174,12.6429851 78.2781377,13.4623881 78.2594332,13.5779104 Z"></path><path id="Path" d="M21.4727126,9.23104478 L21.4727126,9.23641791 C21.4727126,9.23641791 20.3050202,9.14507463 19.6717409,10.3943284 C18.9208907,12.1244776 19.2575709,13.2232836 19.2816194,13.3253731 C19.5167611,14.2898507 20.6042915,14.2576119 20.6042915,14.2576119 L20.6042915,14.2522388 C20.6042915,14.2522388 21.7719838,14.3435821 22.4052632,13.0943284 C23.1561134,11.3641791 22.8194332,10.2653731 22.7953846,10.1632836 C22.5602429,9.1961194 21.4727126,9.23104478 21.4727126,9.23104478 Z"></path><path id="Path" d="M35.9339271,9.22298507 C34.814332,9.20149254 33.9565992,10.5528358 33.7294737,11.8638806 C33.5023482,13.1749254 33.702753,14.2146269 35.0681781,14.2361194 C35.88583,14.2361194 36.8557895,13.7444776 37.2272065,11.8638806 C37.3821862,10.9692537 37.5051012,9.22298507 35.9339271,9.22298507 Z"></path><path id="Path" d="M115.475951,8.64 C113.990283,8.64 113.650931,10.6038806 113.650931,10.6038806 L116.547449,10.6038806 C116.547449,10.6038806 116.961619,8.64 115.475951,8.64 Z"></path><path fill-rule="nonzero" fill="#FFFFFF" id="Path" d="M7.94939271,5.91044776 C7.94939271,5.91044776 8.71360324,5.48597015 9.72097166,5.32746269 C12.5052632,5.05880597 13.86,6.17910448 13.86,6.17910448 L14.6375709,1.67910448 C14.6375709,1.67910448 10.6936032,0.470149254 7.01684211,1.76776119 C5.95336032,2.12507463 2.65603239,3.42537313 0.96194332,7.67820896 C0.550445344,8.64 0.293927126,10.3862687 0.259190283,10.8349254 C-0.0748178138,15.9850746 3.54582996,17.7071642 7.17182186,17.7313433 C9.79578947,17.7528358 11.9468016,17.038209 11.9868826,16.9925373 L12.7297166,12.6940299 C12.7297166,12.6940299 10.6989474,13.68 8.90866397,13.6128358 C7.1157085,13.5456716 6.32477733,12.718209 5.8945749,12.1137313 C5.46437247,11.5092537 5.29603239,10.0316418 5.84380567,8.41970149 C6.39157895,6.80776119 7.70890688,6.02328358 7.94939271,5.91044776 Z"></path><path fill-rule="nonzero" fill="#FFFFFF" id="Shape" d="M22.0739271,5.75462687 C22.0739271,5.75462687 15.6262348,5.44029851 14.4344939,11.6865672 C13.9668826,14.3274627 14.7925506,17.7313433 20.0030769,17.7313433 C25.2136032,17.7313433 27.2149798,14.3274627 27.6612146,11.6865672 C28.628502,5.44029851 22.0739271,5.75462687 22.0739271,5.75462687 Z M22.4052632,13.0916418 C21.7719838,14.3435821 20.6042915,14.2495522 20.6042915,14.2495522 L20.6042915,14.2549254 C20.6042915,14.2549254 19.5167611,14.2871642 19.2816194,13.3226866 C19.2575709,13.220597 18.9208907,12.121791 19.6717409,10.3916418 C20.3050202,9.13970149 21.4727126,9.23373134 21.4727126,9.23373134 L21.4727126,9.22835821 C21.4727126,9.22835821 22.5602429,9.1961194 22.7953846,10.160597 C22.8194332,10.2626866 23.1534413,11.3641791 22.4052632,13.0916418 Z"></path><path fill-rule="nonzero" fill="#FFFFFF" id="Shape" d="M39.0121457,0.537313433 L37.8738462,7.12208955 L37.8738462,7.13552239 C37.3180567,6.16298507 36.3480972,5.61761194 35.0655061,5.61761194 C32.3907692,5.61761194 29.5557085,8.03820896 28.8315789,12.2292537 C28.2517409,15.5820896 29.8148988,17.7555224 32.7007287,17.7555224 C34.2665587,17.7555224 35.4556275,17.1134328 36.3213765,16.1032836 L36.3213765,16.1032836 L36.0889069,17.4519403 L40.8478543,17.4519403 L43.7710931,0.537313433 L39.0121457,0.537313433 Z M37.2272065,11.8665672 C36.8584615,13.7471642 35.88583,14.238806 35.0681781,14.238806 C33.702753,14.2173134 33.5050202,13.1776119 33.7294737,11.8665672 C33.9565992,10.5555224 34.814332,9.20149254 35.9339271,9.22567164 C37.5051012,9.22298507 37.3821862,10.9692537 37.2272065,11.8665672 Z"></path><path fill-rule="nonzero" fill="#FFFFFF" id="Path" d="M55.4132794,6.16298507 C55.4132794,6.16298507 53.9917409,5.20656716 51.5895547,6.16298507 C50.5501215,6.56597015 49.542753,7.85820896 49.542753,7.85820896 L49.8634008,6.00985075 L45.1044534,6.00985075 L43.6802429,14.238806 L48.4391903,14.238806 L48.9842915,11.0820896 L49.002996,10.9773134 C49.0778138,10.5877612 49.4305263,9.22567164 50.6757085,9.22567164 C52.1293117,9.22567164 51.6590283,11.0686567 51.6590283,11.0686567 L50.571498,17.4546269 L55.314413,17.4546269 C55.314413,17.4546269 56.3511741,11.4555224 56.6130364,9.94298507 C57.1127126,7.05223881 55.4132794,6.16298507 55.4132794,6.16298507 Z"></path><ellipse ry="1.92626866" rx="2.18307692" cy="2.37223881" cx="47.9181377" fill-rule="nonzero" fill="#FFFFFF" id="Oval"></ellipse><path fill-rule="nonzero" fill="#F2BB13" id="Path" d="M68.3220243,5.10447761 C71.6407287,5.10447761 72.8030769,5.97761194 72.8030769,5.97761194 C72.8030769,5.97761194 73.4871255,2.01492537 73.5352227,1.74626866 C71.3174089,1.18746269 60.6986235,-0.894626866 58.2910931,9.80597015 C56.842834,18.18 65.6499595,17.7313433 65.6499595,17.7313433 C65.6499595,17.7313433 69.1236437,17.7313433 72.0949798,16.3880597 C72.1404049,16.119403 73.134413,10.3835821 73.134413,10.3835821 L68.2819433,10.3647761 L67.731498,13.6773134 C67.731498,13.6773134 64.720081,14.4832836 63.60583,12.2104478 C63.1863158,11.3695522 63.4695547,9.7361194 63.4695547,9.7361194 C63.4695547,9.7361194 64.1135223,5.10447761 68.3220243,5.10447761 Z"></path><path fill-rule="nonzero" fill="#F2BB13" id="Shape" d="M81.8426721,5.73044776 C79.2160324,5.5961194 76.3889879,6.62507463 76.3889879,6.62507463 L75.8385425,9.80328358 C75.8385425,9.80328358 77.9280972,8.66149254 80.022996,8.66149254 C82.1152227,8.66149254 81.6850202,9.99134328 81.6850202,9.99134328 C81.6850202,9.99134328 78.6014575,10.3298507 78.1445344,10.3808955 C74.3127935,11.0337313 74.0242105,14.1232836 74.0242105,14.1232836 C74.0242105,14.1232836 73.3107692,17.7313433 76.8726316,17.7313433 C79.322915,17.7313433 80.7391093,15.7110448 80.7391093,15.7110448 L80.4398381,17.4465672 L84.7605668,17.4465672 L85.9122267,10.7865672 C85.9095547,10.7919403 87.3818623,5.75462687 81.8426721,5.73044776 Z M81.1880162,12.9170149 C80.6936842,14.6740299 79.3336032,14.6310448 79.3336032,14.6310448 C79.3336032,14.6310448 78.0483401,14.7922388 78.2567611,13.5779104 C78.2754656,13.4623881 78.4331174,12.6429851 79.6649393,12.4576119 C80.4478543,12.3904478 81.3109312,12.2104478 81.3109312,12.2104478 C81.3109312,12.2104478 81.2387854,12.6268657 81.1880162,12.9170149 Z"></path><path fill-rule="nonzero" fill="#F2BB13" id="Path" d="M104.822429,5.71970149 C102.016761,5.71970149 100.624615,7.7238806 100.624615,7.7238806 C100.624615,7.7238806 100.079514,5.71970149 97.4982996,5.71970149 C94.914413,5.71970149 93.3539271,7.79104478 93.3539271,7.79104478 L93.6585425,6.02328358 L88.894251,6.02328358 L86.9195951,17.4519403 L91.6838866,17.4519403 L92.8275304,10.8376119 C92.8275304,10.8376119 93.2176518,9.22567164 94.4868826,9.22567164 C95.7561134,9.22567164 95.451498,10.8591045 95.451498,10.8591045 L94.3105263,17.4519403 L99.0881781,17.4519403 L100.223806,10.880597 C100.223806,10.880597 100.544453,9.22298507 101.880486,9.22298507 C103.216518,9.22298507 102.834413,10.9235821 102.834413,10.9235821 L101.682753,17.4492537 L106.49247,17.4492537 L107.815142,9.80328358 C107.81247,9.80597015 108.541943,5.71970149 104.822429,5.71970149 Z"></path><path fill-rule="nonzero" fill="#F2BB13" id="Shape" d="M127.428097,1.78656716 C125.536275,1.59044776 124.937733,2.55761194 124.614413,3.00895522 C124.194899,3.93850746 123.676518,4.77134328 123.676518,4.77134328 C123.676518,4.77134328 122.257652,6.40477612 120.558219,6.45044776 C118.54081,6.45044776 118.436599,5.70626866 116.355061,5.71701493 C111.908745,5.71701493 109.356923,8.86298507 108.857247,11.7510448 C107.820486,17.7501493 113.42915,17.7635821 113.931498,17.7635821 C117.036437,17.7635821 118.468664,17.0247761 118.468664,17.0247761 L118.946964,14.0695522 C118.946964,14.0695522 117.533441,14.7089552 115.497328,14.7089552 C113.461215,14.7089552 113.236761,13.0970149 113.236761,13.0970149 L120.552874,13.0970149 C120.552874,13.0970149 120.84413,11.141194 120.881538,10.9262687 C121.081943,9.89462687 120.991093,9.30358209 121.049879,9 C121.108664,8.69641791 121.664453,6.1361194 126.36996,5.52895522 C129.063401,5.05880597 129.015361,3.53283582 129.015361,3.42537313 C129.012632,3.31522388 129.012632,2.08208955 127.428097,1.78656716 Z M116.547449,10.6038806 L113.650931,10.6038806 C113.650931,10.6038806 113.990283,8.64 115.475951,8.64 C116.961619,8.64 116.547449,10.6038806 116.547449,10.6038806 Z"></path><path fill-rule="nonzero" fill="#FFD200" id="Path" d="M130.776194,0.247164179 C130.233765,0.247164179 129.795547,0.687761194 129.795547,1.23313433 C129.795547,1.77850746 130.233765,2.21910448 130.776194,2.21910448 C131.318623,2.21910448 131.756842,1.77850746 131.756842,1.23313433 C131.75417,0.687761194 131.315951,0.247164179 130.776194,0.247164179 Z"></path></g></g></g></svg>