<?xml version="1.0" encoding="UTF-8" standalone="no"?><!-- Generator: Gravit.io --><svg xmlns="http://www.w3.org/2000/svg" xmlns:xlink="http://www.w3.org/1999/xlink" style="isolation:isolate" viewBox="980 280 80 80" width="80pt" height="80pt"><g><rect x="980" y="280" width="10" height="10" transform="matrix(1,0,0,1,0,0)" fill="rgb(7,254,106)"/><rect x="990" y="280" width="10" height="10" transform="matrix(1,0,0,1,0,0)" fill="rgb(7,254,106)"/><g opacity="0.24"><rect x="990" y="290" width="10" height="10" transform="matrix(1,0,0,1,0,0)" fill="rgb(7,254,106)"/></g><g opacity="0.24"><rect x="1000" y="290" width="10" height="10" transform="matrix(1,0,0,1,0,0)" fill="rgb(7,254,106)"/></g><g opacity="0.24"><rect x="1010" y="290" width="10" height="10" transform="matrix(1,0,0,1,0,0)" fill="rgb(7,254,106)"/></g><g opacity="0.24"><rect x="1020" y="290" width="10" height="10" transform="matrix(1,0,0,1,0,0)" fill="rgb(7,254,106)"/></g><g opacity="0.24"><rect x="1030" y="290" width="10" height="10" transform="matrix(1,0,0,1,0,0)" fill="rgb(7,254,106)"/></g><g opacity="0.24"><rect x="1040" y="290" width="10" height="10" transform="matrix(1,0,0,1,0,0)" fill="rgb(7,254,106)"/></g><g opacity="0.24"><rect x="1030" y="340" width="10" height="10" transform="matrix(1,0,0,1,0,0)" fill="rgb(7,254,106)"/></g><g opacity="0.24"><rect x="1020" y="340" width="10" height="10" transform="matrix(1,0,0,1,0,0)" fill="rgb(7,254,106)"/></g><g opacity="0.24"><rect x="1010" y="330" width="10" height="10" transform="matrix(1,0,0,1,0,0)" fill="rgb(7,254,106)"/></g><g opacity="0.24"><rect x="1000" y="310" width="10" height="10" transform="matrix(1,0,0,1,0,0)" fill="rgb(7,254,106)"/></g><g opacity="0.24"><rect x="1020" y="325" width="10" height="10" transform="matrix(1,0,0,1,0,0)" fill="rgb(7,254,106)"/></g><g opacity="0.24"><rect x="1000" y="340" width="10" height="10" transform="matrix(1,0,0,1,0,0)" fill="rgb(7,254,106)"/></g><rect x="1000" y="300" width="10" height="10" transform="matrix(1,0,0,1,0,0)" fill="rgb(7,254,106)"/><rect x="1010" y="310" width="10" height="10" transform="matrix(1,0,0,1,0,0)" fill="rgb(7,254,106)"/><rect x="1010" y="320" width="10" height="10" transform="matrix(1,0,0,1,0,0)" fill="rgb(7,254,106)"/><rect x="1000" y="330" width="10" height="10" transform="matrix(1,0,0,1,0,0)" fill="rgb(7,254,106)"/><rect x="1020" y="330" width="10" height="10" transform="matrix(1,0,0,1,0,0)" fill="rgb(7,254,106)"/><rect x="1030" y="330" width="10" height="10" transform="matrix(1,0,0,1,0,0)" fill="rgb(7,254,106)"/><rect x="1020" y="315" width="10" height="10" transform="matrix(1,0,0,1,0,0)" fill="rgb(7,254,106)"/><rect x="1000" y="280" width="10" height="10" transform="matrix(1,0,0,1,0,0)" fill="rgb(7,254,106)"/><rect x="1010" y="280" width="10" height="10" transform="matrix(1,0,0,1,0,0)" fill="rgb(7,254,106)"/><rect x="1020" y="280" width="10" height="10" transform="matrix(1,0,0,1,0,0)" fill="rgb(7,254,106)"/><rect x="1030" y="280" width="10" height="10" transform="matrix(1,0,0,1,0,0)" fill="rgb(7,254,106)"/><rect x="1040" y="280" width="10" height="10" transform="matrix(1,0,0,1,0,0)" fill="rgb(7,254,106)"/><rect x="980" y="290" width="10" height="10" transform="matrix(1,0,0,1,0,0)" fill="rgb(7,254,106)"/><rect x="980" y="300" width="10" height="10" transform="matrix(1,0,0,1,0,0)" fill="rgb(7,254,106)"/><rect x="980" y="310" width="10" height="10" transform="matrix(1,0,0,1,0,0)" fill="rgb(7,254,106)"/><rect x="980" y="320" width="10" height="10" transform="matrix(1,0,0,1,0,0)" fill="rgb(7,254,106)"/><rect x="980" y="330" width="10" height="10" transform="matrix(1,0,0,1,0,0)" fill="rgb(7,254,106)"/><rect x="980" y="340" width="10" height="10" transform="matrix(1,0,0,1,0,0)" fill="rgb(7,254,106)"/><rect x="980" y="350" width="10" height="10" transform="matrix(1,0,0,1,0,0)" fill="rgb(7,254,106)"/><rect x="990" y="350" width="10" height="10" transform="matrix(1,0,0,1,0,0)" fill="rgb(7,254,106)"/><rect x="1000" y="350" width="10" height="10" transform="matrix(1,0,0,1,0,0)" fill="rgb(7,254,106)"/><rect x="1010" y="350" width="10" height="10" transform="matrix(1,0,0,1,0,0)" fill="rgb(7,254,106)"/><rect x="1020" y="350" width="10" height="10" transform="matrix(1,0,0,1,0,0)" fill="rgb(7,254,106)"/><rect x="1030" y="350" width="10" height="10" transform="matrix(1,0,0,1,0,0)" fill="rgb(7,254,106)"/><rect x="1040" y="350" width="10" height="10" transform="matrix(1,0,0,1,0,0)" fill="rgb(7,254,106)"/><rect x="1050" y="350" width="10" height="10" transform="matrix(1,0,0,1,0,0)" fill="rgb(7,254,106)"/><rect x="1050" y="340" width="10" height="10" transform="matrix(1,0,0,1,0,0)" fill="rgb(7,254,106)"/><rect x="1050" y="330" width="10" height="10" transform="matrix(1,0,0,1,0,0)" fill="rgb(7,254,106)"/><rect x="1050" y="320" width="10" height="10" transform="matrix(1,0,0,1,0,0)" fill="rgb(7,254,106)"/><rect x="1050" y="310" width="10" height="10" transform="matrix(1,0,0,1,0,0)" fill="rgb(7,254,106)"/><rect x="1050" y="300" width="10" height="10" transform="matrix(1,0,0,1,0,0)" fill="rgb(7,254,106)"/><rect x="1050" y="290" width="10" height="10" transform="matrix(1,0,0,1,0,0)" fill="rgb(7,254,106)"/><rect x="1050" y="280" width="10" height="10" transform="matrix(1,0,0,1,0,0)" fill="rgb(7,254,106)"/></g></svg>