<?xml version="1.0" encoding="UTF-8" standalone="no"?><!-- Generator: Gravit.io --><svg xmlns="http://www.w3.org/2000/svg" xmlns:xlink="http://www.w3.org/1999/xlink" style="isolation:isolate" viewBox="676 623.489 50 32.557" width="50pt" height="32.557pt"><g><g><g><path d=" M 725.728 652.443 C 725.547 652.26 725.314 652.17 725.032 652.17 L 695.958 652.17 C 695.675 652.17 695.443 652.26 695.261 652.443 C 695.08 652.624 694.989 652.856 694.989 653.139 L 694.989 655.077 C 694.989 655.36 695.08 655.592 695.261 655.773 C 695.443 655.955 695.675 656.046 695.958 656.046 L 725.032 656.046 C 725.314 656.046 725.547 655.955 725.728 655.773 C 725.909 655.592 726 655.36 726 655.077 L 726 653.139 C 726 652.856 725.91 652.624 725.728 652.443 Z " fill="rgb(0,0,0)"/><path d=" M 679.21 623.792 C 679.008 623.59 678.776 623.489 678.513 623.489 C 678.251 623.489 678.019 623.59 677.817 623.792 L 676.303 625.306 C 676.101 625.508 676 625.74 676 626.003 C 676 626.266 676.101 626.498 676.303 626.699 L 688.205 638.602 L 676.303 650.504 C 676.101 650.706 676 650.938 676 651.2 C 676 651.463 676.101 651.695 676.303 651.897 L 677.817 653.411 C 678.019 653.613 678.251 653.714 678.513 653.714 C 678.775 653.714 679.008 653.613 679.21 653.411 L 693.323 639.298 C 693.525 639.096 693.625 638.864 693.625 638.601 C 693.625 638.339 693.525 638.107 693.323 637.905 L 679.21 623.792 Z " fill="rgb(0,0,0)"/></g></g></g></svg>