<?xml version="1.0" encoding="UTF-8" standalone="no"?><!-- Generator: Gravit.io --><svg xmlns="http://www.w3.org/2000/svg" xmlns:xlink="http://www.w3.org/1999/xlink" style="isolation:isolate" viewBox="370 1070 80 80" width="80pt" height="80pt"><g><path d=" M 400.725 1105.74 C 400.379 1105.481 400.031 1105.352 399.685 1105.352 L 398.128 1105.352 L 398.128 1114.679 L 399.686 1114.679 C 400.032 1114.679 400.379 1114.55 400.726 1114.291 C 401.072 1114.032 401.246 1113.644 401.246 1113.125 L 401.246 1106.906 C 401.245 1106.388 401.071 1105.999 400.725 1105.74 L 400.725 1105.74 Z  M 426.08 1090 L 393.92 1090 C 391.759 1090 390.005 1091.749 390 1093.911 L 390 1126.089 C 390.005 1128.251 391.759 1130 393.92 1130 L 426.08 1130 C 428.242 1130 429.995 1128.251 430 1126.089 L 430 1093.911 C 429.995 1091.749 428.241 1090 426.08 1090 L 426.08 1090 Z  M 403.768 1113.142 C 403.768 1114.821 402.731 1117.366 399.45 1117.361 L 395.307 1117.361 L 395.307 1102.588 L 399.538 1102.588 C 402.702 1102.588 403.766 1105.129 403.767 1106.809 L 403.768 1113.142 Z  M 412.757 1105.226 L 408 1105.226 L 408 1108.656 L 410.908 1108.656 L 410.908 1111.296 L 408 1111.296 L 408 1114.726 L 412.758 1114.726 L 412.758 1117.366 L 407.206 1117.366 C 406.21 1117.392 405.381 1116.604 405.356 1115.608 L 405.356 1104.438 C 405.332 1103.442 406.121 1102.615 407.116 1102.59 L 412.758 1102.59 L 412.757 1105.226 Z  M 422.011 1115.52 C 420.832 1118.265 418.721 1117.719 417.775 1115.52 L 414.335 1102.591 L 417.243 1102.591 L 419.896 1112.745 L 422.536 1102.591 L 425.445 1102.591 L 422.011 1115.52 Z " fill="rgb(0,0,0)"/><rect x="370" y="1070" width="80" height="10" transform="matrix(1,0,0,1,0,0)" fill="rgb(0,0,0)"/><g opacity="0.24"><rect x="380" y="1080" width="60" height="10" transform="matrix(1,0,0,1,0,0)" fill="rgb(0,0,0)"/></g><rect x="370" y="1080" width="10" height="70" transform="matrix(1,0,0,1,0,0)" fill="rgb(0,0,0)"/><rect x="380" y="1140" width="70" height="10" transform="matrix(1,0,0,1,0,0)" fill="rgb(0,0,0)"/><rect x="440" y="1080" width="10" height="60" transform="matrix(1,0,0,1,0,0)" fill="rgb(0,0,0)"/></g></svg>