<?xml version="1.0" encoding="UTF-8" standalone="no"?><!-- Generator: Gravit.io --><svg xmlns="http://www.w3.org/2000/svg" xmlns:xlink="http://www.w3.org/1999/xlink" style="isolation:isolate" viewBox="385 1080 50 50" width="50pt" height="50pt"><g><path d=" M 398.406 1099.675 C 397.973 1099.352 397.539 1099.19 397.106 1099.19 L 395.16 1099.19 L 395.16 1110.849 L 397.107 1110.849 C 397.54 1110.849 397.974 1110.687 398.407 1110.364 C 398.84 1110.04 399.057 1109.555 399.057 1108.906 L 399.057 1101.133 C 399.056 1100.485 398.838 1099.999 398.406 1099.675 L 398.406 1099.675 Z  M 430.1 1080 L 389.9 1080 C 387.199 1080 385.007 1082.186 385 1084.888 L 385 1125.112 C 385.007 1127.814 387.199 1130 389.9 1130 L 430.1 1130 C 432.802 1130 434.993 1127.814 435 1125.112 L 435 1084.888 C 434.993 1082.186 432.801 1080 430.1 1080 L 430.1 1080 Z  M 402.21 1108.927 C 402.21 1111.027 400.914 1114.208 396.812 1114.201 L 391.634 1114.201 L 391.634 1095.734 L 396.922 1095.734 C 400.877 1095.734 402.208 1098.911 402.209 1101.011 L 402.21 1108.927 Z  M 413.446 1099.032 L 407.5 1099.032 L 407.5 1103.32 L 411.135 1103.32 L 411.135 1106.621 L 407.5 1106.621 L 407.5 1110.907 L 413.448 1110.907 L 413.448 1114.208 L 406.508 1114.208 C 405.262 1114.24 404.227 1113.256 404.195 1112.01 L 404.195 1098.047 C 404.165 1096.802 405.151 1095.769 406.395 1095.738 L 413.448 1095.738 L 413.446 1099.032 Z  M 425.013 1111.9 C 423.54 1115.331 420.901 1114.648 419.719 1111.9 L 415.419 1095.739 L 419.054 1095.739 L 422.369 1108.431 L 425.67 1095.739 L 429.306 1095.739 L 425.013 1111.9 Z " fill="rgb(0,0,0)"/></g></svg>