<svg id="_x33_0" enable-background="new 0 0 64 64" height="512" viewBox="0 0 64 64" width="512" xmlns="http://www.w3.org/2000/svg"><g><path d="m25 35h2v14h-2z"/><path d="m29 35h2v10h-2z"/><path d="m33 35h2v2h-2z"/><path d="m33 39h2v2h-2z"/><path d="m45 31h2v2h-2z"/><path d="m45 35h2v6h-2z"/><path d="m50.998 19.022c0-.008.002-.015.002-.022 0-.733-.274-1.396-.712-1.917.302-.682.564-1.379.786-2.09 1.619-.041 2.926-1.364 2.926-2.993 0-1.304-.841-2.404-2.005-2.817.001-.061.005-.121.005-.183v-2.184c1.161-.414 2-1.514 2-2.816 0-1.654-1.346-3-3-3s-3 1.346-3 3c0 1.302.839 2.402 2 2.816v2.184c0 .062-.004.123-.005.186-1.159.415-1.995 1.514-1.995 2.814 0 .966.466 1.817 1.177 2.366-.178.574-.386 1.137-.622 1.69-.18-.034-.365-.056-.555-.056-.906 0-1.71.413-2.261 1.05-.247-.018-.491-.05-.739-.05h-6c-3.157 0-6.09 1.494-7.977 4h-4.023c-1.902 0-3.721.526-5.309 1.525-.482-.33-1.064-.525-1.691-.525-.528 0-1.017.149-1.449.389-.455-.457-.886-.936-1.292-1.437.455-.526.741-1.203.741-1.952 0-1.654-1.346-3-3-3-.213 0-.42.024-.621.066-.221-.551-.415-1.109-.583-1.678.726-.547 1.204-1.41 1.204-2.388 0-1.3-.836-2.399-1.995-2.814-.001-.062-.005-.124-.005-.186v-2.184c1.161-.414 2-1.514 2-2.816 0-1.654-1.346-3-3-3s-3 1.346-3 3c0 1.302.839 2.402 2 2.816v2.184c0 .061.004.122.004.183-1.163.413-2.004 1.513-2.004 2.817 0 1.617 1.287 2.929 2.89 2.989.218.732.474 1.452.771 2.156-.407.512-.661 1.151-.661 1.855 0 1.654 1.346 3 3 3 .17 0 .334-.023.496-.05.534.68 1.11 1.325 1.724 1.934-.139.346-.22.721-.22 1.116 0 .797.318 1.518.826 2.056-.532 1.241-.826 2.584-.826 3.944v23c0 4.962 4.038 9 9 9h8c3.113 0 5.861-1.59 7.478-4h4.522c4.962 0 9-4.038 9-9v-23c0-3.163-1.493-6.092-4.002-7.978zm.002-6.022c-.551 0-1-.449-1-1s.449-1 1-1 1 .449 1 1-.449 1-1 1zm0-10c.551 0 1 .449 1 1s-.449 1-1 1-1-.449-1-1 .449-1 1-1zm-3 15c.551 0 1 .449 1 1s-.449 1-1 1-1-.449-1-1 .449-1 1-1zm-7.779 6.101c.336-.657 1.017-1.101 1.779-1.101.361 0 .695.104.988.272-.682.543-1.409 1.042-2.174 1.505-.187-.235-.386-.459-.593-.676zm3.778.911c-.007 1.045-.82 1.894-1.847 1.972-.079-.179-.166-.354-.255-.528.735-.447 1.436-.928 2.102-1.444zm-1.22 3.909c1.789-.355 3.141-1.908 3.207-3.783 1.728.442 3.014 1.999 3.014 3.862v20c0 2.206-1.794 4-4 4h-2v-22c0-.713-.078-1.408-.221-2.079zm2.221-9.921c0 .664.224 1.272.59 1.77-.342.396-.695.782-1.07 1.15-.69-.566-1.56-.92-2.52-.92-1.355 0-2.587.703-3.316 1.783-1.442-1.001-3.158-1.624-5.011-1.749 1.45-1.295 3.335-2.034 5.327-2.034zm-25 5c.551 0 1 .449 1 1s-.449 1-1 1-1-.449-1-1 .449-1 1-1zm-8-21c.551 0 1 .449 1 1s-.449 1-1 1-1-.449-1-1 .449-1 1-1zm-1 9c0-.551.449-1 1-1s1 .449 1 1-.449 1-1 1-1-.449-1-1zm3 7c0-.551.449-1 1-1s1 .449 1 1-.449 1-1 1-1-.449-1-1zm20 42h-8c-3.86 0-7-3.14-7-7v-23c0-1.046.214-2.08.608-3.04.13.018.258.04.392.04.695 0 1.327-.247 1.836-.645.532.295 1.073.567 1.629.815-1.523 1.114-2.465 2.887-2.465 4.83v20c0 3.309 2.691 6 6 6h6c3.309 0 6-2.691 6-6v-20c0-3.155-2.448-5.742-5.544-5.977-.691-1.202-1.973-2.023-3.456-2.023-.565 0-1.115.124-1.623.35-.415-.216-.878-.35-1.377-.35-1.074 0-2.01.572-2.541 1.422-.525-.228-1.038-.478-1.541-.753.05-.215.082-.438.082-.669 0-.288-.054-.561-.13-.825 1.245-.756 2.651-1.175 4.13-1.175h6c4.411 0 8 3.589 8 8v23c0 3.86-3.14 7-7 7zm-4.632-31.18c.782.098 1.57.159 2.36.169-.346.601-.987 1.011-1.728 1.011-.501 0-.956-.203-1.314-.521.263-.18.488-.407.682-.659zm.62-1.939c-.012-.299-.07-.585-.164-.855.059-.005.116-.026.176-.026.733 0 1.367.4 1.716.989-.578-.009-1.154-.047-1.728-.108zm-1.988.119c0 .551-.449 1-1 1s-1-.449-1-1 .449-1 1-1 1 .449 1 1zm-1.488 2.951c.699 1.246 2.025 2.049 3.488 2.049 2.158 0 3.912-1.722 3.986-3.862 1.728.442 3.014 1.999 3.014 3.862v20c0 2.206-1.794 4-4 4h-6c-2.206 0-4-1.794-4-4v-20c0-1.284.616-2.456 1.615-3.2.454.6 1.123 1.023 1.897 1.151zm26.488 19.049c0 3.86-3.14 7-7 7h-3.525c.227-.638.389-1.306.466-2h2.059c3.309 0 6-2.691 6-6v-20c0-2.909-2.082-5.34-4.834-5.884.384-.389.74-.803 1.092-1.22.239.061.485.104.742.104.899 0 1.697-.406 2.248-1.034 1.738 1.51 2.752 3.695 2.752 6.034z"/></g></svg>