<svg width="448" height="136" viewBox="0 0 448 136" fill="none" xmlns="http://www.w3.org/2000/svg">
<path d="M42.9973 107.952C20.6279 107.952 8 90.7574 8 73.563V71.1581C8 53.2423 20.7482 36.7693 42.2757 36.7693C63.5628 36.7693 75.8299 53.0018 75.8299 71.3986V78.3726H28.6857C30.1289 85.9478 34.699 90.3967 42.9973 90.3967C49.0106 90.3967 53.0996 88.2323 54.6631 84.6251H74.6272C71.7408 98.2123 59.9548 107.952 42.9973 107.952ZM42.2757 54.3244C35.0598 54.3244 30.2492 58.4126 28.6857 66.589H55.2644C53.9415 58.6531 49.6119 54.3244 42.2757 54.3244Z" fill="white"/>
<path d="M154.235 129.595H132.346V97.7314C127.896 104.104 120.801 107.711 111.42 107.711C92.8991 107.711 81.1131 93.5229 81.1131 74.1642V71.2784C81.1131 51.9196 93.6207 37.2502 112.262 37.2502C124.529 37.2502 133.188 43.623 136.916 55.0459V39.1741H154.235V129.595ZM118.155 89.6752C126.092 89.6752 132.827 84.1442 132.827 74.1642V70.076C132.827 60.5769 125.732 55.2864 118.155 55.2864C109.376 55.2864 103.001 62.3806 103.001 72.7213C103.001 83.062 109.376 89.6752 118.155 89.6752Z" fill="white"/>
<path d="M194.404 107.952C173.478 107.952 162.534 97.6111 162.534 77.8916V39.1741H184.422V78.4928C184.422 84.5049 188.391 88.4728 194.404 88.4728C200.418 88.4728 204.386 84.5049 204.386 78.4928V39.1741H226.275V77.8916C226.275 97.6111 215.331 107.952 194.404 107.952Z" fill="white"/>
<path d="M246.029 33.8838C238.091 33.8838 234.483 29.3147 234.483 22.9419C234.483 16.5692 238.091 12 246.029 12C253.966 12 257.574 16.5692 257.574 22.9419C257.574 29.3147 253.966 33.8838 246.029 33.8838Z" fill="white"/>
<path d="M371.559 106.268H365.626C347.346 106.268 342.054 99.4147 342.054 83.5429V17.7712H363.943V83.5429C363.943 86.1882 365.266 87.5109 367.911 87.5109H371.559V106.268Z" fill="white"/>
<path d="M392.375 132H379.506V113.723H394.78C400.312 113.723 403.078 111.92 404.401 106.148L404.882 104.104H390.451L371.088 39.1741H392.976L406.446 87.2704H408.611L419.314 39.1741H440L422.561 110.357C418.593 126.709 411.377 132 392.375 132Z" fill="white"/>
<path d="M256.913 105.547H235.024V55.0459V39.1741H256.913V105.547Z" fill="white"/>
<path d="M267.096 42.0744C267.096 40.3398 268.502 38.9336 270.237 38.9336H286.337C288.072 38.9336 289.478 40.3398 289.478 42.0744V58.171C289.478 59.9056 288.072 61.3117 286.337 61.3117H270.237C268.502 61.3117 267.096 59.9056 267.096 58.171V42.0744Z" fill="url(#paint0_linear_92_173)"/>
<path d="M311.861 42.0744C311.861 40.3398 313.268 38.9336 315.003 38.9336H331.103C332.838 38.9336 334.244 40.3398 334.244 42.0744V58.171C334.244 59.9056 332.838 61.3117 331.103 61.3117H315.003C313.268 61.3117 311.861 59.9056 311.861 58.171V42.0744Z" fill="url(#paint1_linear_92_173)"/>
<path d="M311.861 86.8307C311.861 85.0961 313.268 83.6899 315.003 83.6899H331.103C332.838 83.6899 334.244 85.0961 334.244 86.8307V102.927C334.244 104.662 332.838 106.068 331.103 106.068H315.003C313.268 106.068 311.861 104.662 311.861 102.927V86.8307Z" fill="url(#paint2_linear_92_173)"/>
<path d="M267.096 86.8307C267.096 85.0961 268.502 83.6899 270.237 83.6899H286.337C288.072 83.6899 289.478 85.0961 289.478 86.8307V102.927C289.478 104.662 288.072 106.068 286.337 106.068H270.237C268.502 106.068 267.096 104.662 267.096 102.927V86.8307Z" fill="url(#paint3_linear_92_173)"/>
<path d="M289.478 64.4525C289.478 62.7179 290.885 61.3117 292.62 61.3117H308.72C310.455 61.3117 311.861 62.7179 311.861 64.4525V80.5491C311.861 82.2837 310.455 83.6899 308.72 83.6899H292.62C290.885 83.6899 289.478 82.2837 289.478 80.5491V64.4525Z" fill="url(#paint4_linear_92_173)"/>
<path d="M289.478 58.171C289.478 59.9056 288.072 61.3117 286.337 61.3117C288.072 61.3117 289.478 62.7179 289.478 64.4525C289.478 62.7179 290.885 61.3117 292.62 61.3117C290.885 61.3117 289.478 59.9056 289.478 58.171Z" fill="url(#paint5_linear_92_173)"/>
<path d="M315.003 61.3117C313.268 61.3117 311.861 59.9056 311.861 58.171C311.861 59.9056 310.455 61.3117 308.72 61.3117C310.455 61.3117 311.861 62.7179 311.861 64.4525C311.861 62.7179 313.268 61.3117 315.003 61.3117Z" fill="url(#paint6_linear_92_173)"/>
<path d="M311.861 86.8307C311.861 85.0961 313.268 83.6899 315.003 83.6899C313.268 83.6899 311.861 82.2837 311.861 80.5491C311.861 82.2837 310.455 83.6899 308.72 83.6899C310.455 83.6899 311.861 85.0961 311.861 86.8307Z" fill="url(#paint7_linear_92_173)"/>
<path d="M286.337 83.6899C288.072 83.6899 289.478 85.0961 289.478 86.8307C289.478 85.0961 290.885 83.6899 292.62 83.6899C290.885 83.6899 289.478 82.2837 289.478 80.5491C289.478 82.2837 288.072 83.6899 286.337 83.6899Z" fill="url(#paint8_linear_92_173)"/>
<defs>
<linearGradient id="paint0_linear_92_173" x1="334.244" y1="38.9336" x2="267.11" y2="106.082" gradientUnits="userSpaceOnUse">
<stop stop-color="#00E7D9"/>
<stop offset="1" stop-color="#FA00FF"/>
</linearGradient>
<linearGradient id="paint1_linear_92_173" x1="334.244" y1="38.9336" x2="267.11" y2="106.082" gradientUnits="userSpaceOnUse">
<stop stop-color="#00E7D9"/>
<stop offset="1" stop-color="#FA00FF"/>
</linearGradient>
<linearGradient id="paint2_linear_92_173" x1="334.244" y1="38.9336" x2="267.11" y2="106.082" gradientUnits="userSpaceOnUse">
<stop stop-color="#00E7D9"/>
<stop offset="1" stop-color="#FA00FF"/>
</linearGradient>
<linearGradient id="paint3_linear_92_173" x1="334.244" y1="38.9336" x2="267.11" y2="106.082" gradientUnits="userSpaceOnUse">
<stop stop-color="#00E7D9"/>
<stop offset="1" stop-color="#FA00FF"/>
</linearGradient>
<linearGradient id="paint4_linear_92_173" x1="334.244" y1="38.9336" x2="267.11" y2="106.082" gradientUnits="userSpaceOnUse">
<stop stop-color="#00E7D9"/>
<stop offset="1" stop-color="#FA00FF"/>
</linearGradient>
<linearGradient id="paint5_linear_92_173" x1="334.244" y1="38.9336" x2="267.11" y2="106.082" gradientUnits="userSpaceOnUse">
<stop stop-color="#00E7D9"/>
<stop offset="1" stop-color="#FA00FF"/>
</linearGradient>
<linearGradient id="paint6_linear_92_173" x1="334.244" y1="38.9336" x2="267.11" y2="106.082" gradientUnits="userSpaceOnUse">
<stop stop-color="#00E7D9"/>
<stop offset="1" stop-color="#FA00FF"/>
</linearGradient>
<linearGradient id="paint7_linear_92_173" x1="334.244" y1="38.9336" x2="267.11" y2="106.082" gradientUnits="userSpaceOnUse">
<stop stop-color="#00E7D9"/>
<stop offset="1" stop-color="#FA00FF"/>
</linearGradient>
<linearGradient id="paint8_linear_92_173" x1="334.244" y1="38.9336" x2="267.11" y2="106.082" gradientUnits="userSpaceOnUse">
<stop stop-color="#00E7D9"/>
<stop offset="1" stop-color="#FA00FF"/>
</linearGradient>
</defs>
</svg>
