<?xml version="1.0" encoding="UTF-8" standalone="no"?><!-- Generator: Gravit.io --><svg xmlns="http://www.w3.org/2000/svg" xmlns:xlink="http://www.w3.org/1999/xlink" style="isolation:isolate" viewBox="300 1085.23 50 39.54" width="50pt" height="39.54pt"><g><g><g><g><path d=" M 340.686 1094.941 L 322.647 1094.941 L 319.059 1090.677 C 318.938 1090.532 318.757 1090.45 318.569 1090.456 L 304.015 1090.456 C 301.793 1090.472 300 1092.278 300 1094.5 L 300 1120.731 C 300.003 1122.96 301.81 1124.767 304.039 1124.77 L 340.686 1124.77 C 342.916 1124.767 344.723 1122.96 344.725 1120.731 L 344.725 1098.981 C 344.723 1096.751 342.916 1094.944 340.686 1094.941 Z " fill="rgb(0,0,0)"/></g></g><g><g><path d=" M 345.985 1089.716 L 327.941 1089.716 L 324.353 1085.451 C 324.232 1085.306 324.051 1085.225 323.863 1085.231 L 309.314 1085.231 C 307.298 1085.234 305.593 1086.723 305.319 1088.721 L 318.588 1088.721 C 319.284 1088.719 319.945 1089.026 320.392 1089.559 L 323.456 1093.201 L 340.686 1093.201 C 343.873 1093.207 346.455 1095.789 346.461 1098.976 L 346.461 1119.505 C 348.481 1119.253 349.998 1117.536 350 1115.5 L 350 1093.75 C 349.995 1091.532 348.203 1089.732 345.985 1089.716 Z " fill="rgb(0,0,0)"/></g></g></g></g></svg>