<?xml version="1.0" encoding="UTF-8" standalone="no"?><!-- Generator: Gravit.io --><svg xmlns="http://www.w3.org/2000/svg" xmlns:xlink="http://www.w3.org/1999/xlink" style="isolation:isolate" viewBox="783 497 60 49" width="60pt" height="49pt"><g><g><path d=" M 840.49 513 L 837 513 L 837 506.732 C 837 505.225 835.774 504 834.268 504 L 809.515 504 L 804.515 497 L 785.732 497 C 784.226 497 783 498.226 783 499.732 L 783 543.419 L 783.006 543.419 C 783.001 543.982 783.176 544.533 783.528 544.994 C 784.018 545.634 784.76 546 785.565 546 L 830.324 546 C 831.48 546 832.498 545.221 832.774 544.187 L 843 516.149 L 843 515.972 C 843 514.25 841.944 513 840.49 513 Z  M 785 499.732 C 785 499.328 785.329 499 785.732 499 L 803.485 499 L 808.485 506 L 834.267 506 C 834.671 506 834.999 506.328 834.999 506.732 L 834.999 513 L 795.731 513 C 795.587 513 795.444 513.012 795.305 513.036 C 794.332 513.199 793.523 513.909 793.282 514.812 L 785 537.399 L 785 499.732 Z  M 830.869 543.583 C 830.803 543.828 830.578 544 830.324 544 L 785.565 544 C 785.322 544 785.18 543.861 785.117 543.778 C 785.054 543.696 784.957 543.522 784.994 543.37 L 795.185 515.417 C 795.251 515.172 795.476 515 795.73 515 L 837 515 L 840.49 515 C 840.87 515 840.967 515.546 840.992 515.819 L 830.869 543.583 Z " fill="rgb(0,0,0)"/></g><g><g><g><path d=" M 812.343 533.92 L 809.836 541.031 L 813.023 541.031 L 815.531 533.92 L 812.343 533.92 Z  M 812.547 540.295 L 810.831 540.295 L 812.82 534.655 L 814.536 534.655 L 812.547 540.295 Z " fill="rgb(0,0,0)"/></g></g><g><g><path d=" M 819.035 522.444 L 816.933 522.444 L 813.331 529.555 L 817.622 529.555 L 819.035 522.444 Z  M 817.305 523.179 L 818.145 523.179 L 817.024 528.819 L 814.448 528.819 L 817.305 523.179 Z " fill="rgb(0,0,0)"/></g></g><g><g><path d=" M 825.814 528.402 L 824.339 532.585 L 820.833 529.167 L 822.406 517 L 817.402 517 L 810.393 529.167 L 804.477 532.585 L 805.952 528.402 L 805.216 528.402 L 803.553 533.119 L 803.487 533.307 L 801.282 539.559 L 808.883 539.559 L 808.494 540.663 L 809.23 540.663 L 811.478 534.287 L 810.742 534.287 L 809.661 537.353 L 802.795 537.353 L 804.156 533.494 L 810.898 529.599 L 817.732 517.736 L 821.557 517.736 L 820.024 529.599 L 824.018 533.494 L 822.658 537.353 L 815.792 537.353 L 816.873 534.287 L 816.137 534.287 L 813.889 540.663 L 814.624 540.663 L 815.013 539.559 L 822.615 539.559 L 824.82 533.307 L 824.886 533.119 L 826.55 528.402 L 825.814 528.402 Z  M 809.402 538.088 L 809.143 538.824 L 802.277 538.824 L 802.536 538.088 L 809.402 538.088 Z  M 822.139 538.824 L 815.273 538.824 L 815.532 538.088 L 822.398 538.088 L 822.139 538.824 Z " fill="rgb(0,0,0)"/></g></g></g></g></svg>