<?xml version="1.0" encoding="UTF-8" standalone="no"?><!-- Generator: Gravit.io --><svg xmlns="http://www.w3.org/2000/svg" xmlns:xlink="http://www.w3.org/1999/xlink" style="isolation:isolate" viewBox="280 1070 80 80" width="80pt" height="80pt"><g><rect x="280" y="1070" width="80" height="10" transform="matrix(1,0,0,1,0,0)" fill="rgb(0,0,0)"/><g opacity="0.24"><rect x="290" y="1080" width="60" height="10" transform="matrix(1,0,0,1,0,0)" fill="rgb(0,0,0)"/></g><rect x="280" y="1080" width="10" height="70" transform="matrix(1,0,0,1,0,0)" fill="rgb(0,0,0)"/><rect x="290" y="1140" width="70" height="10" transform="matrix(1,0,0,1,0,0)" fill="rgb(0,0,0)"/><rect x="350" y="1080" width="10" height="60" transform="matrix(1,0,0,1,0,0)" fill="rgb(0,0,0)"/><path d=" M 300 1090 L 320 1090 L 320 1100 L 340 1100 L 340 1130 L 300 1130 L 300 1090 Z " fill="rgb(0,0,0)"/><g opacity="0.23"><path d=" M 340 1130 L 340 1140 L 300 1140 L 300 1130 L 340 1130 Z " fill="rgb(0,0,0)"/></g></g></svg>