<?xml version="1.0" encoding="UTF-8" standalone="no"?><!-- Generator: Gravit.io --><svg xmlns="http://www.w3.org/2000/svg" xmlns:xlink="http://www.w3.org/1999/xlink" style="isolation:isolate" viewBox="783 497 60 49" width="60pt" height="49pt"><g><g><path d=" M 840.49 513 L 837 513 L 837 506.732 C 837 505.225 835.774 504 834.268 504 L 809.515 504 L 804.515 497 L 785.732 497 C 784.226 497 783 498.226 783 499.732 L 783 543.419 L 783.006 543.419 C 783.001 543.982 783.176 544.533 783.528 544.994 C 784.018 545.634 784.76 546 785.565 546 L 830.324 546 C 831.48 546 832.498 545.221 832.774 544.187 L 843 516.149 L 843 515.972 C 843 514.25 841.944 513 840.49 513 Z  M 785 499.732 C 785 499.328 785.329 499 785.732 499 L 803.485 499 L 808.485 506 L 834.267 506 C 834.671 506 834.999 506.328 834.999 506.732 L 834.999 513 L 795.731 513 C 795.587 513 795.444 513.012 795.305 513.036 C 794.332 513.199 793.523 513.909 793.282 514.812 L 785 537.399 L 785 499.732 Z  M 830.869 543.583 C 830.803 543.828 830.578 544 830.324 544 L 785.565 544 C 785.322 544 785.18 543.861 785.117 543.778 C 785.054 543.696 784.957 543.522 784.994 543.37 L 795.185 515.417 C 795.251 515.172 795.476 515 795.73 515 L 837 515 L 840.49 515 C 840.87 515 840.967 515.546 840.992 515.819 L 830.869 543.583 Z " fill="rgb(0,0,0)"/></g></g><path d=" M 824.366 528.286 L 821.973 526.662 L 826.084 525.033 C 826.819 524.742 827.26 523.909 826.832 523.618 L 819.964 518.955 C 819.8 518.844 819.538 518.844 819.256 518.956 L 807.457 523.63 C 806.722 523.921 806.281 524.755 806.71 525.046 L 809.102 526.67 L 804.991 528.298 C 804.256 528.59 803.815 529.423 804.244 529.714 L 806.637 531.338 L 802.526 532.967 C 801.79 533.258 801.35 534.091 801.778 534.382 L 808.646 539.045 C 808.81 539.156 809.072 539.156 809.354 539.044 L 821.153 534.37 C 821.888 534.078 822.329 533.245 821.9 532.954 L 819.508 531.33 L 823.619 529.701 C 824.354 529.41 824.795 528.577 824.366 528.286 L 824.366 528.286 Z  M 818.769 520.548 L 824.335 524.327 L 814.772 528.115 L 809.206 524.337 L 818.769 520.548 Z  M 819.404 533.664 L 809.841 537.452 L 804.274 533.673 L 807.938 532.222 L 811.112 534.376 C 811.276 534.487 811.537 534.488 811.819 534.376 L 817.272 532.216 L 819.404 533.664 Z  M 812.307 532.784 L 806.74 529.005 L 810.404 527.553 L 813.577 529.708 C 813.741 529.819 814.003 529.819 814.285 529.707 L 819.737 527.547 L 821.87 528.995 L 812.307 532.784 Z " fill="rgb(0,0,0)"/></svg>