<?xml version="1.0" encoding="UTF-8" standalone="no"?><!-- Generator: Gravit.io --><svg xmlns="http://www.w3.org/2000/svg" xmlns:xlink="http://www.w3.org/1999/xlink" style="isolation:isolate" viewBox="783 497 60 49" width="60pt" height="49pt"><g><g><path d=" M 840.49 513 L 837 513 L 837 506.732 C 837 505.225 835.774 504 834.268 504 L 809.515 504 L 804.515 497 L 785.732 497 C 784.226 497 783 498.226 783 499.732 L 783 543.419 L 783.006 543.419 C 783.001 543.982 783.176 544.533 783.528 544.994 C 784.018 545.634 784.76 546 785.565 546 L 830.324 546 C 831.48 546 832.498 545.221 832.774 544.187 L 843 516.149 L 843 515.972 C 843 514.25 841.944 513 840.49 513 Z  M 785 499.732 C 785 499.328 785.329 499 785.732 499 L 803.485 499 L 808.485 506 L 834.267 506 C 834.671 506 834.999 506.328 834.999 506.732 L 834.999 513 L 795.731 513 C 795.587 513 795.444 513.012 795.305 513.036 C 794.332 513.199 793.523 513.909 793.282 514.812 L 785 537.399 L 785 499.732 Z  M 830.869 543.583 C 830.803 543.828 830.578 544 830.324 544 L 785.565 544 C 785.322 544 785.18 543.861 785.117 543.778 C 785.054 543.696 784.957 543.522 784.994 543.37 L 795.185 515.417 C 795.251 515.172 795.476 515 795.73 515 L 837 515 L 840.49 515 C 840.87 515 840.967 515.546 840.992 515.819 L 830.869 543.583 Z " fill="rgb(0,0,0)"/></g></g><g><path d="M 808.694 520 L 814.014 520 C 814.478 520 814.729 520.355 814.575 520.792 L 812.665 526.208 C 812.511 526.645 812.009 527 811.546 527 L 806.226 527 C 805.762 527 805.511 526.645 805.665 526.208 L 807.575 520.792 C 807.729 520.355 808.231 520 808.694 520 Z" style="stroke:none;fill:#000000;stroke-miterlimit:10;"/><path d="M 820.694 520 L 826.014 520 C 826.478 520 826.729 520.355 826.575 520.792 L 824.665 526.208 C 824.511 526.645 824.009 527 823.546 527 L 818.226 527 C 817.762 527 817.511 526.645 817.665 526.208 L 819.575 520.792 C 819.729 520.355 820.231 520 820.694 520 Z" style="stroke:none;fill:#000000;stroke-miterlimit:10;"/><path d="M 804.454 532 L 809.774 532 C 810.238 532 810.489 532.355 810.335 532.792 L 808.425 538.208 C 808.271 538.645 807.769 539 807.306 539 L 801.986 539 C 801.522 539 801.271 538.645 801.425 538.208 L 803.335 532.792 C 803.489 532.355 803.991 532 804.454 532 Z" style="stroke:none;fill:#000000;stroke-miterlimit:10;"/><path d="M 816.454 532 L 821.774 532 C 822.238 532 822.489 532.355 822.335 532.792 L 820.425 538.208 C 820.271 538.645 819.769 539 819.306 539 L 813.986 539 C 813.522 539 813.271 538.645 813.425 538.208 L 815.335 532.792 C 815.489 532.355 815.991 532 816.454 532 Z" style="stroke:none;fill:#000000;stroke-miterlimit:10;"/></g></svg>