<?xml version="1.0" encoding="UTF-8" standalone="no"?><!-- Generator: Gravit.io --><svg xmlns="http://www.w3.org/2000/svg" xmlns:xlink="http://www.w3.org/1999/xlink" style="isolation:isolate" viewBox="460 980 80 80" width="80pt" height="80pt"><g><g opacity="0.25"><rect x="470" y="990" width="20" height="10" transform="matrix(1,0,0,1,0,0)" fill="rgb(0,0,0)"/></g><g opacity="0.25"><rect x="510" y="990" width="20" height="10" transform="matrix(1,0,0,1,0,0)" fill="rgb(0,0,0)"/></g><path d=" M 460 1030 L 470 1030 L 470 1050 L 490 1050 L 490 1060 L 460 1060 L 460 1030 Z " fill="rgb(0,0,0)"/><path d=" M 490 980 L 490 990 L 470 990 L 470 1010 L 460 1010 L 460 980 L 490 980 Z " fill="rgb(0,0,0)"/><path d=" M 509.996 1060 L 509.996 1050 L 529.996 1050 L 529.996 1030 L 539.996 1030 L 539.996 1060 L 509.996 1060 Z " fill="rgb(0,0,0)"/><path d=" M 540 1010 L 530 1010 L 530 990 L 510 990 L 510 980 L 540 980 L 540 1010 Z " fill="rgb(0,0,0)"/></g></svg>