<?xml version="1.0" encoding="UTF-8" standalone="no"?><!-- Generator: Gravit.io --><svg xmlns="http://www.w3.org/2000/svg" xmlns:xlink="http://www.w3.org/1999/xlink" style="isolation:isolate" viewBox="167 592.041 25 23.959" width="25pt" height="23.959pt"><g><path d=" M 179.5 592.041 C 172.594 592.041 167 597.541 167 604.325 C 167 609.753 170.581 614.356 175.547 615.979 C 176.172 616.094 176.401 615.714 176.401 615.388 C 176.401 615.097 176.391 614.324 176.385 613.3 C 172.908 614.04 172.175 611.652 172.175 611.652 C 171.606 610.234 170.784 609.855 170.784 609.855 C 169.652 609.093 170.872 609.109 170.872 609.109 C 172.127 609.194 172.786 610.375 172.786 610.375 C 173.901 612.253 175.713 611.71 176.427 611.397 C 176.54 610.602 176.861 610.061 177.219 609.754 C 174.443 609.447 171.525 608.39 171.525 603.684 C 171.525 602.343 172.009 601.248 172.811 600.388 C 172.671 600.078 172.249 598.829 172.921 597.137 C 172.921 597.137 173.968 596.808 176.358 598.397 C 177.358 598.124 178.421 597.988 179.483 597.982 C 180.546 597.988 181.608 598.124 182.608 598.397 C 184.983 596.808 186.03 597.137 186.03 597.137 C 186.702 598.829 186.28 600.078 186.155 600.388 C 186.952 601.248 187.436 602.343 187.436 603.684 C 187.436 608.403 184.515 609.441 181.733 609.743 C 182.171 610.112 182.577 610.865 182.577 612.016 C 182.577 613.66 182.561 614.981 182.561 615.38 C 182.561 615.702 182.78 616.086 183.421 615.963 C 188.422 614.351 192 609.744 192 604.325 C 192 597.541 186.403 592.041 179.5 592.041 Z " fill="rgb(255,255,255)"/></g></svg>