<?xml version="1.0" encoding="UTF-8" standalone="no"?><!-- Generator: Gravit.io --><svg xmlns="http://www.w3.org/2000/svg" xmlns:xlink="http://www.w3.org/1999/xlink" style="isolation:isolate" viewBox="467.5 1158.616 65 82.767" width="65pt" height="82.767pt"><g filter="url(#4rPcb8yHEpLxsVFjaM3n3V93OwYz5H7x)"><g style="opacity:0.27;"><path d=" M 485.049 1171.144 C 484.961 1171.351 484.872 1173.927 484.842 1176.858 L 484.753 1182.187 L 482.918 1182.276 L 481.053 1182.364 L 481.053 1186.036 L 481.053 1189.736 L 479.276 1189.736 L 477.5 1189.736 L 477.5 1195.361 L 477.5 1200.986 L 479.276 1200.986 L 481.023 1200.986 L 481.112 1204.746 L 481.201 1208.536 L 483.066 1208.624 L 484.901 1208.713 L 484.901 1214.309 L 484.901 1219.934 L 498.076 1219.934 L 511.25 1219.934 L 511.25 1214.309 L 511.25 1208.684 L 513.174 1208.684 L 515.099 1208.684 L 515.099 1204.835 L 515.099 1200.986 L 517.023 1200.986 L 518.947 1200.986 L 518.947 1199.21 L 518.947 1197.434 L 520.724 1197.434 L 522.5 1197.434 L 522.5 1195.509 L 522.5 1193.585 L 520.724 1193.585 L 518.947 1193.585 L 518.947 1191.661 L 518.947 1189.736 L 517.023 1189.736 L 515.099 1189.736 L 515.099 1186.036 L 515.099 1182.335 L 513.648 1182.335 C 512.849 1182.335 511.99 1182.246 511.724 1182.157 C 511.309 1182.009 511.25 1182.453 511.25 1185.858 L 511.25 1189.736 L 513.174 1189.736 L 515.099 1189.736 L 515.099 1195.361 L 515.099 1200.957 L 513.263 1201.045 L 511.398 1201.134 L 511.309 1204.894 L 511.22 1208.684 L 507.549 1208.684 L 503.878 1208.684 L 503.789 1210.519 L 503.701 1212.384 L 498.668 1212.473 C 492.007 1212.591 492.214 1212.651 492.362 1210.46 L 492.451 1208.684 L 488.691 1208.684 L 484.901 1208.684 L 484.901 1204.835 L 484.901 1200.986 L 482.977 1200.986 L 481.053 1200.986 L 481.053 1195.361 L 481.053 1189.736 L 482.977 1189.736 L 484.901 1189.736 L 484.901 1185.947 L 484.901 1182.128 L 488.602 1182.276 L 492.303 1182.424 L 492.303 1180.44 L 492.303 1178.486 L 494.316 1178.486 L 496.299 1178.486 L 496.211 1187.812 L 496.122 1197.137 L 498.076 1197.137 L 500 1197.137 L 500 1187.812 L 500 1178.486 L 501.924 1178.486 L 503.849 1178.486 L 503.849 1180.351 L 503.849 1182.216 L 507.49 1182.187 L 511.102 1182.187 L 511.191 1176.473 L 511.25 1170.789 L 498.224 1170.789 C 488.069 1170.789 485.138 1170.878 485.049 1171.144 Z " fill="rgb(0,0,0)"/><path d=" M 484.901 1222.45 C 484.901 1223.96 484.99 1224.374 485.345 1224.374 C 485.612 1224.374 485.789 1224.108 485.789 1223.634 C 485.789 1222.953 485.908 1222.894 486.974 1222.894 C 488.039 1222.894 488.158 1222.953 488.158 1223.634 C 488.158 1224.049 488.306 1224.374 488.454 1224.374 C 488.632 1224.374 488.75 1223.545 488.75 1222.45 C 488.75 1221.355 488.632 1220.526 488.454 1220.526 C 488.306 1220.526 488.158 1220.851 488.158 1221.266 C 488.158 1221.917 488.039 1222.006 486.974 1222.006 C 485.908 1222.006 485.789 1221.917 485.789 1221.266 C 485.789 1220.792 485.612 1220.526 485.345 1220.526 C 484.99 1220.526 484.901 1220.94 484.901 1222.45 Z " fill="rgb(0,0,0)"/><path d=" M 489.342 1222.45 C 489.342 1223.96 489.431 1224.374 489.786 1224.374 C 490.053 1224.374 490.23 1224.108 490.23 1223.634 C 490.23 1222.953 490.349 1222.894 491.414 1222.894 C 492.48 1222.894 492.599 1222.953 492.599 1223.664 C 492.599 1224.137 492.747 1224.374 492.984 1224.315 C 493.191 1224.226 493.368 1223.486 493.428 1222.361 L 493.516 1220.526 L 491.414 1220.526 L 489.342 1220.526 L 489.342 1222.45 Z  M 492.599 1221.739 C 492.599 1221.887 492.066 1222.006 491.414 1222.006 C 489.993 1222.006 489.816 1221.503 491.207 1221.355 C 492.273 1221.236 492.599 1221.325 492.599 1221.739 Z " fill="rgb(0,0,0)"/><path d=" M 493.783 1222.45 L 493.783 1224.374 L 495.885 1224.374 C 497.424 1224.374 497.957 1224.286 497.868 1223.989 C 497.78 1223.782 497.099 1223.605 496.211 1223.545 C 494.671 1223.457 494.671 1223.457 494.671 1222.45 C 494.671 1221.443 494.671 1221.443 496.211 1221.355 C 497.099 1221.295 497.78 1221.118 497.868 1220.881 C 497.957 1220.614 497.424 1220.526 495.885 1220.526 L 493.783 1220.526 L 493.783 1222.45 Z " fill="rgb(0,0,0)"/><path d=" M 498.224 1222.45 C 498.224 1223.96 498.312 1224.374 498.668 1224.374 C 498.934 1224.374 499.112 1224.108 499.112 1223.634 C 499.112 1223.042 499.26 1222.894 499.822 1222.894 C 500.207 1222.894 500.74 1223.22 501.066 1223.634 C 501.362 1224.049 501.776 1224.374 501.984 1224.374 C 502.576 1224.374 502.428 1223.901 501.628 1223.309 C 501.214 1223.012 500.888 1222.598 500.888 1222.391 C 500.888 1222.154 500.503 1222.006 500 1222.006 C 499.26 1222.006 499.112 1221.887 499.112 1221.266 C 499.112 1220.792 498.934 1220.526 498.668 1220.526 C 498.312 1220.526 498.224 1220.94 498.224 1222.45 Z " fill="rgb(0,0,0)"/><path d=" M 501.095 1221.118 C 500.385 1221.828 500.977 1222.184 501.776 1221.503 C 502.102 1221.207 502.368 1220.881 502.368 1220.762 C 502.368 1220.348 501.658 1220.555 501.095 1221.118 Z " fill="rgb(0,0,0)"/><path d=" M 502.961 1222.45 L 502.961 1224.374 L 504.885 1224.374 C 506.395 1224.374 506.809 1224.286 506.809 1223.93 C 506.809 1223.605 506.454 1223.486 505.329 1223.486 C 504.53 1223.486 503.849 1223.338 503.849 1223.19 C 503.849 1223.012 504.174 1222.894 504.589 1222.894 C 505.062 1222.894 505.329 1222.716 505.329 1222.45 C 505.329 1222.184 505.062 1222.006 504.618 1222.006 C 504.204 1222.006 503.789 1221.858 503.701 1221.71 C 503.582 1221.532 504.145 1221.414 505.151 1221.414 C 506.424 1221.414 506.809 1221.325 506.809 1220.97 C 506.809 1220.614 506.395 1220.526 504.885 1220.526 L 502.961 1220.526 L 502.961 1222.45 Z " fill="rgb(0,0,0)"/><path d=" M 507.401 1222.45 C 507.401 1223.96 507.49 1224.374 507.845 1224.374 C 508.112 1224.374 508.289 1224.108 508.289 1223.634 C 508.289 1223.072 508.437 1222.894 508.97 1222.894 C 509.326 1222.894 509.888 1223.22 510.184 1223.634 C 510.48 1224.049 510.865 1224.374 510.984 1224.374 C 511.398 1224.374 511.309 1223.545 510.895 1223.368 C 510.599 1223.22 510.599 1223.161 510.895 1223.012 C 511.072 1222.924 511.25 1222.332 511.25 1221.68 L 511.25 1220.526 L 509.326 1220.526 L 507.401 1220.526 L 507.401 1222.45 Z  M 510.362 1221.71 C 510.362 1221.858 509.888 1222.006 509.326 1222.006 C 508.763 1222.006 508.289 1221.858 508.289 1221.71 C 508.289 1221.532 508.763 1221.414 509.326 1221.414 C 509.888 1221.414 510.362 1221.532 510.362 1221.71 Z " fill="rgb(0,0,0)"/><path d=" M 484.901 1228.223 C 484.901 1229.999 485.02 1231.184 485.197 1231.184 C 485.375 1231.184 485.582 1231.184 485.73 1231.184 C 485.849 1231.184 485.997 1230.147 486.086 1228.904 L 486.234 1226.595 L 487.951 1226.506 L 489.638 1226.417 L 489.638 1228.815 C 489.638 1230.976 489.697 1231.184 490.23 1231.184 C 490.793 1231.184 490.822 1230.976 490.822 1228.223 L 490.822 1225.262 L 487.862 1225.262 L 484.901 1225.262 L 484.901 1228.223 Z " fill="rgb(0,0,0)"/><path d=" M 491.711 1228.223 L 491.711 1231.184 L 494.671 1231.184 L 497.632 1231.184 L 497.632 1228.223 L 497.632 1225.262 L 494.671 1225.262 L 491.711 1225.262 L 491.711 1228.223 Z  M 496.447 1228.223 L 496.447 1229.999 L 494.671 1229.999 L 492.895 1229.999 L 492.895 1228.43 C 492.895 1227.542 492.984 1226.743 493.102 1226.654 C 493.191 1226.536 493.99 1226.447 494.878 1226.447 L 496.447 1226.447 L 496.447 1228.223 Z " fill="rgb(0,0,0)"/><path d=" M 498.52 1228.223 L 498.52 1231.184 L 501.48 1231.184 L 504.441 1231.184 L 504.441 1228.223 L 504.441 1225.262 L 501.48 1225.262 L 498.52 1225.262 L 498.52 1228.223 Z  M 503.257 1228.223 L 503.257 1229.999 L 501.48 1229.999 L 499.704 1229.999 L 499.704 1228.43 C 499.704 1227.542 499.793 1226.743 499.911 1226.654 C 500 1226.536 500.799 1226.447 501.687 1226.447 L 503.257 1226.447 L 503.257 1228.223 Z " fill="rgb(0,0,0)"/><path d=" M 505.329 1228.193 C 505.329 1229.822 505.447 1231.213 505.566 1231.302 C 506.158 1231.657 506.484 1230.858 506.572 1228.815 L 506.661 1226.595 L 508.378 1226.506 L 510.066 1226.417 L 510.066 1228.815 C 510.066 1230.976 510.125 1231.184 510.658 1231.184 C 511.22 1231.184 511.25 1230.976 511.25 1228.223 L 511.25 1225.262 L 508.289 1225.262 L 505.329 1225.262 L 505.329 1228.193 Z " fill="rgb(0,0,0)"/></g><g><path d=" M 485.049 1168.972 C 484.961 1169.179 484.872 1171.755 484.842 1174.685 L 484.753 1180.014 L 482.918 1180.103 L 481.053 1180.192 L 481.053 1183.863 L 481.053 1187.564 L 479.276 1187.564 L 477.5 1187.564 L 477.5 1193.189 L 477.5 1198.814 L 479.276 1198.814 L 481.023 1198.814 L 481.112 1202.574 L 481.201 1206.363 L 483.066 1206.452 L 484.901 1206.541 L 484.901 1212.136 L 484.901 1217.761 L 498.076 1217.761 L 511.25 1217.761 L 511.25 1212.136 L 511.25 1206.511 L 513.174 1206.511 L 515.099 1206.511 L 515.099 1202.662 L 515.099 1198.814 L 517.023 1198.814 L 518.947 1198.814 L 518.947 1197.037 L 518.947 1195.261 L 520.724 1195.261 L 522.5 1195.261 L 522.5 1193.337 L 522.5 1191.412 L 520.724 1191.412 L 518.947 1191.412 L 518.947 1189.488 L 518.947 1187.564 L 517.023 1187.564 L 515.099 1187.564 L 515.099 1183.863 L 515.099 1180.162 L 513.648 1180.162 C 512.849 1180.162 511.99 1180.074 511.724 1179.985 C 511.309 1179.837 511.25 1180.281 511.25 1183.685 L 511.25 1187.564 L 513.174 1187.564 L 515.099 1187.564 L 515.099 1193.189 L 515.099 1198.784 L 513.263 1198.873 L 511.398 1198.962 L 511.309 1202.722 L 511.22 1206.511 L 507.549 1206.511 L 503.878 1206.511 L 503.789 1208.347 L 503.701 1210.212 L 498.668 1210.301 C 492.007 1210.419 492.214 1210.478 492.362 1208.287 L 492.451 1206.511 L 488.691 1206.511 L 484.901 1206.511 L 484.901 1202.662 L 484.901 1198.814 L 482.977 1198.814 L 481.053 1198.814 L 481.053 1193.189 L 481.053 1187.564 L 482.977 1187.564 L 484.901 1187.564 L 484.901 1183.774 L 484.901 1179.955 L 488.602 1180.103 L 492.303 1180.251 L 492.303 1178.268 L 492.303 1176.314 L 494.316 1176.314 L 496.299 1176.314 L 496.211 1185.639 L 496.122 1194.965 L 498.076 1194.965 L 500 1194.965 L 500 1185.639 L 500 1176.314 L 501.924 1176.314 L 503.849 1176.314 L 503.849 1178.179 L 503.849 1180.044 L 507.49 1180.014 L 511.102 1180.014 L 511.191 1174.301 L 511.25 1168.616 L 498.224 1168.616 C 488.069 1168.616 485.138 1168.705 485.049 1168.972 Z " fill="rgb(0,0,0)"/><path d=" M 484.901 1220.278 C 484.901 1221.787 484.99 1222.202 485.345 1222.202 C 485.612 1222.202 485.789 1221.935 485.789 1221.462 C 485.789 1220.781 485.908 1220.722 486.974 1220.722 C 488.039 1220.722 488.158 1220.781 488.158 1221.462 C 488.158 1221.876 488.306 1222.202 488.454 1222.202 C 488.632 1222.202 488.75 1221.373 488.75 1220.278 C 488.75 1219.182 488.632 1218.353 488.454 1218.353 C 488.306 1218.353 488.158 1218.679 488.158 1219.093 C 488.158 1219.745 488.039 1219.833 486.974 1219.833 C 485.908 1219.833 485.789 1219.745 485.789 1219.093 C 485.789 1218.62 485.612 1218.353 485.345 1218.353 C 484.99 1218.353 484.901 1218.768 484.901 1220.278 Z " fill="rgb(0,0,0)"/><path d=" M 489.342 1220.278 C 489.342 1221.787 489.431 1222.202 489.786 1222.202 C 490.053 1222.202 490.23 1221.935 490.23 1221.462 C 490.23 1220.781 490.349 1220.722 491.414 1220.722 C 492.48 1220.722 492.599 1220.781 492.599 1221.491 C 492.599 1221.965 492.747 1222.202 492.984 1222.143 C 493.191 1222.054 493.368 1221.314 493.428 1220.189 L 493.516 1218.353 L 491.414 1218.353 L 489.342 1218.353 L 489.342 1220.278 Z  M 492.599 1219.567 C 492.599 1219.715 492.066 1219.833 491.414 1219.833 C 489.993 1219.833 489.816 1219.33 491.207 1219.182 C 492.273 1219.064 492.599 1219.153 492.599 1219.567 Z " fill="rgb(0,0,0)"/><path d=" M 493.783 1220.278 L 493.783 1222.202 L 495.885 1222.202 C 497.424 1222.202 497.957 1222.113 497.868 1221.817 C 497.78 1221.61 497.099 1221.432 496.211 1221.373 C 494.671 1221.284 494.671 1221.284 494.671 1220.278 C 494.671 1219.271 494.671 1219.271 496.211 1219.182 C 497.099 1219.123 497.78 1218.945 497.868 1218.708 C 497.957 1218.442 497.424 1218.353 495.885 1218.353 L 493.783 1218.353 L 493.783 1220.278 Z " fill="rgb(0,0,0)"/><path d=" M 498.224 1220.278 C 498.224 1221.787 498.313 1222.202 498.668 1222.202 C 498.934 1222.202 499.112 1221.935 499.112 1221.462 C 499.112 1220.87 499.26 1220.722 499.822 1220.722 C 500.207 1220.722 500.74 1221.047 501.066 1221.462 C 501.362 1221.876 501.776 1222.202 501.984 1222.202 C 502.576 1222.202 502.428 1221.728 501.628 1221.136 C 501.214 1220.84 500.888 1220.426 500.888 1220.218 C 500.888 1219.982 500.503 1219.833 500 1219.833 C 499.26 1219.833 499.112 1219.715 499.112 1219.093 C 499.112 1218.62 498.934 1218.353 498.668 1218.353 C 498.313 1218.353 498.224 1218.768 498.224 1220.278 Z " fill="rgb(0,0,0)"/><path d=" M 501.095 1218.945 C 500.385 1219.656 500.977 1220.011 501.776 1219.33 C 502.102 1219.034 502.368 1218.708 502.368 1218.59 C 502.368 1218.176 501.658 1218.383 501.095 1218.945 Z " fill="rgb(0,0,0)"/><path d=" M 502.961 1220.278 L 502.961 1222.202 L 504.885 1222.202 C 506.395 1222.202 506.809 1222.113 506.809 1221.758 C 506.809 1221.432 506.454 1221.314 505.329 1221.314 C 504.53 1221.314 503.849 1221.166 503.849 1221.018 C 503.849 1220.84 504.174 1220.722 504.589 1220.722 C 505.063 1220.722 505.329 1220.544 505.329 1220.278 C 505.329 1220.011 505.063 1219.833 504.618 1219.833 C 504.204 1219.833 503.789 1219.685 503.701 1219.537 C 503.582 1219.36 504.145 1219.241 505.151 1219.241 C 506.424 1219.241 506.809 1219.153 506.809 1218.797 C 506.809 1218.442 506.395 1218.353 504.885 1218.353 L 502.961 1218.353 L 502.961 1220.278 Z " fill="rgb(0,0,0)"/><path d=" M 507.401 1220.278 C 507.401 1221.787 507.49 1222.202 507.845 1222.202 C 508.112 1222.202 508.289 1221.935 508.289 1221.462 C 508.289 1220.899 508.438 1220.722 508.97 1220.722 C 509.326 1220.722 509.888 1221.047 510.184 1221.462 C 510.48 1221.876 510.865 1222.202 510.984 1222.202 C 511.398 1222.202 511.309 1221.373 510.895 1221.195 C 510.599 1221.047 510.599 1220.988 510.895 1220.84 C 511.072 1220.751 511.25 1220.159 511.25 1219.508 L 511.25 1218.353 L 509.326 1218.353 L 507.401 1218.353 L 507.401 1220.278 Z  M 510.362 1219.537 C 510.362 1219.685 509.888 1219.833 509.326 1219.833 C 508.763 1219.833 508.289 1219.685 508.289 1219.537 C 508.289 1219.36 508.763 1219.241 509.326 1219.241 C 509.888 1219.241 510.362 1219.36 510.362 1219.537 Z " fill="rgb(0,0,0)"/><path d=" M 484.901 1226.051 C 484.901 1227.827 485.02 1229.011 485.197 1229.011 C 485.375 1229.011 485.582 1229.011 485.73 1229.011 C 485.849 1229.011 485.997 1227.975 486.086 1226.732 L 486.234 1224.422 L 487.951 1224.333 L 489.638 1224.245 L 489.638 1226.643 C 489.638 1228.804 489.697 1229.011 490.23 1229.011 C 490.793 1229.011 490.822 1228.804 490.822 1226.051 L 490.822 1223.09 L 487.862 1223.09 L 484.901 1223.09 L 484.901 1226.051 Z " fill="rgb(0,0,0)"/><path d=" M 491.711 1226.051 L 491.711 1229.011 L 494.671 1229.011 L 497.632 1229.011 L 497.632 1226.051 L 497.632 1223.09 L 494.671 1223.09 L 491.711 1223.09 L 491.711 1226.051 Z  M 496.447 1226.051 L 496.447 1227.827 L 494.671 1227.827 L 492.895 1227.827 L 492.895 1226.258 C 492.895 1225.37 492.984 1224.57 493.102 1224.482 C 493.191 1224.363 493.99 1224.274 494.878 1224.274 L 496.447 1224.274 L 496.447 1226.051 Z " fill="rgb(0,0,0)"/><path d=" M 498.52 1226.051 L 498.52 1229.011 L 501.48 1229.011 L 504.441 1229.011 L 504.441 1226.051 L 504.441 1223.09 L 501.48 1223.09 L 498.52 1223.09 L 498.52 1226.051 Z  M 503.257 1226.051 L 503.257 1227.827 L 501.48 1227.827 L 499.704 1227.827 L 499.704 1226.258 C 499.704 1225.37 499.793 1224.57 499.911 1224.482 C 500 1224.363 500.799 1224.274 501.688 1224.274 L 503.257 1224.274 L 503.257 1226.051 Z " fill="rgb(0,0,0)"/><path d=" M 505.329 1226.021 C 505.329 1227.649 505.447 1229.041 505.566 1229.13 C 506.158 1229.485 506.484 1228.685 506.572 1226.643 L 506.661 1224.422 L 508.378 1224.333 L 510.066 1224.245 L 510.066 1226.643 C 510.066 1228.804 510.125 1229.011 510.658 1229.011 C 511.22 1229.011 511.25 1228.804 511.25 1226.051 L 511.25 1223.09 L 508.289 1223.09 L 505.329 1223.09 L 505.329 1226.021 Z " fill="rgb(0,0,0)"/></g></g><defs><filter id="4rPcb8yHEpLxsVFjaM3n3V93OwYz5H7x" x="-200%" y="-200%" width="400%" height="400%" filterUnits="objectBoundingBox" color-interpolation-filters="sRGB"><feOffset xmlns="http://www.w3.org/2000/svg" in="SourceGraphic" dx="0" dy="0"/><feGaussianBlur xmlns="http://www.w3.org/2000/svg" stdDeviation="2.146804531419514" result="pf_100_offsetBlur"/><feComposite xmlns="http://www.w3.org/2000/svg" in="SourceGraphic" in2="pf_100_offsetBlur" result="pf_100_inverse" operator="out"/><feFlood xmlns="http://www.w3.org/2000/svg" flood-color="#000000" flood-opacity="0.5" result="pf_100_color"/><feComposite xmlns="http://www.w3.org/2000/svg" in="pf_100_color" in2="pf_100_inverse" operator="in" result="pf_100_shadow"/><feComposite xmlns="http://www.w3.org/2000/svg" in="pf_100_shadow" in2="SourceGraphic" operator="over"/></filter></defs></svg>