<?xml version="1.0" encoding="UTF-8" standalone="no"?><!-- Generator: Gravit.io --><svg xmlns="http://www.w3.org/2000/svg" xmlns:xlink="http://www.w3.org/1999/xlink" style="isolation:isolate" viewBox="455 1155 90 90" width="90pt" height="90pt"><g filter="url(#tG71aISQnoRObiKPo9DDsXFVlwNwKGv5)"><rect x="460" y="1160" width="80" height="10" transform="matrix(1,0,0,1,0,0)" fill="rgb(0,0,0)"/><g opacity="0.24"><rect x="470" y="1170" width="60" height="10" transform="matrix(1,0,0,1,0,0)" fill="rgb(0,0,0)"/></g><rect x="460" y="1170" width="10" height="70" transform="matrix(1,0,0,1,0,0)" fill="rgb(0,0,0)"/><rect x="470" y="1230" width="70" height="10" transform="matrix(1,0,0,1,0,0)" fill="rgb(0,0,0)"/><rect x="530" y="1170" width="10" height="60" transform="matrix(1,0,0,1,0,0)" fill="rgb(0,0,0)"/><g style="opacity:0.27;"><path d=" M 489.368 1180.253 C 489.305 1180.4 489.242 1182.232 489.221 1184.316 L 489.158 1188.105 L 487.853 1188.168 L 486.526 1188.232 L 486.526 1190.842 L 486.526 1193.474 L 485.263 1193.474 L 484 1193.474 L 484 1197.474 L 484 1201.474 L 485.263 1201.474 L 486.505 1201.474 L 486.568 1204.147 L 486.632 1206.842 L 487.958 1206.905 L 489.263 1206.968 L 489.263 1210.947 L 489.263 1214.947 L 498.632 1214.947 L 508 1214.947 L 508 1210.947 L 508 1206.947 L 509.368 1206.947 L 510.737 1206.947 L 510.737 1204.211 L 510.737 1201.474 L 512.105 1201.474 L 513.474 1201.474 L 513.474 1200.211 L 513.474 1198.947 L 514.737 1198.947 L 516 1198.947 L 516 1197.579 L 516 1196.211 L 514.737 1196.211 L 513.474 1196.211 L 513.474 1194.842 L 513.474 1193.474 L 512.105 1193.474 L 510.737 1193.474 L 510.737 1190.842 L 510.737 1188.211 L 509.705 1188.211 C 509.137 1188.211 508.526 1188.147 508.337 1188.084 C 508.042 1187.979 508 1188.295 508 1190.716 L 508 1193.474 L 509.368 1193.474 L 510.737 1193.474 L 510.737 1197.474 L 510.737 1201.453 L 509.432 1201.516 L 508.105 1201.579 L 508.042 1204.253 L 507.979 1206.947 L 505.368 1206.947 L 502.758 1206.947 L 502.695 1208.253 L 502.632 1209.579 L 499.053 1209.642 C 494.316 1209.726 494.463 1209.768 494.568 1208.211 L 494.632 1206.947 L 491.958 1206.947 L 489.263 1206.947 L 489.263 1204.211 L 489.263 1201.474 L 487.895 1201.474 L 486.526 1201.474 L 486.526 1197.474 L 486.526 1193.474 L 487.895 1193.474 L 489.263 1193.474 L 489.263 1190.779 L 489.263 1188.063 L 491.895 1188.168 L 494.526 1188.274 L 494.526 1186.863 L 494.526 1185.474 L 495.958 1185.474 L 497.368 1185.474 L 497.305 1192.105 L 497.242 1198.737 L 498.632 1198.737 L 500 1198.737 L 500 1192.105 L 500 1185.474 L 501.368 1185.474 L 502.737 1185.474 L 502.737 1186.8 L 502.737 1188.126 L 505.326 1188.105 L 507.895 1188.105 L 507.958 1184.042 L 508 1180 L 498.737 1180 C 491.516 1180 489.432 1180.063 489.368 1180.253 Z " fill="rgb(0,0,0)"/><path d=" M 489.263 1216.737 C 489.263 1217.811 489.326 1218.105 489.579 1218.105 C 489.768 1218.105 489.895 1217.916 489.895 1217.579 C 489.895 1217.095 489.979 1217.053 490.737 1217.053 C 491.495 1217.053 491.579 1217.095 491.579 1217.579 C 491.579 1217.874 491.684 1218.105 491.789 1218.105 C 491.916 1218.105 492 1217.516 492 1216.737 C 492 1215.958 491.916 1215.368 491.789 1215.368 C 491.684 1215.368 491.579 1215.6 491.579 1215.895 C 491.579 1216.358 491.495 1216.421 490.737 1216.421 C 489.979 1216.421 489.895 1216.358 489.895 1215.895 C 489.895 1215.558 489.768 1215.368 489.579 1215.368 C 489.326 1215.368 489.263 1215.663 489.263 1216.737 Z " fill="rgb(0,0,0)"/><path d=" M 492.421 1216.737 C 492.421 1217.811 492.484 1218.105 492.737 1218.105 C 492.926 1218.105 493.053 1217.916 493.053 1217.579 C 493.053 1217.095 493.137 1217.053 493.895 1217.053 C 494.653 1217.053 494.737 1217.095 494.737 1217.6 C 494.737 1217.937 494.842 1218.105 495.011 1218.063 C 495.158 1218 495.284 1217.474 495.326 1216.674 L 495.389 1215.368 L 493.895 1215.368 L 492.421 1215.368 L 492.421 1216.737 Z  M 494.737 1216.232 C 494.737 1216.337 494.358 1216.421 493.895 1216.421 C 492.884 1216.421 492.758 1216.063 493.747 1215.958 C 494.505 1215.874 494.737 1215.937 494.737 1216.232 Z " fill="rgb(0,0,0)"/><path d=" M 495.579 1216.737 L 495.579 1218.105 L 497.074 1218.105 C 498.168 1218.105 498.547 1218.042 498.484 1217.832 C 498.421 1217.684 497.937 1217.558 497.305 1217.516 C 496.211 1217.453 496.211 1217.453 496.211 1216.737 C 496.211 1216.021 496.211 1216.021 497.305 1215.958 C 497.937 1215.916 498.421 1215.789 498.484 1215.621 C 498.547 1215.432 498.168 1215.368 497.074 1215.368 L 495.579 1215.368 L 495.579 1216.737 Z " fill="rgb(0,0,0)"/><path d=" M 498.737 1216.737 C 498.737 1217.811 498.8 1218.105 499.053 1218.105 C 499.242 1218.105 499.368 1217.916 499.368 1217.579 C 499.368 1217.158 499.474 1217.053 499.874 1217.053 C 500.147 1217.053 500.526 1217.284 500.758 1217.579 C 500.968 1217.874 501.263 1218.105 501.411 1218.105 C 501.832 1218.105 501.726 1217.768 501.158 1217.347 C 500.863 1217.137 500.632 1216.842 500.632 1216.695 C 500.632 1216.526 500.358 1216.421 500 1216.421 C 499.474 1216.421 499.368 1216.337 499.368 1215.895 C 499.368 1215.558 499.242 1215.368 499.053 1215.368 C 498.8 1215.368 498.737 1215.663 498.737 1216.737 Z " fill="rgb(0,0,0)"/><path d=" M 500.779 1215.789 C 500.274 1216.295 500.695 1216.547 501.263 1216.063 C 501.495 1215.853 501.684 1215.621 501.684 1215.537 C 501.684 1215.242 501.179 1215.389 500.779 1215.789 Z " fill="rgb(0,0,0)"/><path d=" M 502.105 1216.737 L 502.105 1218.105 L 503.474 1218.105 C 504.547 1218.105 504.842 1218.042 504.842 1217.789 C 504.842 1217.558 504.589 1217.474 503.789 1217.474 C 503.221 1217.474 502.737 1217.368 502.737 1217.263 C 502.737 1217.137 502.968 1217.053 503.263 1217.053 C 503.6 1217.053 503.789 1216.926 503.789 1216.737 C 503.789 1216.547 503.6 1216.421 503.284 1216.421 C 502.989 1216.421 502.695 1216.316 502.632 1216.211 C 502.547 1216.084 502.947 1216 503.663 1216 C 504.568 1216 504.842 1215.937 504.842 1215.684 C 504.842 1215.432 504.547 1215.368 503.474 1215.368 L 502.105 1215.368 L 502.105 1216.737 Z " fill="rgb(0,0,0)"/><path d=" M 505.263 1216.737 C 505.263 1217.811 505.326 1218.105 505.579 1218.105 C 505.768 1218.105 505.895 1217.916 505.895 1217.579 C 505.895 1217.179 506 1217.053 506.379 1217.053 C 506.632 1217.053 507.032 1217.284 507.242 1217.579 C 507.453 1217.874 507.726 1218.105 507.811 1218.105 C 508.105 1218.105 508.042 1217.516 507.747 1217.389 C 507.537 1217.284 507.537 1217.242 507.747 1217.137 C 507.874 1217.074 508 1216.653 508 1216.189 L 508 1215.368 L 506.632 1215.368 L 505.263 1215.368 L 505.263 1216.737 Z  M 507.368 1216.211 C 507.368 1216.316 507.032 1216.421 506.632 1216.421 C 506.232 1216.421 505.895 1216.316 505.895 1216.211 C 505.895 1216.084 506.232 1216 506.632 1216 C 507.032 1216 507.368 1216.084 507.368 1216.211 Z " fill="rgb(0,0,0)"/><path d=" M 489.263 1220.842 C 489.263 1222.105 489.347 1222.947 489.474 1222.947 C 489.6 1222.947 489.747 1222.947 489.853 1222.947 C 489.937 1222.947 490.042 1222.211 490.105 1221.326 L 490.211 1219.684 L 491.432 1219.621 L 492.632 1219.558 L 492.632 1221.263 C 492.632 1222.8 492.674 1222.947 493.053 1222.947 C 493.453 1222.947 493.474 1222.8 493.474 1220.842 L 493.474 1218.737 L 491.368 1218.737 L 489.263 1218.737 L 489.263 1220.842 Z " fill="rgb(0,0,0)"/><path d=" M 494.105 1220.842 L 494.105 1222.947 L 496.211 1222.947 L 498.316 1222.947 L 498.316 1220.842 L 498.316 1218.737 L 496.211 1218.737 L 494.105 1218.737 L 494.105 1220.842 Z  M 497.474 1220.842 L 497.474 1222.105 L 496.211 1222.105 L 494.947 1222.105 L 494.947 1220.989 C 494.947 1220.358 495.011 1219.789 495.095 1219.726 C 495.158 1219.642 495.726 1219.579 496.358 1219.579 L 497.474 1219.579 L 497.474 1220.842 Z " fill="rgb(0,0,0)"/><path d=" M 498.947 1220.842 L 498.947 1222.947 L 501.053 1222.947 L 503.158 1222.947 L 503.158 1220.842 L 503.158 1218.737 L 501.053 1218.737 L 498.947 1218.737 L 498.947 1220.842 Z  M 502.316 1220.842 L 502.316 1222.105 L 501.053 1222.105 L 499.789 1222.105 L 499.789 1220.989 C 499.789 1220.358 499.853 1219.789 499.937 1219.726 C 500 1219.642 500.568 1219.579 501.2 1219.579 L 502.316 1219.579 L 502.316 1220.842 Z " fill="rgb(0,0,0)"/><path d=" M 503.789 1220.821 C 503.789 1221.979 503.874 1222.968 503.958 1223.032 C 504.379 1223.284 504.611 1222.716 504.674 1221.263 L 504.737 1219.684 L 505.958 1219.621 L 507.158 1219.558 L 507.158 1221.263 C 507.158 1222.8 507.2 1222.947 507.579 1222.947 C 507.979 1222.947 508 1222.8 508 1220.842 L 508 1218.737 L 505.895 1218.737 L 503.789 1218.737 L 503.789 1220.821 Z " fill="rgb(0,0,0)"/></g><g><path d=" M 489.368 1178.708 C 489.305 1178.855 489.242 1180.687 489.221 1182.771 L 489.158 1186.56 L 487.853 1186.624 L 486.526 1186.687 L 486.526 1189.297 L 486.526 1191.929 L 485.263 1191.929 L 484 1191.929 L 484 1195.929 L 484 1199.929 L 485.263 1199.929 L 486.505 1199.929 L 486.568 1202.603 L 486.632 1205.297 L 487.958 1205.36 L 489.263 1205.424 L 489.263 1209.403 L 489.263 1213.403 L 498.632 1213.403 L 508 1213.403 L 508 1209.403 L 508 1205.403 L 509.368 1205.403 L 510.737 1205.403 L 510.737 1202.666 L 510.737 1199.929 L 512.105 1199.929 L 513.474 1199.929 L 513.474 1198.666 L 513.474 1197.403 L 514.737 1197.403 L 516 1197.403 L 516 1196.034 L 516 1194.666 L 514.737 1194.666 L 513.474 1194.666 L 513.474 1193.297 L 513.474 1191.929 L 512.105 1191.929 L 510.737 1191.929 L 510.737 1189.297 L 510.737 1186.666 L 509.705 1186.666 C 509.137 1186.666 508.526 1186.603 508.337 1186.539 C 508.042 1186.434 508 1186.75 508 1189.171 L 508 1191.929 L 509.368 1191.929 L 510.737 1191.929 L 510.737 1195.929 L 510.737 1199.908 L 509.432 1199.971 L 508.105 1200.034 L 508.042 1202.708 L 507.979 1205.403 L 505.368 1205.403 L 502.758 1205.403 L 502.695 1206.708 L 502.632 1208.034 L 499.053 1208.097 C 494.316 1208.181 494.463 1208.224 494.568 1206.666 L 494.632 1205.403 L 491.958 1205.403 L 489.263 1205.403 L 489.263 1202.666 L 489.263 1199.929 L 487.895 1199.929 L 486.526 1199.929 L 486.526 1195.929 L 486.526 1191.929 L 487.895 1191.929 L 489.263 1191.929 L 489.263 1189.234 L 489.263 1186.518 L 491.895 1186.624 L 494.526 1186.729 L 494.526 1185.318 L 494.526 1183.929 L 495.958 1183.929 L 497.368 1183.929 L 497.305 1190.56 L 497.242 1197.192 L 498.632 1197.192 L 500 1197.192 L 500 1190.56 L 500 1183.929 L 501.368 1183.929 L 502.737 1183.929 L 502.737 1185.255 L 502.737 1186.581 L 505.326 1186.56 L 507.895 1186.56 L 507.958 1182.497 L 508 1178.455 L 498.737 1178.455 C 491.516 1178.455 489.432 1178.518 489.368 1178.708 Z " fill="rgb(0,0,0)"/><path d=" M 489.263 1215.192 C 489.263 1216.266 489.326 1216.56 489.579 1216.56 C 489.768 1216.56 489.895 1216.371 489.895 1216.034 C 489.895 1215.55 489.979 1215.508 490.737 1215.508 C 491.495 1215.508 491.579 1215.55 491.579 1216.034 C 491.579 1216.329 491.684 1216.56 491.789 1216.56 C 491.916 1216.56 492 1215.971 492 1215.192 C 492 1214.413 491.916 1213.824 491.789 1213.824 C 491.684 1213.824 491.579 1214.055 491.579 1214.35 C 491.579 1214.813 491.495 1214.876 490.737 1214.876 C 489.979 1214.876 489.895 1214.813 489.895 1214.35 C 489.895 1214.013 489.768 1213.824 489.579 1213.824 C 489.326 1213.824 489.263 1214.118 489.263 1215.192 Z " fill="rgb(0,0,0)"/><path d=" M 492.421 1215.192 C 492.421 1216.266 492.484 1216.56 492.737 1216.56 C 492.926 1216.56 493.053 1216.371 493.053 1216.034 C 493.053 1215.55 493.137 1215.508 493.895 1215.508 C 494.653 1215.508 494.737 1215.55 494.737 1216.055 C 494.737 1216.392 494.842 1216.56 495.011 1216.518 C 495.158 1216.455 495.284 1215.929 495.326 1215.129 L 495.389 1213.824 L 493.895 1213.824 L 492.421 1213.824 L 492.421 1215.192 Z  M 494.737 1214.687 C 494.737 1214.792 494.358 1214.876 493.895 1214.876 C 492.884 1214.876 492.758 1214.518 493.747 1214.413 C 494.505 1214.329 494.737 1214.392 494.737 1214.687 Z " fill="rgb(0,0,0)"/><path d=" M 495.579 1215.192 L 495.579 1216.56 L 497.074 1216.56 C 498.168 1216.56 498.547 1216.497 498.484 1216.287 C 498.421 1216.139 497.937 1216.013 497.305 1215.971 C 496.211 1215.908 496.211 1215.908 496.211 1215.192 C 496.211 1214.476 496.211 1214.476 497.305 1214.413 C 497.937 1214.371 498.421 1214.245 498.484 1214.076 C 498.547 1213.887 498.168 1213.824 497.074 1213.824 L 495.579 1213.824 L 495.579 1215.192 Z " fill="rgb(0,0,0)"/><path d=" M 498.737 1215.192 C 498.737 1216.266 498.8 1216.56 499.053 1216.56 C 499.242 1216.56 499.368 1216.371 499.368 1216.034 C 499.368 1215.613 499.474 1215.508 499.874 1215.508 C 500.147 1215.508 500.526 1215.739 500.758 1216.034 C 500.968 1216.329 501.263 1216.56 501.411 1216.56 C 501.832 1216.56 501.726 1216.224 501.158 1215.803 C 500.863 1215.592 500.632 1215.297 500.632 1215.15 C 500.632 1214.981 500.358 1214.876 500 1214.876 C 499.474 1214.876 499.368 1214.792 499.368 1214.35 C 499.368 1214.013 499.242 1213.824 499.053 1213.824 C 498.8 1213.824 498.737 1214.118 498.737 1215.192 Z " fill="rgb(0,0,0)"/><path d=" M 500.779 1214.245 C 500.274 1214.75 500.695 1215.003 501.263 1214.518 C 501.495 1214.308 501.684 1214.076 501.684 1213.992 C 501.684 1213.697 501.179 1213.845 500.779 1214.245 Z " fill="rgb(0,0,0)"/><path d=" M 502.105 1215.192 L 502.105 1216.56 L 503.474 1216.56 C 504.547 1216.56 504.842 1216.497 504.842 1216.245 C 504.842 1216.013 504.589 1215.929 503.789 1215.929 C 503.221 1215.929 502.737 1215.824 502.737 1215.718 C 502.737 1215.592 502.968 1215.508 503.263 1215.508 C 503.6 1215.508 503.789 1215.381 503.789 1215.192 C 503.789 1215.003 503.6 1214.876 503.284 1214.876 C 502.989 1214.876 502.695 1214.771 502.632 1214.666 C 502.547 1214.539 502.947 1214.455 503.663 1214.455 C 504.568 1214.455 504.842 1214.392 504.842 1214.139 C 504.842 1213.887 504.547 1213.824 503.474 1213.824 L 502.105 1213.824 L 502.105 1215.192 Z " fill="rgb(0,0,0)"/><path d=" M 505.263 1215.192 C 505.263 1216.266 505.326 1216.56 505.579 1216.56 C 505.768 1216.56 505.895 1216.371 505.895 1216.034 C 505.895 1215.634 506 1215.508 506.379 1215.508 C 506.632 1215.508 507.032 1215.739 507.242 1216.034 C 507.453 1216.329 507.726 1216.56 507.811 1216.56 C 508.105 1216.56 508.042 1215.971 507.747 1215.845 C 507.537 1215.739 507.537 1215.697 507.747 1215.592 C 507.874 1215.529 508 1215.108 508 1214.645 L 508 1213.824 L 506.632 1213.824 L 505.263 1213.824 L 505.263 1215.192 Z  M 507.368 1214.666 C 507.368 1214.771 507.032 1214.876 506.632 1214.876 C 506.232 1214.876 505.895 1214.771 505.895 1214.666 C 505.895 1214.539 506.232 1214.455 506.632 1214.455 C 507.032 1214.455 507.368 1214.539 507.368 1214.666 Z " fill="rgb(0,0,0)"/><path d=" M 489.263 1219.297 C 489.263 1220.56 489.347 1221.403 489.474 1221.403 C 489.6 1221.403 489.747 1221.403 489.853 1221.403 C 489.937 1221.403 490.042 1220.666 490.105 1219.781 L 490.211 1218.139 L 491.432 1218.076 L 492.632 1218.013 L 492.632 1219.718 C 492.632 1221.255 492.674 1221.403 493.053 1221.403 C 493.453 1221.403 493.474 1221.255 493.474 1219.297 L 493.474 1217.192 L 491.368 1217.192 L 489.263 1217.192 L 489.263 1219.297 Z " fill="rgb(0,0,0)"/><path d=" M 494.105 1219.297 L 494.105 1221.403 L 496.211 1221.403 L 498.316 1221.403 L 498.316 1219.297 L 498.316 1217.192 L 496.211 1217.192 L 494.105 1217.192 L 494.105 1219.297 Z  M 497.474 1219.297 L 497.474 1220.56 L 496.211 1220.56 L 494.947 1220.56 L 494.947 1219.445 C 494.947 1218.813 495.011 1218.245 495.095 1218.181 C 495.158 1218.097 495.726 1218.034 496.358 1218.034 L 497.474 1218.034 L 497.474 1219.297 Z " fill="rgb(0,0,0)"/><path d=" M 498.947 1219.297 L 498.947 1221.403 L 501.053 1221.403 L 503.158 1221.403 L 503.158 1219.297 L 503.158 1217.192 L 501.053 1217.192 L 498.947 1217.192 L 498.947 1219.297 Z  M 502.316 1219.297 L 502.316 1220.56 L 501.053 1220.56 L 499.789 1220.56 L 499.789 1219.445 C 499.789 1218.813 499.853 1218.245 499.937 1218.181 C 500 1218.097 500.568 1218.034 501.2 1218.034 L 502.316 1218.034 L 502.316 1219.297 Z " fill="rgb(0,0,0)"/><path d=" M 503.789 1219.276 C 503.789 1220.434 503.874 1221.424 503.958 1221.487 C 504.379 1221.739 504.611 1221.171 504.674 1219.718 L 504.737 1218.139 L 505.958 1218.076 L 507.158 1218.013 L 507.158 1219.718 C 507.158 1221.255 507.2 1221.403 507.579 1221.403 C 507.979 1221.403 508 1221.255 508 1219.297 L 508 1217.192 L 505.895 1217.192 L 503.789 1217.192 L 503.789 1219.276 Z " fill="rgb(0,0,0)"/></g></g><defs><filter id="tG71aISQnoRObiKPo9DDsXFVlwNwKGv5" x="-200%" y="-200%" width="400%" height="400%" filterUnits="objectBoundingBox" color-interpolation-filters="sRGB"><feOffset xmlns="http://www.w3.org/2000/svg" in="SourceGraphic" dx="0" dy="0"/><feGaussianBlur xmlns="http://www.w3.org/2000/svg" stdDeviation="2.146804531419514" result="pf_100_offsetBlur"/><feComposite xmlns="http://www.w3.org/2000/svg" in="SourceGraphic" in2="pf_100_offsetBlur" result="pf_100_inverse" operator="out"/><feFlood xmlns="http://www.w3.org/2000/svg" flood-color="#000000" flood-opacity="0.5" result="pf_100_color"/><feComposite xmlns="http://www.w3.org/2000/svg" in="pf_100_color" in2="pf_100_inverse" operator="in" result="pf_100_shadow"/><feComposite xmlns="http://www.w3.org/2000/svg" in="pf_100_shadow" in2="SourceGraphic" operator="over"/></filter></defs></svg>