<?xml version="1.0" encoding="iso-8859-1"?>
<!-- Generator: Adobe Illustrator 16.0.0, SVG Export Plug-In . SVG Version: 6.00 Build 0)  -->
<!DOCTYPE svg PUBLIC "-//W3C//DTD SVG 1.1//EN" "http://www.w3.org/Graphics/SVG/1.1/DTD/svg11.dtd">
<svg version="1.1" id="Capa_1" xmlns="http://www.w3.org/2000/svg" xmlns:xlink="http://www.w3.org/1999/xlink" x="0px" y="0px"
	 width="345.804px" height="345.804px" viewBox="0 0 345.804 345.804" style="enable-background:new 0 0 345.804 345.804;"
	 xml:space="preserve">
<g>
	<path d="M343.288,159.838L181.905,27.941c-5.242-4.283-12.77-4.283-18.009,0l-41.336,33.79V44.193c0-3.788-3.066-6.848-6.854-6.848
		H75.928c-3.788,0-6.854,3.063-6.854,6.848v61.251L2.516,159.838c-2.933,2.391-3.36,6.711-0.97,9.641
		c1.357,1.654,3.33,2.523,5.32,2.523c1.524,0,3.053-0.511,4.328-1.545l34.55-28.245v172.011c0,3.785,3.066,6.852,6.846,6.852
		h240.626c3.781,0,6.854-3.066,6.854-6.852V142.216l34.55,28.245c1.273,1.037,2.807,1.545,4.326,1.545
		c1.984,0,3.956-0.87,5.314-2.524C346.648,166.549,346.221,162.235,343.288,159.838z M82.779,51.041h26.071v21.888l-26.071,21.31
		V51.041z M286.367,307.369H59.44V131.015l107.596-87.939c3.414-2.791,8.316-2.791,11.731,0l107.6,87.939V307.369z"/>
</g>
<g>
</g>
<g>
</g>
<g>
</g>
<g>
</g>
<g>
</g>
<g>
</g>
<g>
</g>
<g>
</g>
<g>
</g>
<g>
</g>
<g>
</g>
<g>
</g>
<g>
</g>
<g>
</g>
<g>
</g>
</svg>
