<?xml version="1.0" encoding="UTF-8" standalone="no"?><!-- Generator: Gravit.io --><svg xmlns="http://www.w3.org/2000/svg" xmlns:xlink="http://www.w3.org/1999/xlink" style="isolation:isolate" viewBox="1178.07 360.248 20 20" width="20pt" height="20pt"><path d=" M 1180.07 360.248 C 1178.968 360.248 1178.07 361.146 1178.07 362.248 L 1178.07 377.248 C 1178.07 378.893 1179.425 380.248 1181.07 380.248 L 1195.07 380.248 C 1196.715 380.248 1198.07 378.893 1198.07 377.248 L 1198.07 362.248 C 1198.07 361.146 1197.172 360.248 1196.07 360.248 L 1180.07 360.248 Z  M 1188.07 364.248 L 1193.07 370.248 L 1196.07 370.248 L 1196.07 377.248 C 1196.07 377.803 1195.625 378.248 1195.07 378.248 L 1190.07 378.248 L 1190.07 374.248 C 1190.07 373.143 1189.175 372.248 1188.07 372.248 C 1186.966 372.248 1186.07 373.143 1186.07 374.248 L 1186.07 378.248 L 1181.07 378.248 C 1180.515 378.248 1180.07 377.803 1180.07 377.248 L 1180.07 370.248 L 1183.07 370.248 L 1188.07 364.248 Z  M 1182.07 372.248 L 1182.07 376.248 L 1184.07 376.248 L 1184.07 372.248 L 1182.07 372.248 Z  M 1192.07 372.248 L 1192.07 376.248 L 1194.07 376.248 L 1194.07 372.248 L 1192.07 372.248 Z " fill="rgb(255,255,255)"/></svg>