<?xml version="1.0" encoding="UTF-8" standalone="no"?><!-- Generator: Gravit.io --><svg xmlns="http://www.w3.org/2000/svg" xmlns:xlink="http://www.w3.org/1999/xlink" style="isolation:isolate" viewBox="190 1070 80 80" width="80pt" height="80pt"><g><rect x="190" y="1070" width="80" height="10" transform="matrix(1,0,0,1,0,0)" fill="rgb(0,0,0)"/><g opacity="0.24"><rect x="200" y="1080" width="60" height="10" transform="matrix(1,0,0,1,0,0)" fill="rgb(0,0,0)"/></g><rect x="190" y="1080" width="10" height="70" transform="matrix(1,0,0,1,0,0)" fill="rgb(0,0,0)"/><rect x="200" y="1140" width="70" height="10" transform="matrix(1,0,0,1,0,0)" fill="rgb(0,0,0)"/><rect x="260" y="1080" width="10" height="60" transform="matrix(1,0,0,1,0,0)" fill="rgb(0,0,0)"/><g><g opacity="0.31"><path d=" M 246.823 1111.709 L 233.557 1098.443 C 231.632 1096.519 228.503 1096.519 226.579 1098.443 L 213.313 1111.709 C 212.896 1112.126 212.896 1112.802 213.313 1113.218 C 213.729 1113.635 214.405 1113.635 214.821 1113.218 L 215.667 1112.372 L 215.667 1125.933 C 215.667 1127.627 217.04 1129 218.734 1129 L 224.067 1129 C 224.435 1129 224.734 1128.702 224.734 1128.333 L 224.734 1118.466 C 224.734 1116.625 226.226 1115.132 228.068 1115.132 L 232.068 1115.132 C 233.909 1115.132 235.401 1116.625 235.401 1118.466 L 235.401 1128.333 C 235.401 1128.702 235.7 1129 236.068 1129 L 241.402 1129 C 243.096 1129 244.469 1127.627 244.469 1125.933 L 244.469 1112.372 L 245.315 1113.218 C 245.523 1113.426 245.796 1113.531 246.069 1113.531 C 246.341 1113.531 246.615 1113.426 246.823 1113.218 C 247.239 1112.802 247.239 1112.126 246.823 1111.709 L 246.823 1111.709 Z " fill="rgb(0,0,0)"/></g></g><g><path d=" M 246.823 1109.709 L 233.557 1096.443 C 231.632 1094.519 228.503 1094.519 226.579 1096.443 L 213.313 1109.709 C 212.896 1110.126 212.896 1110.802 213.313 1111.218 C 213.729 1111.635 214.405 1111.635 214.821 1111.218 L 215.667 1110.372 L 215.667 1123.933 C 215.667 1125.627 217.04 1127 218.734 1127 L 224.067 1127 C 224.435 1127 224.734 1126.702 224.734 1126.333 L 224.734 1116.466 C 224.734 1114.625 226.226 1113.132 228.068 1113.132 L 232.068 1113.132 C 233.909 1113.132 235.401 1114.625 235.401 1116.466 L 235.401 1126.333 C 235.401 1126.702 235.7 1127 236.068 1127 L 241.402 1127 C 243.096 1127 244.469 1125.627 244.469 1123.933 L 244.469 1110.372 L 245.315 1111.218 C 245.523 1111.426 245.796 1111.531 246.069 1111.531 C 246.341 1111.531 246.615 1111.426 246.823 1111.218 C 247.239 1110.802 247.239 1110.126 246.823 1109.709 L 246.823 1109.709 Z " fill="rgb(0,0,0)"/></g></g></svg>