<?xml version="1.0" encoding="UTF-8" standalone="no"?><!-- Generator: Gravit.io --><svg xmlns="http://www.w3.org/2000/svg" xmlns:xlink="http://www.w3.org/1999/xlink" style="isolation:isolate" viewBox="190 1070 80 80" width="80pt" height="80pt"><g><rect x="190" y="1070" width="80" height="10" transform="matrix(1,0,0,1,0,0)" fill="rgb(0,0,0)"/><g opacity="0.24"><rect x="200" y="1080" width="60" height="10" transform="matrix(1,0,0,1,0,0)" fill="rgb(0,0,0)"/></g><rect x="190" y="1080" width="10" height="70" transform="matrix(1,0,0,1,0,0)" fill="rgb(0,0,0)"/><rect x="200" y="1140" width="70" height="10" transform="matrix(1,0,0,1,0,0)" fill="rgb(0,0,0)"/><rect x="260" y="1080" width="10" height="60" transform="matrix(1,0,0,1,0,0)" fill="rgb(0,0,0)"/><g><rect x="205" y="1128.75" width="6.25" height="6.25" transform="matrix(1,0,0,1,0,0)" fill="rgb(0,0,0)"/><rect x="211.25" y="1128.75" width="6.25" height="6.25" transform="matrix(1,0,0,1,0,0)" fill="rgb(0,0,0)"/><rect x="217.5" y="1128.75" width="6.25" height="6.25" transform="matrix(1,0,0,1,0,0)" fill="rgb(0,0,0)"/><rect x="223.75" y="1128.75" width="6.25" height="6.25" transform="matrix(1,0,0,1,0,0)" fill="rgb(0,0,0)"/><rect x="230" y="1128.75" width="6.25" height="6.25" transform="matrix(1,0,0,1,0,0)" fill="rgb(0,0,0)"/><rect x="236.25" y="1128.75" width="6.25" height="6.25" transform="matrix(1,0,0,1,0,0)" fill="rgb(0,0,0)"/><rect x="242.5" y="1128.75" width="6.25" height="6.25" transform="matrix(1,0,0,1,0,0)" fill="rgb(0,0,0)"/><rect x="205" y="1122.5" width="6.25" height="6.25" transform="matrix(1,0,0,1,0,0)" fill="rgb(0,0,0)"/><rect x="205" y="1116.25" width="6.25" height="6.25" transform="matrix(1,0,0,1,0,0)" fill="rgb(0,0,0)"/><rect x="205" y="1110" width="6.25" height="6.25" transform="matrix(1,0,0,1,0,0)" fill="rgb(0,0,0)"/><rect x="205" y="1103.75" width="6.25" height="6.25" transform="matrix(1,0,0,1,0,0)" fill="rgb(0,0,0)"/><rect x="211.25" y="1097.5" width="6.25" height="6.25" transform="matrix(1,0,0,1,0,0)" fill="rgb(0,0,0)"/><rect x="205" y="1097.5" width="6.25" height="6.25" transform="matrix(1,0,0,1,0,0)" fill="rgb(0,0,0)"/><rect x="211.25" y="1091.25" width="6.25" height="6.25" transform="matrix(1,0,0,1,0,0)" fill="rgb(0,0,0)"/><rect x="242.5" y="1091.25" width="6.25" height="6.25" transform="matrix(1,0,0,1,0,0)" fill="rgb(0,0,0)"/><rect x="217.5" y="1091.25" width="6.25" height="6.25" transform="matrix(1,0,0,1,0,0)" fill="rgb(0,0,0)"/><g opacity="0.38"><rect x="217.5" y="1097.5" width="6.25" height="6.25" transform="matrix(1,0,0,1,0,0)" fill="rgb(0,0,0)"/></g><g opacity="0.38"><rect x="223.75" y="1091.25" width="6.25" height="6.25" transform="matrix(1,0,0,1,0,0)" fill="rgb(0,0,0)"/></g><g opacity="0.38"><rect x="230" y="1091.25" width="6.25" height="6.25" transform="matrix(1,0,0,1,0,0)" fill="rgb(0,0,0)"/></g><g opacity="0.38"><rect x="236.25" y="1097.5" width="6.25" height="6.25" transform="matrix(1,0,0,1,0,0)" fill="rgb(0,0,0)"/></g><g opacity="0.38"><rect x="236.25" y="1110" width="6.25" height="6.25" transform="matrix(1,0,0,1,0,0)" fill="rgb(0,0,0)"/></g><g opacity="0.38"><rect x="217.5" y="1110" width="6.25" height="6.25" transform="matrix(1,0,0,1,0,0)" fill="rgb(0,0,0)"/></g><g opacity="0.38"><rect x="211.25" y="1103.75" width="6.25" height="6.25" transform="matrix(1,0,0,1,0,0)" fill="rgb(0,0,0)"/></g><g opacity="0.38"><rect x="242.5" y="1103.75" width="6.25" height="6.25" transform="matrix(1,0,0,1,0,0)" fill="rgb(0,0,0)"/></g><rect x="223.75" y="1085" width="6.25" height="6.25" transform="matrix(1,0,0,1,0,0)" fill="rgb(0,0,0)"/><rect x="223.75" y="1122.5" width="6.25" height="6.25" transform="matrix(1,0,0,1,0,0)" fill="rgb(0,0,0)"/><rect x="230" y="1122.5" width="6.25" height="6.25" transform="matrix(1,0,0,1,0,0)" fill="rgb(0,0,0)"/><rect x="223.75" y="1116.25" width="6.25" height="6.25" transform="matrix(1,0,0,1,0,0)" fill="rgb(0,0,0)"/><rect x="230" y="1116.25" width="6.25" height="6.25" transform="matrix(1,0,0,1,0,0)" fill="rgb(0,0,0)"/><rect x="236.25" y="1103.75" width="6.25" height="6.25" transform="matrix(1,0,0,1,0,0)" fill="rgb(0,0,0)"/><rect x="217.5" y="1103.75" width="6.25" height="6.25" transform="matrix(1,0,0,1,0,0)" fill="rgb(0,0,0)"/><rect x="230" y="1085" width="6.25" height="6.25" transform="matrix(1,0,0,1,0,0)" fill="rgb(0,0,0)"/><rect x="236.25" y="1091.25" width="6.25" height="6.25" transform="matrix(1,0,0,1,0,0)" fill="rgb(0,0,0)"/><rect x="242.5" y="1097.5" width="6.25" height="6.25" transform="matrix(1,0,0,1,0,0)" fill="rgb(0,0,0)"/><rect x="248.75" y="1097.5" width="6.25" height="6.25" transform="matrix(1,0,0,1,0,0)" fill="rgb(0,0,0)"/><rect x="248.75" y="1103.75" width="6.25" height="6.25" transform="matrix(1,0,0,1,0,0)" fill="rgb(0,0,0)"/><rect x="248.75" y="1110" width="6.25" height="6.25" transform="matrix(1,0,0,1,0,0)" fill="rgb(0,0,0)"/><rect x="248.75" y="1116.25" width="6.25" height="6.25" transform="matrix(1,0,0,1,0,0)" fill="rgb(0,0,0)"/><rect x="248.75" y="1122.5" width="6.25" height="6.25" transform="matrix(1,0,0,1,0,0)" fill="rgb(0,0,0)"/><rect x="248.75" y="1128.75" width="6.25" height="6.25" transform="matrix(1,0,0,1,0,0)" fill="rgb(0,0,0)"/></g></g></svg>