<?xml version="1.0" encoding="UTF-8" standalone="no"?><!-- Generator: Gravit.io --><svg xmlns="http://www.w3.org/2000/svg" xmlns:xlink="http://www.w3.org/1999/xlink" style="isolation:isolate" viewBox="890 280 80 80" width="80pt" height="80pt"><g><rect x="890" y="350" width="10" height="10" transform="matrix(1,0,0,1,0,0)" fill="rgb(7,254,106)"/><rect x="900" y="350" width="10" height="10" transform="matrix(1,0,0,1,0,0)" fill="rgb(7,254,106)"/><rect x="910" y="350" width="10" height="10" transform="matrix(1,0,0,1,0,0)" fill="rgb(7,254,106)"/><rect x="920" y="350" width="10" height="10" transform="matrix(1,0,0,1,0,0)" fill="rgb(7,254,106)"/><rect x="930" y="350" width="10" height="10" transform="matrix(1,0,0,1,0,0)" fill="rgb(7,254,106)"/><rect x="940" y="350" width="10" height="10" transform="matrix(1,0,0,1,0,0)" fill="rgb(7,254,106)"/><rect x="950" y="350" width="10" height="10" transform="matrix(1,0,0,1,0,0)" fill="rgb(7,254,106)"/><rect x="890" y="340" width="10" height="10" transform="matrix(1,0,0,1,0,0)" fill="rgb(7,254,106)"/><rect x="890" y="330" width="10" height="10" transform="matrix(1,0,0,1,0,0)" fill="rgb(7,254,106)"/><rect x="890" y="320" width="10" height="10" transform="matrix(1,0,0,1,0,0)" fill="rgb(7,254,106)"/><rect x="890" y="310" width="10" height="10" transform="matrix(1,0,0,1,0,0)" fill="rgb(7,254,106)"/><rect x="900" y="300" width="10" height="10" transform="matrix(1,0,0,1,0,0)" fill="rgb(7,254,106)"/><rect x="890" y="300" width="10" height="10" transform="matrix(1,0,0,1,0,0)" fill="rgb(7,254,106)"/><rect x="900" y="290" width="10" height="10" transform="matrix(1,0,0,1,0,0)" fill="rgb(7,254,106)"/><rect x="950" y="290" width="10" height="10" transform="matrix(1,0,0,1,0,0)" fill="rgb(7,254,106)"/><rect x="910" y="290" width="10" height="10" transform="matrix(1,0,0,1,0,0)" fill="rgb(7,254,106)"/><g opacity="0.38"><rect x="910" y="300" width="10" height="10" transform="matrix(1,0,0,1,0,0)" fill="rgb(7,254,106)"/></g><g opacity="0.38"><rect x="920" y="290" width="10" height="10" transform="matrix(1,0,0,1,0,0)" fill="rgb(7,254,106)"/></g><g opacity="0.38"><rect x="930" y="290" width="10" height="10" transform="matrix(1,0,0,1,0,0)" fill="rgb(7,254,106)"/></g><g opacity="0.38"><rect x="940" y="300" width="10" height="10" transform="matrix(1,0,0,1,0,0)" fill="rgb(7,254,106)"/></g><g opacity="0.38"><rect x="940" y="320" width="10" height="10" transform="matrix(1,0,0,1,0,0)" fill="rgb(7,254,106)"/></g><g opacity="0.38"><rect x="910" y="320" width="10" height="10" transform="matrix(1,0,0,1,0,0)" fill="rgb(7,254,106)"/></g><g opacity="0.38"><rect x="900" y="310" width="10" height="10" transform="matrix(1,0,0,1,0,0)" fill="rgb(7,254,106)"/></g><g opacity="0.38"><rect x="950" y="310" width="10" height="10" transform="matrix(1,0,0,1,0,0)" fill="rgb(7,254,106)"/></g><rect x="920" y="280" width="10" height="10" transform="matrix(1,0,0,1,0,0)" fill="rgb(7,254,106)"/><rect x="920" y="340" width="10" height="10" transform="matrix(1,0,0,1,0,0)" fill="rgb(7,254,106)"/><g opacity="0.32"><rect x="930" y="340" width="10" height="10" transform="matrix(1,0,0,1,0,0)" fill="rgb(7,254,106)"/></g><rect x="920" y="330" width="10" height="10" transform="matrix(1,0,0,1,0,0)" fill="rgb(7,254,106)"/><g opacity="0.46"><rect x="930" y="330" width="10" height="10" transform="matrix(1,0,0,1,0,0)" fill="rgb(7,254,106)"/></g><rect x="940" y="310" width="10" height="10" transform="matrix(1,0,0,1,0,0)" fill="rgb(7,254,106)"/><rect x="910" y="310" width="10" height="10" transform="matrix(1,0,0,1,0,0)" fill="rgb(7,254,106)"/><rect x="930" y="280" width="10" height="10" transform="matrix(1,0,0,1,0,0)" fill="rgb(7,254,106)"/><rect x="940" y="290" width="10" height="10" transform="matrix(1,0,0,1,0,0)" fill="rgb(7,254,106)"/><rect x="950" y="300" width="10" height="10" transform="matrix(1,0,0,1,0,0)" fill="rgb(7,254,106)"/><rect x="960" y="300" width="10" height="10" transform="matrix(1,0,0,1,0,0)" fill="rgb(7,254,106)"/><rect x="960" y="310" width="10" height="10" transform="matrix(1,0,0,1,0,0)" fill="rgb(7,254,106)"/><rect x="960" y="320" width="10" height="10" transform="matrix(1,0,0,1,0,0)" fill="rgb(7,254,106)"/><rect x="960" y="330" width="10" height="10" transform="matrix(1,0,0,1,0,0)" fill="rgb(7,254,106)"/><rect x="960" y="340" width="10" height="10" transform="matrix(1,0,0,1,0,0)" fill="rgb(7,254,106)"/><rect x="960" y="350" width="10" height="10" transform="matrix(1,0,0,1,0,0)" fill="rgb(7,254,106)"/></g></svg>