<?xml version="1.0" encoding="UTF-8" standalone="no"?><!-- Generator: Gravit.io --><svg xmlns="http://www.w3.org/2000/svg" xmlns:xlink="http://www.w3.org/1999/xlink" style="isolation:isolate" viewBox="660 690 80 80" width="80pt" height="80pt"><g><rect x="660" y="760" width="10" height="10" transform="matrix(1,0,0,1,0,0)" fill="rgb(0,0,0)"/><rect x="670" y="760" width="10" height="10" transform="matrix(1,0,0,1,0,0)" fill="rgb(0,0,0)"/><rect x="680" y="760" width="10" height="10" transform="matrix(1,0,0,1,0,0)" fill="rgb(0,0,0)"/><rect x="690" y="760" width="10" height="10" transform="matrix(1,0,0,1,0,0)" fill="rgb(0,0,0)"/><rect x="700" y="760" width="10" height="10" transform="matrix(1,0,0,1,0,0)" fill="rgb(0,0,0)"/><rect x="710" y="760" width="10" height="10" transform="matrix(1,0,0,1,0,0)" fill="rgb(0,0,0)"/><rect x="720" y="760" width="10" height="10" transform="matrix(1,0,0,1,0,0)" fill="rgb(0,0,0)"/><rect x="660" y="750" width="10" height="10" transform="matrix(1,0,0,1,0,0)" fill="rgb(0,0,0)"/><rect x="660" y="740" width="10" height="10" transform="matrix(1,0,0,1,0,0)" fill="rgb(0,0,0)"/><rect x="660" y="730" width="10" height="10" transform="matrix(1,0,0,1,0,0)" fill="rgb(0,0,0)"/><rect x="660" y="720" width="10" height="10" transform="matrix(1,0,0,1,0,0)" fill="rgb(0,0,0)"/><rect x="670" y="710" width="10" height="10" transform="matrix(1,0,0,1,0,0)" fill="rgb(0,0,0)"/><rect x="660" y="710" width="10" height="10" transform="matrix(1,0,0,1,0,0)" fill="rgb(0,0,0)"/><rect x="670" y="700" width="10" height="10" transform="matrix(1,0,0,1,0,0)" fill="rgb(0,0,0)"/><rect x="720" y="700" width="10" height="10" transform="matrix(1,0,0,1,0,0)" fill="rgb(0,0,0)"/><rect x="680" y="700" width="10" height="10" transform="matrix(1,0,0,1,0,0)" fill="rgb(0,0,0)"/><g opacity="0.38"><rect x="680" y="710" width="10" height="10" transform="matrix(1,0,0,1,0,0)" fill="rgb(0,0,0)"/></g><g opacity="0.38"><rect x="690" y="700" width="10" height="10" transform="matrix(1,0,0,1,0,0)" fill="rgb(0,0,0)"/></g><g opacity="0.38"><rect x="700" y="700" width="10" height="10" transform="matrix(1,0,0,1,0,0)" fill="rgb(0,0,0)"/></g><g opacity="0.38"><rect x="710" y="710" width="10" height="10" transform="matrix(1,0,0,1,0,0)" fill="rgb(0,0,0)"/></g><g opacity="0.38"><rect x="710" y="730" width="10" height="10" transform="matrix(1,0,0,1,0,0)" fill="rgb(0,0,0)"/></g><g opacity="0.38"><rect x="680" y="730" width="10" height="10" transform="matrix(1,0,0,1,0,0)" fill="rgb(0,0,0)"/></g><g opacity="0.38"><rect x="670" y="720" width="10" height="10" transform="matrix(1,0,0,1,0,0)" fill="rgb(0,0,0)"/></g><g opacity="0.38"><rect x="720" y="720" width="10" height="10" transform="matrix(1,0,0,1,0,0)" fill="rgb(0,0,0)"/></g><rect x="690" y="690" width="10" height="10" transform="matrix(1,0,0,1,0,0)" fill="rgb(0,0,0)"/><rect x="690" y="750" width="10" height="10" transform="matrix(1,0,0,1,0,0)" fill="rgb(0,0,0)"/><g opacity="0.32"><rect x="700" y="750" width="10" height="10" transform="matrix(1,0,0,1,0,0)" fill="rgb(0,0,0)"/></g><rect x="690" y="740" width="10" height="10" transform="matrix(1,0,0,1,0,0)" fill="rgb(0,0,0)"/><g opacity="0.46"><rect x="700" y="740" width="10" height="10" transform="matrix(1,0,0,1,0,0)" fill="rgb(0,0,0)"/></g><rect x="710" y="720" width="10" height="10" transform="matrix(1,0,0,1,0,0)" fill="rgb(0,0,0)"/><rect x="680" y="720" width="10" height="10" transform="matrix(1,0,0,1,0,0)" fill="rgb(0,0,0)"/><rect x="700" y="690" width="10" height="10" transform="matrix(1,0,0,1,0,0)" fill="rgb(0,0,0)"/><rect x="710" y="700" width="10" height="10" transform="matrix(1,0,0,1,0,0)" fill="rgb(0,0,0)"/><rect x="720" y="710" width="10" height="10" transform="matrix(1,0,0,1,0,0)" fill="rgb(0,0,0)"/><rect x="730" y="710" width="10" height="10" transform="matrix(1,0,0,1,0,0)" fill="rgb(0,0,0)"/><rect x="730" y="720" width="10" height="10" transform="matrix(1,0,0,1,0,0)" fill="rgb(0,0,0)"/><rect x="730" y="730" width="10" height="10" transform="matrix(1,0,0,1,0,0)" fill="rgb(0,0,0)"/><rect x="730" y="740" width="10" height="10" transform="matrix(1,0,0,1,0,0)" fill="rgb(0,0,0)"/><rect x="730" y="750" width="10" height="10" transform="matrix(1,0,0,1,0,0)" fill="rgb(0,0,0)"/><rect x="730" y="760" width="10" height="10" transform="matrix(1,0,0,1,0,0)" fill="rgb(0,0,0)"/></g></svg>