<?xml version="1.0" encoding="UTF-8" standalone="no"?><!-- Generator: Gravit.io --><svg xmlns="http://www.w3.org/2000/svg" xmlns:xlink="http://www.w3.org/1999/xlink" style="isolation:isolate" viewBox="202 1078.564 56 55.872" width="56pt" height="55.872pt"><g><g filter="url(#gQaB24Qs1wWXKtd02OdGKIFKQtFxUMOy)"><path d=" M 254.542 1103.11 L 235.11 1083.677 C 232.292 1080.86 227.708 1080.86 224.89 1083.677 L 205.458 1103.11 C 204.847 1103.72 204.847 1104.709 205.458 1105.32 C 206.067 1105.93 207.057 1105.93 207.667 1105.32 L 208.906 1104.08 L 208.906 1123.944 C 208.906 1126.425 210.917 1128.436 213.398 1128.436 L 221.211 1128.436 C 221.75 1128.436 222.187 1127.999 222.187 1127.46 L 222.187 1113.006 C 222.187 1110.31 224.374 1108.123 227.07 1108.123 L 232.93 1108.123 C 235.626 1108.123 237.813 1110.31 237.813 1113.006 L 237.813 1127.46 C 237.813 1127.999 238.25 1128.436 238.789 1128.436 L 246.602 1128.436 C 249.083 1128.436 251.094 1126.425 251.094 1123.944 L 251.094 1104.08 L 252.333 1105.32 C 252.638 1105.624 253.038 1105.778 253.438 1105.778 C 253.837 1105.778 254.238 1105.624 254.542 1105.32 C 255.153 1104.709 255.153 1103.72 254.542 1103.11 L 254.542 1103.11 Z " fill="rgb(0,0,0)"/></g><defs><filter id="gQaB24Qs1wWXKtd02OdGKIFKQtFxUMOy" x="-200%" y="-200%" width="400%" height="400%" filterUnits="objectBoundingBox" color-interpolation-filters="sRGB"><feGaussianBlur xmlns="http://www.w3.org/2000/svg" in="SourceGraphic" stdDeviation="0"/><feOffset xmlns="http://www.w3.org/2000/svg" dx="0" dy="3" result="pf_100_offsetBlur"/><feFlood xmlns="http://www.w3.org/2000/svg" flood-color="#000000" flood-opacity="0.25"/><feComposite xmlns="http://www.w3.org/2000/svg" in2="pf_100_offsetBlur" operator="in" result="pf_100_dropShadow"/><feBlend xmlns="http://www.w3.org/2000/svg" in="SourceGraphic" in2="pf_100_dropShadow" mode="normal"/></filter></defs></g></svg>