<?xml version="1.0" encoding="UTF-8" standalone="no"?><!-- Generator: Gravit.io --><svg xmlns="http://www.w3.org/2000/svg" xmlns:xlink="http://www.w3.org/1999/xlink" style="isolation:isolate" viewBox="190 1160 80 80" width="80pt" height="80pt"><g><rect x="190" y="1160" width="80" height="10" transform="matrix(1,0,0,1,0,0)" fill="rgb(0,0,0)"/><g opacity="0.24"><rect x="200" y="1170" width="60" height="10" transform="matrix(1,0,0,1,0,0)" fill="rgb(0,0,0)"/></g><rect x="190" y="1170" width="10" height="70" transform="matrix(1,0,0,1,0,0)" fill="rgb(0,0,0)"/><rect x="200" y="1230" width="70" height="10" transform="matrix(1,0,0,1,0,0)" fill="rgb(0,0,0)"/><rect x="260" y="1170" width="10" height="60" transform="matrix(1,0,0,1,0,0)" fill="rgb(0,0,0)"/><path d=" M 210.59 1213.545 C 211.521 1213.545 212.15 1212.922 212.15 1212.007 C 212.15 1211.077 211.521 1210.447 210.59 1210.447 C 209.675 1210.447 209.052 1211.077 209.052 1212.007 C 209.052 1212.922 209.675 1213.545 210.59 1213.545 Z  M 209.228 1221.067 C 209.228 1221.704 208.92 1221.997 208.43 1221.997 C 208.144 1221.997 207.814 1221.938 207.558 1221.829 L 207.324 1223.938 C 207.573 1224.063 208.1 1224.282 209.089 1224.282 C 210.356 1224.282 211.96 1223.425 211.96 1221.338 L 211.96 1214.182 L 209.228 1214.182 L 209.228 1221.067 Z  M 216.42 1216.819 C 215.563 1216.672 215.256 1216.65 215.256 1216.489 C 215.256 1216.292 215.593 1216.204 216.347 1216.204 C 217.006 1216.204 217.958 1216.379 218.317 1216.533 L 218.588 1214.395 C 218.098 1214.211 217.028 1214.028 216.12 1214.028 C 214.011 1214.028 212.744 1214.929 212.744 1216.438 C 212.744 1217.778 213.461 1218.401 215.051 1218.628 L 215.512 1218.694 C 216.142 1218.782 216.391 1218.833 216.391 1218.994 C 216.391 1219.17 216.047 1219.236 215.461 1219.236 C 214.567 1219.236 213.593 1218.987 213.11 1218.818 L 212.854 1220.928 C 213.608 1221.191 214.699 1221.353 215.783 1221.353 C 217.768 1221.353 218.955 1220.481 218.955 1219.031 C 218.955 1217.8 218.354 1217.156 216.882 1216.899 L 216.42 1216.819 Z  M 223.781 1211.106 C 221.247 1211.106 219.541 1212.3 219.541 1214.197 C 219.541 1216.108 221.027 1216.841 222.353 1217.192 L 223.884 1217.603 C 224.484 1217.764 224.704 1217.969 224.704 1218.269 C 224.704 1218.745 224.147 1218.914 223.415 1218.914 C 221.826 1218.914 220.441 1218.364 219.863 1218.049 L 219.57 1220.54 C 220.266 1220.876 221.738 1221.367 223.627 1221.367 C 226.198 1221.367 227.802 1220.085 227.802 1218.21 C 227.802 1216.658 226.784 1215.845 225.063 1215.347 L 223.481 1214.885 C 222.983 1214.739 222.521 1214.644 222.521 1214.233 C 222.521 1213.64 223.159 1213.516 223.928 1213.516 C 225.158 1213.516 226.359 1213.896 226.975 1214.255 L 227.216 1211.772 C 226.425 1211.399 225.275 1211.106 223.781 1211.106 Z  M 233.376 1214.028 C 232.504 1214.028 231.801 1214.277 231.376 1214.658 L 231.376 1210.894 L 228.564 1210.894 L 228.564 1221.206 L 231.376 1221.206 L 231.376 1217.324 C 231.376 1216.826 231.721 1216.482 232.226 1216.482 C 232.731 1216.482 233.083 1216.826 233.083 1217.324 L 233.083 1221.206 L 235.896 1221.206 L 235.896 1216.489 C 235.896 1215.024 234.87 1214.028 233.376 1214.028 Z  M 243.234 1218.745 C 242.78 1218.965 241.894 1219.17 240.964 1219.17 C 240.1 1219.17 239.316 1218.848 239.265 1218.306 L 243.725 1218.306 C 244.172 1215.376 242.575 1214.028 240.349 1214.028 C 238.115 1214.028 236.635 1215.471 236.635 1217.676 C 236.635 1219.888 238.173 1221.353 240.832 1221.353 C 242.026 1221.353 243.051 1221.016 243.549 1220.737 L 243.234 1218.745 Z  M 239.265 1216.973 C 239.309 1216.511 239.646 1216.072 240.312 1216.072 C 240.898 1216.072 241.25 1216.555 241.25 1216.973 L 239.265 1216.973 Z  M 250.961 1218.745 C 250.507 1218.965 249.621 1219.17 248.691 1219.17 C 247.827 1219.17 247.043 1218.848 246.992 1218.306 L 251.452 1218.306 C 251.899 1215.376 250.302 1214.028 248.076 1214.028 C 245.842 1214.028 244.362 1215.471 244.362 1217.676 C 244.362 1219.888 245.9 1221.353 248.559 1221.353 C 249.753 1221.353 250.778 1221.016 251.276 1220.737 L 250.961 1218.745 Z  M 246.992 1216.973 C 247.036 1216.511 247.373 1216.072 248.039 1216.072 C 248.625 1216.072 248.977 1216.555 248.977 1216.973 L 246.992 1216.973 Z  M 257.473 1216.387 L 257.473 1214.175 L 255.539 1214.175 L 255.539 1211.919 L 252.895 1211.919 L 252.895 1214.175 L 251.848 1214.175 L 251.848 1216.387 L 252.902 1216.387 L 252.902 1218.503 C 252.902 1220.605 254.191 1221.353 255.869 1221.353 C 256.689 1221.353 257.524 1221.162 257.905 1220.986 L 257.758 1218.796 C 257.407 1218.899 256.967 1218.965 256.535 1218.965 C 255.993 1218.965 255.642 1218.738 255.642 1218.035 L 255.642 1216.387 L 257.473 1216.387 Z " fill="rgb(0,0,0)"/><g opacity="0.26"><path d=" M 210.59 1215.912 C 211.521 1215.912 212.15 1215.289 212.15 1214.374 C 212.15 1213.444 211.521 1212.814 210.59 1212.814 C 209.675 1212.814 209.052 1213.444 209.052 1214.374 C 209.052 1215.289 209.675 1215.912 210.59 1215.912 Z  M 209.228 1223.434 C 209.228 1224.071 208.92 1224.364 208.43 1224.364 C 208.144 1224.364 207.814 1224.305 207.558 1224.195 L 207.324 1226.305 C 207.573 1226.429 208.1 1226.649 209.089 1226.649 C 210.356 1226.649 211.96 1225.792 211.96 1223.705 L 211.96 1216.549 L 209.228 1216.549 L 209.228 1223.434 Z  M 216.42 1219.186 C 215.563 1219.039 215.256 1219.017 215.256 1218.856 C 215.256 1218.658 215.593 1218.57 216.347 1218.57 C 217.006 1218.57 217.958 1218.746 218.317 1218.9 L 218.588 1216.761 C 218.098 1216.578 217.028 1216.395 216.12 1216.395 C 214.011 1216.395 212.744 1217.296 212.744 1218.805 C 212.744 1220.145 213.461 1220.768 215.051 1220.995 L 215.512 1221.061 C 216.142 1221.149 216.391 1221.2 216.391 1221.361 C 216.391 1221.537 216.047 1221.603 215.461 1221.603 C 214.567 1221.603 213.593 1221.354 213.11 1221.185 L 212.854 1223.295 C 213.608 1223.558 214.699 1223.719 215.783 1223.719 C 217.768 1223.719 218.955 1222.848 218.955 1221.398 C 218.955 1220.167 218.354 1219.523 216.882 1219.266 L 216.42 1219.186 Z  M 223.781 1213.473 C 221.247 1213.473 219.541 1214.667 219.541 1216.564 C 219.541 1218.475 221.027 1219.208 222.353 1219.559 L 223.884 1219.969 C 224.484 1220.131 224.704 1220.336 224.704 1220.636 C 224.704 1221.112 224.147 1221.28 223.415 1221.28 C 221.826 1221.28 220.441 1220.731 219.863 1220.416 L 219.57 1222.906 C 220.266 1223.243 221.738 1223.734 223.627 1223.734 C 226.198 1223.734 227.802 1222.452 227.802 1220.577 C 227.802 1219.025 226.784 1218.212 225.063 1217.714 L 223.481 1217.252 C 222.983 1217.106 222.521 1217.01 222.521 1216.6 C 222.521 1216.007 223.159 1215.882 223.928 1215.882 C 225.158 1215.882 226.359 1216.263 226.975 1216.622 L 227.216 1214.139 C 226.425 1213.766 225.275 1213.473 223.781 1213.473 Z  M 233.376 1216.395 C 232.504 1216.395 231.801 1216.644 231.376 1217.025 L 231.376 1213.26 L 228.564 1213.26 L 228.564 1223.573 L 231.376 1223.573 L 231.376 1219.691 C 231.376 1219.193 231.721 1218.849 232.226 1218.849 C 232.731 1218.849 233.083 1219.193 233.083 1219.691 L 233.083 1223.573 L 235.896 1223.573 L 235.896 1218.856 C 235.896 1217.391 234.87 1216.395 233.376 1216.395 Z  M 243.234 1221.112 C 242.78 1221.332 241.894 1221.537 240.964 1221.537 C 240.1 1221.537 239.316 1221.215 239.265 1220.673 L 243.725 1220.673 C 244.172 1217.743 242.575 1216.395 240.349 1216.395 C 238.115 1216.395 236.635 1217.838 236.635 1220.043 C 236.635 1222.255 238.173 1223.719 240.832 1223.719 C 242.026 1223.719 243.051 1223.382 243.549 1223.104 L 243.234 1221.112 Z  M 239.265 1219.34 C 239.309 1218.878 239.646 1218.439 240.312 1218.439 C 240.898 1218.439 241.25 1218.922 241.25 1219.34 L 239.265 1219.34 Z  M 250.961 1221.112 C 250.507 1221.332 249.621 1221.537 248.691 1221.537 C 247.827 1221.537 247.043 1221.215 246.992 1220.673 L 251.452 1220.673 C 251.899 1217.743 250.302 1216.395 248.076 1216.395 C 245.842 1216.395 244.362 1217.838 244.362 1220.043 C 244.362 1222.255 245.9 1223.719 248.559 1223.719 C 249.753 1223.719 250.778 1223.382 251.276 1223.104 L 250.961 1221.112 Z  M 246.992 1219.34 C 247.036 1218.878 247.373 1218.439 248.039 1218.439 C 248.625 1218.439 248.977 1218.922 248.977 1219.34 L 246.992 1219.34 Z  M 257.473 1218.754 L 257.473 1216.542 L 255.539 1216.542 L 255.539 1214.286 L 252.895 1214.286 L 252.895 1216.542 L 251.848 1216.542 L 251.848 1218.754 L 252.902 1218.754 L 252.902 1220.87 C 252.902 1222.972 254.191 1223.719 255.869 1223.719 C 256.689 1223.719 257.524 1223.529 257.905 1223.353 L 257.758 1221.163 C 257.407 1221.266 256.967 1221.332 256.535 1221.332 C 255.993 1221.332 255.642 1221.105 255.642 1220.402 L 255.642 1218.754 L 257.473 1218.754 Z " fill="rgb(0,0,0)"/></g></g></svg>