<?xml version="1.0" encoding="UTF-8" standalone="no"?><!-- Generator: Gravit.io --><svg xmlns="http://www.w3.org/2000/svg" xmlns:xlink="http://www.w3.org/1999/xlink" style="isolation:isolate" viewBox="117.5 589 25 25" width="25pt" height="25pt"><g><path d=" M 120.532 589 C 118.699 589 117.5 590.259 117.5 591.915 C 117.5 593.533 118.663 594.829 120.461 594.829 L 120.496 594.829 C 122.365 594.829 123.528 593.533 123.528 591.915 C 123.493 590.259 122.365 589 120.532 589 Z " fill="rgb(255,255,255)"/><path d=" M 117.817 597.132 L 123.176 597.132 L 123.176 614 L 117.817 614 L 117.817 597.132 Z " fill="rgb(255,255,255)"/><path d=" M 136.33 596.736 C 133.439 596.736 131.501 599.578 131.501 599.578 L 131.501 597.132 L 126.141 597.132 L 126.141 614 L 131.5 614 L 131.5 604.58 C 131.5 604.076 131.535 603.572 131.677 603.212 C 132.064 602.205 132.946 601.161 134.426 601.161 C 136.366 601.161 137.141 602.708 137.141 604.976 L 137.141 614 L 142.5 614 L 142.5 604.328 C 142.5 599.147 139.856 596.736 136.33 596.736 L 136.33 596.736 Z " fill="rgb(255,255,255)"/></g></svg>