<?xml version="1.0" encoding="UTF-8" standalone="no"?><!-- Generator: Gravit.io --><svg xmlns="http://www.w3.org/2000/svg" xmlns:xlink="http://www.w3.org/1999/xlink" style="isolation:isolate" viewBox="475 1080 50 50" width="50pt" height="50pt"><g><g><path d=" M 481.064 1080 C 477.398 1080 475 1082.518 475 1085.83 C 475 1089.066 477.326 1091.658 480.922 1091.658 L 480.992 1091.658 C 484.73 1091.658 487.056 1089.066 487.056 1085.83 C 486.986 1082.518 484.73 1080 481.064 1080 Z " fill="rgb(0,0,0)"/><path d=" M 475.634 1096.264 L 486.352 1096.264 L 486.352 1130 L 475.634 1130 L 475.634 1096.264 Z " fill="rgb(0,0,0)"/><path d=" M 512.66 1095.472 C 506.878 1095.472 503.002 1101.156 503.002 1101.156 L 503.002 1096.264 L 492.282 1096.264 L 492.282 1130 L 503 1130 L 503 1111.16 C 503 1110.152 503.07 1109.144 503.354 1108.424 C 504.128 1106.41 505.892 1104.322 508.852 1104.322 C 512.732 1104.322 514.282 1107.416 514.282 1111.952 L 514.282 1130 L 525 1130 L 525 1110.656 C 525 1100.294 519.712 1095.472 512.66 1095.472 L 512.66 1095.472 Z " fill="rgb(0,0,0)"/></g></g></svg>