<?xml version="1.0" encoding="UTF-8" standalone="no"?><!-- Generator: Gravit.io --><svg xmlns="http://www.w3.org/2000/svg" xmlns:xlink="http://www.w3.org/1999/xlink" style="isolation:isolate" viewBox="460 1070 80 80" width="80pt" height="80pt"><g><rect x="460" y="1070" width="80" height="10" transform="matrix(1,0,0,1,0,0)" fill="rgb(0,0,0)"/><g opacity="0.24"><rect x="470" y="1080" width="60" height="10" transform="matrix(1,0,0,1,0,0)" fill="rgb(0,0,0)"/></g><rect x="460" y="1080" width="10" height="70" transform="matrix(1,0,0,1,0,0)" fill="rgb(0,0,0)"/><rect x="470" y="1140" width="70" height="10" transform="matrix(1,0,0,1,0,0)" fill="rgb(0,0,0)"/><rect x="530" y="1080" width="10" height="60" transform="matrix(1,0,0,1,0,0)" fill="rgb(0,0,0)"/><g><path d=" M 484.851 1090 C 481.918 1090 480 1092.014 480 1094.664 C 480 1097.253 481.861 1099.326 484.738 1099.326 L 484.794 1099.326 C 487.784 1099.326 489.645 1097.253 489.645 1094.664 C 489.589 1092.014 487.784 1090 484.851 1090 Z " fill="rgb(0,0,0)"/><path d=" M 480.507 1103.011 L 489.082 1103.011 L 489.082 1130 L 480.507 1130 L 480.507 1103.011 Z " fill="rgb(0,0,0)"/><path d=" M 510.128 1102.378 C 505.502 1102.378 502.402 1106.925 502.402 1106.925 L 502.402 1103.011 L 493.826 1103.011 L 493.826 1130 L 502.4 1130 L 502.4 1114.928 C 502.4 1114.122 502.456 1113.315 502.683 1112.739 C 503.302 1111.128 504.714 1109.458 507.082 1109.458 C 510.186 1109.458 511.426 1111.933 511.426 1115.562 L 511.426 1130 L 520 1130 L 520 1114.525 C 520 1106.235 515.77 1102.378 510.128 1102.378 L 510.128 1102.378 Z " fill="rgb(0,0,0)"/></g></g></svg>