<?xml version="1.0" encoding="UTF-8" standalone="no"?><!-- Generator: Gravit.io --><svg xmlns="http://www.w3.org/2000/svg" xmlns:xlink="http://www.w3.org/1999/xlink" style="isolation:isolate" viewBox="196.43 999.71 67.14 46.58" width="67.14pt" height="46.58pt"><g><defs><filter id="daA5EXTJRaXHbic59IcTF50oRpLTdKa3" x="-200%" y="-200%" width="400%" height="400%" filterUnits="objectBoundingBox" color-interpolation-filters="sRGB"><feGaussianBlur xmlns="http://www.w3.org/2000/svg" in="SourceGraphic" stdDeviation="0"/><feOffset xmlns="http://www.w3.org/2000/svg" dx="0" dy="6" result="pf_100_offsetBlur"/><feFlood xmlns="http://www.w3.org/2000/svg" flood-color="#000000" flood-opacity="0.32"/><feComposite xmlns="http://www.w3.org/2000/svg" in2="pf_100_offsetBlur" operator="in" result="pf_100_dropShadow"/><feBlend xmlns="http://www.w3.org/2000/svg" in="SourceGraphic" in2="pf_100_dropShadow" mode="normal"/></filter></defs><g filter="url(#daA5EXTJRaXHbic59IcTF50oRpLTdKa3)"><path d=" M 246.288 1018.422 C 246.288 1016.432 244.92 1014.568 242.269 1014.568 C 239.618 1014.568 238.418 1016.432 238.418 1018.422 L 238.418 1040.29 L 221.653 1040.29 L 221.653 1018.422 C 221.653 1016.432 220.375 1014.568 217.636 1014.568 C 214.985 1014.568 213.742 1016.432 213.742 1018.422 L 213.742 1040.29 L 196.43 1040.29 L 196.43 1000.526 L 211.878 1000.526 L 212.584 1004.185 C 216.601 999.547 222.152 999.711 225.092 999.711 C 229.275 999.711 234.535 1001.534 236.358 1005.801 C 240.211 1000.749 245.47 999.711 249.114 999.711 C 254.583 999.711 263.57 1002.779 263.57 1013.216 L 263.57 1040.29 L 246.288 1040.29 L 246.288 1018.422 Z " fill="rgb(0,0,0)"/></g></g></svg>