<?xml version="1.0" encoding="UTF-8" standalone="no"?><!-- Generator: Gravit.io --><svg xmlns="http://www.w3.org/2000/svg" xmlns:xlink="http://www.w3.org/1999/xlink" style="isolation:isolate" viewBox="190 980 80 80" width="80pt" height="80pt"><g><g><rect x="190" y="980" width="80" height="10" transform="matrix(1,0,0,1,0,0)" fill="rgb(0,0,0)"/><g opacity="0.24"><rect x="200" y="990" width="60" height="10" transform="matrix(1,0,0,1,0,0)" fill="rgb(0,0,0)"/></g><rect x="190" y="990" width="10" height="70" transform="matrix(1,0,0,1,0,0)" fill="rgb(0,0,0)"/><rect x="200" y="1050" width="70" height="10" transform="matrix(1,0,0,1,0,0)" fill="rgb(0,0,0)"/><rect x="260" y="990" width="10" height="60" transform="matrix(1,0,0,1,0,0)" fill="rgb(0,0,0)"/></g><defs><filter id="7Rk0BlkwMYtKRdt8Nu97BHeP9TWUMREq" x="-200%" y="-200%" width="400%" height="400%" filterUnits="objectBoundingBox" color-interpolation-filters="sRGB"><feGaussianBlur xmlns="http://www.w3.org/2000/svg" in="SourceGraphic" stdDeviation="0"/><feOffset xmlns="http://www.w3.org/2000/svg" dx="0" dy="6" result="pf_100_offsetBlur"/><feFlood xmlns="http://www.w3.org/2000/svg" flood-color="#000000" flood-opacity="0.32"/><feComposite xmlns="http://www.w3.org/2000/svg" in2="pf_100_offsetBlur" operator="in" result="pf_100_dropShadow"/><feBlend xmlns="http://www.w3.org/2000/svg" in="SourceGraphic" in2="pf_100_dropShadow" mode="normal"/></filter></defs><g filter="url(#7Rk0BlkwMYtKRdt8Nu97BHeP9TWUMREq)"><path d=" M 238.261 1019.49 C 238.261 1018.481 237.567 1017.536 236.222 1017.536 C 234.878 1017.536 234.269 1018.481 234.269 1019.49 L 234.269 1030.58 L 225.767 1030.58 L 225.767 1019.49 C 225.767 1018.481 225.119 1017.536 223.73 1017.536 C 222.385 1017.536 221.755 1018.481 221.755 1019.49 L 221.755 1030.58 L 212.975 1030.58 L 212.975 1010.414 L 220.81 1010.414 L 221.167 1012.27 C 223.205 1009.917 226.02 1010 227.511 1010 C 229.632 1010 232.3 1010.925 233.224 1013.089 C 235.178 1010.527 237.846 1010 239.694 1010 C 242.467 1010 247.025 1011.556 247.025 1016.85 L 247.025 1030.58 L 238.261 1030.58 L 238.261 1019.49 Z " fill="rgb(0,0,0)"/></g></g></svg>