<?xml version="1.0" encoding="UTF-8" standalone="no"?><!-- Generator: Gravit.io --><svg xmlns="http://www.w3.org/2000/svg" xmlns:xlink="http://www.w3.org/1999/xlink" style="isolation:isolate" viewBox="570 600 80 80" width="80pt" height="80pt"><g><rect x="570" y="600" width="10" height="10" transform="matrix(1,0,0,1,0,0)" fill="rgb(0,0,0)"/><rect x="580" y="600" width="10" height="10" transform="matrix(1,0,0,1,0,0)" fill="rgb(0,0,0)"/><g opacity="0.24"><rect x="580" y="610" width="10" height="10" transform="matrix(1,0,0,1,0,0)" fill="rgb(0,0,0)"/></g><g opacity="0.24"><rect x="590" y="610" width="10" height="10" transform="matrix(1,0,0,1,0,0)" fill="rgb(0,0,0)"/></g><g opacity="0.24"><rect x="600" y="610" width="10" height="10" transform="matrix(1,0,0,1,0,0)" fill="rgb(0,0,0)"/></g><g opacity="0.24"><rect x="610" y="610" width="10" height="10" transform="matrix(1,0,0,1,0,0)" fill="rgb(0,0,0)"/></g><g opacity="0.24"><rect x="620" y="610" width="10" height="10" transform="matrix(1,0,0,1,0,0)" fill="rgb(0,0,0)"/></g><g opacity="0.24"><rect x="630" y="610" width="10" height="10" transform="matrix(1,0,0,1,0,0)" fill="rgb(0,0,0)"/></g><g opacity="0.24"><rect x="620" y="660" width="10" height="10" transform="matrix(1,0,0,1,0,0)" fill="rgb(0,0,0)"/></g><g opacity="0.24"><rect x="610" y="660" width="10" height="10" transform="matrix(1,0,0,1,0,0)" fill="rgb(0,0,0)"/></g><g opacity="0.24"><rect x="600" y="660" width="10" height="10" transform="matrix(1,0,0,1,0,0)" fill="rgb(0,0,0)"/></g><g opacity="0.24"><rect x="590" y="660" width="10" height="10" transform="matrix(1,0,0,1,0,0)" fill="rgb(0,0,0)"/></g><rect x="590" y="650" width="10" height="10" transform="matrix(1,0,0,1,0,0)" fill="rgb(0,0,0)"/><rect x="600" y="650" width="10" height="10" transform="matrix(1,0,0,1,0,0)" fill="rgb(0,0,0)"/><rect x="610" y="650" width="10" height="10" transform="matrix(1,0,0,1,0,0)" fill="rgb(0,0,0)"/><rect x="620" y="650" width="10" height="10" transform="matrix(1,0,0,1,0,0)" fill="rgb(0,0,0)"/><rect x="590" y="600" width="10" height="10" transform="matrix(1,0,0,1,0,0)" fill="rgb(0,0,0)"/><rect x="600" y="600" width="10" height="10" transform="matrix(1,0,0,1,0,0)" fill="rgb(0,0,0)"/><rect x="610" y="600" width="10" height="10" transform="matrix(1,0,0,1,0,0)" fill="rgb(0,0,0)"/><rect x="620" y="600" width="10" height="10" transform="matrix(1,0,0,1,0,0)" fill="rgb(0,0,0)"/><rect x="630" y="600" width="10" height="10" transform="matrix(1,0,0,1,0,0)" fill="rgb(0,0,0)"/><rect x="570" y="610" width="10" height="10" transform="matrix(1,0,0,1,0,0)" fill="rgb(0,0,0)"/><rect x="570" y="620" width="10" height="10" transform="matrix(1,0,0,1,0,0)" fill="rgb(0,0,0)"/><rect x="570" y="630" width="10" height="10" transform="matrix(1,0,0,1,0,0)" fill="rgb(0,0,0)"/><rect x="570" y="640" width="10" height="10" transform="matrix(1,0,0,1,0,0)" fill="rgb(0,0,0)"/><rect x="570" y="650" width="10" height="10" transform="matrix(1,0,0,1,0,0)" fill="rgb(0,0,0)"/><rect x="570" y="660" width="10" height="10" transform="matrix(1,0,0,1,0,0)" fill="rgb(0,0,0)"/><rect x="570" y="670" width="10" height="10" transform="matrix(1,0,0,1,0,0)" fill="rgb(0,0,0)"/><rect x="580" y="670" width="10" height="10" transform="matrix(1,0,0,1,0,0)" fill="rgb(0,0,0)"/><rect x="590" y="670" width="10" height="10" transform="matrix(1,0,0,1,0,0)" fill="rgb(0,0,0)"/><rect x="600" y="670" width="10" height="10" transform="matrix(1,0,0,1,0,0)" fill="rgb(0,0,0)"/><rect x="610" y="670" width="10" height="10" transform="matrix(1,0,0,1,0,0)" fill="rgb(0,0,0)"/><rect x="620" y="670" width="10" height="10" transform="matrix(1,0,0,1,0,0)" fill="rgb(0,0,0)"/><rect x="630" y="670" width="10" height="10" transform="matrix(1,0,0,1,0,0)" fill="rgb(0,0,0)"/><rect x="640" y="670" width="10" height="10" transform="matrix(1,0,0,1,0,0)" fill="rgb(0,0,0)"/><rect x="640" y="660" width="10" height="10" transform="matrix(1,0,0,1,0,0)" fill="rgb(0,0,0)"/><rect x="640" y="650" width="10" height="10" transform="matrix(1,0,0,1,0,0)" fill="rgb(0,0,0)"/><rect x="640" y="640" width="10" height="10" transform="matrix(1,0,0,1,0,0)" fill="rgb(0,0,0)"/><rect x="640" y="630" width="10" height="10" transform="matrix(1,0,0,1,0,0)" fill="rgb(0,0,0)"/><rect x="640" y="620" width="10" height="10" transform="matrix(1,0,0,1,0,0)" fill="rgb(0,0,0)"/><rect x="640" y="610" width="10" height="10" transform="matrix(1,0,0,1,0,0)" fill="rgb(0,0,0)"/><rect x="640" y="600" width="10" height="10" transform="matrix(1,0,0,1,0,0)" fill="rgb(0,0,0)"/></g></svg>