<?xml version="1.0" encoding="UTF-8" standalone="no"?><!-- Generator: Gravit.io --><svg xmlns="http://www.w3.org/2000/svg" xmlns:xlink="http://www.w3.org/1999/xlink" style="isolation:isolate" viewBox="370 980 80 80" width="80pt" height="80pt"><g><rect x="370" y="980" width="80" height="10" transform="matrix(1,0,0,1,0,0)" fill="rgb(0,0,0)"/><rect x="390" y="1030" width="40" height="10" transform="matrix(1,0,0,1,0,0)" fill="rgb(0,0,0)"/><g opacity="0.24"><rect x="380" y="990" width="60" height="10" transform="matrix(1,0,0,1,0,0)" fill="rgb(0,0,0)"/></g><g opacity="0.24"><rect x="390" y="1040" width="40" height="10" transform="matrix(1,0,0,1,0,0)" fill="rgb(0,0,0)"/></g><rect x="370" y="990" width="10" height="70" transform="matrix(1,0,0,1,0,0)" fill="rgb(0,0,0)"/><rect x="380" y="1050" width="70" height="10" transform="matrix(1,0,0,1,0,0)" fill="rgb(0,0,0)"/><rect x="440" y="990" width="10" height="60" transform="matrix(1,0,0,1,0,0)" fill="rgb(0,0,0)"/></g></svg>