<?xml version="1.0" encoding="UTF-8" standalone="no"?><!-- Generator: Gravit.io --><svg xmlns="http://www.w3.org/2000/svg" xmlns:xlink="http://www.w3.org/1999/xlink" style="isolation:isolate" viewBox="1061.241 385 12 12" width="12pt" height="12pt"><g><path d=" M 1064.741 385 C 1063.912 385 1063.241 385.672 1063.241 386.5 C 1063.241 387.328 1063.912 388 1064.741 388 C 1065.569 388 1066.241 387.328 1066.241 386.5 C 1066.241 385.672 1065.569 385 1064.741 385 Z " fill="rgb(255,255,255)"/><path d=" M 1069.741 385 C 1068.912 385 1068.241 385.672 1068.241 386.5 C 1068.241 387.328 1068.912 388 1069.741 388 C 1070.569 388 1071.241 387.328 1071.241 386.5 C 1071.241 385.672 1070.569 385 1069.741 385 Z " fill="rgb(255,255,255)"/><path d=" M 1067.241 389 C 1066.136 389 1065.241 389.895 1065.241 391 C 1065.241 392.105 1066.136 393 1067.241 393 C 1068.345 393 1069.241 392.105 1069.241 391 C 1069.241 389.895 1068.345 389 1067.241 389 Z " fill="rgb(255,255,255)"/><path d=" M 1062.241 390 C 1061.691 390 1061.241 390.45 1061.241 391 C 1061.241 391.55 1061.691 392 1062.241 392 C 1062.791 392 1063.241 391.55 1063.241 391 C 1063.241 390.45 1062.791 390 1062.241 390 Z " fill="rgb(255,255,255)"/><path d=" M 1072.241 390 C 1071.691 390 1071.241 390.45 1071.241 391 C 1071.241 391.55 1071.691 392 1072.241 392 C 1072.791 392 1073.241 391.55 1073.241 391 C 1073.241 390.45 1072.791 390 1072.241 390 Z " fill="rgb(255,255,255)"/><path d=" M 1064.741 394 C 1063.912 394 1063.241 394.672 1063.241 395.5 C 1063.241 396.328 1063.912 397 1064.741 397 C 1065.569 397 1066.241 396.328 1066.241 395.5 C 1066.241 394.672 1065.569 394 1064.741 394 Z " fill="rgb(255,255,255)"/><path d=" M 1069.741 394 C 1068.912 394 1068.241 394.672 1068.241 395.5 C 1068.241 396.328 1068.912 397 1069.741 397 C 1070.569 397 1071.241 396.328 1071.241 395.5 C 1071.241 394.672 1070.569 394 1069.741 394 Z " fill="rgb(255,255,255)"/></g></svg>