<?xml version="1.0" encoding="UTF-8" standalone="no"?><!-- Generator: Gravit.io --><svg xmlns="http://www.w3.org/2000/svg" xmlns:xlink="http://www.w3.org/1999/xlink" style="isolation:isolate" viewBox="273.696 273.696 476.607 476.607" width="476.607pt" height="476.607pt"><g><path d="M 538.662 284.736 L 739.264 485.338 C 753.979 500.053 753.979 523.947 739.264 538.662 L 538.662 739.264 C 523.947 753.979 500.053 753.979 485.338 739.264 L 284.736 538.662 C 270.021 523.947 270.021 500.053 284.736 485.338 L 485.338 284.736 C 500.053 270.021 523.947 270.021 538.662 284.736 Z" style="stroke:none;fill:#535C5E;stroke-miterlimit:10;"/><path d="M 538.662 284.736 L 739.264 485.338 C 753.979 500.053 753.979 523.947 739.264 538.662 L 538.662 739.264 C 523.947 753.979 500.053 753.979 485.338 739.264 L 284.736 538.662 C 270.021 523.947 270.021 500.053 284.736 485.338 L 485.338 284.736 C 500.053 270.021 523.947 270.021 538.662 284.736 Z" style="fill:none;stroke:#000000;stroke-width:30;stroke-linecap:square;stroke-miterlimit:2;"/><path d="M 528.712 435.868 L 588.132 495.288 C 597.356 504.512 597.356 519.488 588.132 528.712 L 528.712 588.132 C 519.488 597.356 504.512 597.356 495.288 588.132 L 435.868 528.712 C 426.644 519.488 426.644 504.512 435.868 495.288 L 495.288 435.868 C 504.512 426.644 519.488 426.644 528.712 435.868 Z" style="stroke:none;fill:#535C5E;stroke-miterlimit:10;"/><path d="M 528.712 435.868 L 588.132 495.288 C 597.356 504.512 597.356 519.488 588.132 528.712 L 528.712 588.132 C 519.488 597.356 504.512 597.356 495.288 588.132 L 435.868 528.712 C 426.644 519.488 426.644 504.512 435.868 495.288 L 495.288 435.868 C 504.512 426.644 519.488 426.644 528.712 435.868 Z" style="fill:none;stroke:#000000;stroke-width:50;stroke-linecap:square;stroke-miterlimit:2;"/></g></svg>