<?xml version="1.0" encoding="UTF-8" standalone="no"?><!-- Generator: Gravit.io --><svg xmlns="http://www.w3.org/2000/svg" xmlns:xlink="http://www.w3.org/1999/xlink" style="isolation:isolate" viewBox="135 437 150 150" width="150pt" height="150pt"><g><g><g opacity="0"><mask id="_mask_18Nlb5Ogphd0e7lcVFgHRytzpTB4cD7P"><rect x="135" y="437" width="150" height="150" fill="white" stroke="none"/></mask><rect x="135" y="437" width="150" height="150" transform="matrix(1,0,0,1,0,0)" fill="none"/><rect x="135" y="437" width="150" height="150" transform="matrix(1,0,0,1,0,0)" fill="none" mask="url(#_mask_18Nlb5Ogphd0e7lcVFgHRytzpTB4cD7P)" vector-effect="non-scaling-stroke" stroke-width="2" stroke="rgb(0,255,68)" stroke-linejoin="miter" stroke-linecap="square" stroke-miterlimit="2"/></g></g><defs><filter id="iY1B9lAqcz5GqHbFqzBg4wyVWncxAdnH" x="-200%" y="-200%" width="400%" height="400%" filterUnits="objectBoundingBox" color-interpolation-filters="sRGB"><feGaussianBlur xmlns="http://www.w3.org/2000/svg" in="SourceGraphic" stdDeviation="0"/><feOffset xmlns="http://www.w3.org/2000/svg" dx="0" dy="10" result="pf_100_offsetBlur"/><feFlood xmlns="http://www.w3.org/2000/svg" flood-color="#0E869B" flood-opacity="1"/><feComposite xmlns="http://www.w3.org/2000/svg" in2="pf_100_offsetBlur" operator="in" result="pf_100_dropShadow"/><feBlend xmlns="http://www.w3.org/2000/svg" in="SourceGraphic" in2="pf_100_dropShadow" mode="normal"/></filter></defs><g filter="url(#iY1B9lAqcz5GqHbFqzBg4wyVWncxAdnH)"><mask id="_mask_WgjobVyXlwxokOmEuRTYFnC03swFqL4C"><path d=" M 205.027 547.943 L 186.32 529.235 L 167.612 510.528 C 164.868 507.783 164.868 503.326 167.612 500.582 L 186.32 481.874 L 205.027 463.167 C 207.772 460.422 212.228 460.422 214.973 463.167 L 233.68 481.874 L 252.388 500.582 C 255.132 503.326 255.132 507.783 252.388 510.528 L 233.68 529.235 L 214.973 547.943 C 212.228 550.687 207.772 550.687 205.027 547.943 Z " fill="white" stroke="none"/></mask><path d=" M 205.027 547.943 L 186.32 529.235 L 167.612 510.528 C 164.868 507.783 164.868 503.326 167.612 500.582 L 186.32 481.874 L 205.027 463.167 C 207.772 460.422 212.228 460.422 214.973 463.167 L 233.68 481.874 L 252.388 500.582 C 255.132 503.326 255.132 507.783 252.388 510.528 L 233.68 529.235 L 214.973 547.943 C 212.228 550.687 207.772 550.687 205.027 547.943 Z " fill="rgb(83,92,94)"/><path d=" M 205.027 547.943 L 186.32 529.235 L 167.612 510.528 C 164.868 507.783 164.868 503.326 167.612 500.582 L 186.32 481.874 L 205.027 463.167 C 207.772 460.422 212.228 460.422 214.973 463.167 L 233.68 481.874 L 252.388 500.582 C 255.132 503.326 255.132 507.783 252.388 510.528 L 233.68 529.235 L 214.973 547.943 C 212.228 550.687 207.772 550.687 205.027 547.943 Z " fill="rgb(83,92,94)" mask="url(#_mask_WgjobVyXlwxokOmEuRTYFnC03swFqL4C)" vector-effect="non-scaling-stroke" stroke-width="20" stroke="rgb(24,220,255)" stroke-linejoin="miter" stroke-linecap="square" stroke-miterlimit="3"/></g><mask id="_mask_nnjKxXgh79gPbtBiqLnsayz0lTfeoBkN"><path d=" M 206.484 519.617 L 201.211 514.344 L 195.937 509.07 C 193.997 507.13 193.997 503.979 195.937 502.039 L 201.211 496.766 L 206.484 491.492 C 208.425 489.552 211.575 489.552 213.516 491.492 L 218.789 496.766 L 224.062 502.039 C 226.003 503.979 226.003 507.13 224.062 509.07 L 218.789 514.344 L 213.516 519.617 C 211.575 521.558 208.425 521.558 206.484 519.617 Z " fill="white" stroke="none"/></mask><path d=" M 206.484 519.617 L 201.211 514.344 L 195.937 509.07 C 193.997 507.13 193.997 503.979 195.937 502.039 L 201.211 496.766 L 206.484 491.492 C 208.425 489.552 211.575 489.552 213.516 491.492 L 218.789 496.766 L 224.062 502.039 C 226.003 503.979 226.003 507.13 224.062 509.07 L 218.789 514.344 L 213.516 519.617 C 211.575 521.558 208.425 521.558 206.484 519.617 Z " fill="rgb(83,92,94)"/><path d=" M 206.484 519.617 L 201.211 514.344 L 195.937 509.07 C 193.997 507.13 193.997 503.979 195.937 502.039 L 201.211 496.766 L 206.484 491.492 C 208.425 489.552 211.575 489.552 213.516 491.492 L 218.789 496.766 L 224.062 502.039 C 226.003 503.979 226.003 507.13 224.062 509.07 L 218.789 514.344 L 213.516 519.617 C 211.575 521.558 208.425 521.558 206.484 519.617 Z " fill="rgb(83,92,94)" mask="url(#_mask_nnjKxXgh79gPbtBiqLnsayz0lTfeoBkN)" vector-effect="non-scaling-stroke" stroke-width="14" stroke="rgb(255,255,255)" stroke-linejoin="miter" stroke-linecap="square" stroke-miterlimit="3"/></g></svg>