<svg height="403pt" viewBox="0 -27 403.24043 403" width="403pt" xmlns="http://www.w3.org/2000/svg"><path d="m327.785156 134.542969c3.921875 3.890625 10.253906 3.863281 14.144532-.058594l58.410156-58.910156c3.878906-3.910157 3.867187-10.21875-.027344-14.109375l-58.414062-58.414063c-3.90625-3.90625-10.238282-3.90625-14.140626 0-3.90625 3.902344-3.90625 10.234375 0 14.140625l41.339844 41.34375h-60.066406c-28.207031.070313-54.769531 13.300782-71.824219 35.769532l-48.488281 64.222656-48.488281-64.222656c-17.054688-22.46875-43.617188-35.699219-71.828125-35.769532h-58.402344c-5.523438 0-10 4.476563-10 10 0 5.523438 4.476562 10 10 10h58.398438c21.941406.054688 42.601562 10.34375 55.867187 27.820313l51.921875 68.765625-51.917969 68.765625c-13.265625 17.476562-33.925781 27.765625-55.867187 27.820312h-58.402344c-5.523438 0-10 4.476563-10 10 0 5.523438 4.476562 10 10 10h58.398438c28.210937-.070312 54.773437-13.300781 71.828124-35.769531l48.492188-64.21875 48.488281 64.222656c17.054688 22.46875 43.617188 35.699219 71.828125 35.769532h60.066406l-41.347656 41.339843c-2.542968 2.523438-3.542968 6.214844-2.621094 9.675781.921876 3.460938 3.625 6.167969 7.089844 7.089844 3.460938.921875 7.152344-.078125 9.675782-2.625l58.410156-58.414062c3.894531-3.894532 3.90625-10.199219.03125-14.109375l-58.414063-58.910157c-2.503906-2.585937-6.207031-3.628906-9.691406-2.722656-3.488281.902344-6.21875 3.609375-7.152344 7.089844-.933593 3.476562.078125 7.1875 2.644531 9.714844l41.515626 41.867187h-60.210938c-21.941406-.054687-42.601562-10.34375-55.867188-27.820312l-51.917968-68.765625 51.917968-68.765625c13.265626-17.476563 33.925782-27.765625 55.867188-27.820313h60.207031l-41.511719 41.867188c-3.890624 3.921875-3.863281 10.253906.058594 14.140625zm0 0"/></svg>