<?xml version="1.0" encoding="UTF-8" standalone="no"?><!-- Generator: Gravit.io --><svg xmlns="http://www.w3.org/2000/svg" xmlns:xlink="http://www.w3.org/1999/xlink" style="isolation:isolate" viewBox="370 1160 80 80" width="80pt" height="80pt"><g><rect x="370" y="1160" width="80" height="10" transform="matrix(1,0,0,1,0,0)" fill="rgb(0,0,0)"/><g opacity="0.24"><rect x="380" y="1170" width="60" height="10" transform="matrix(1,0,0,1,0,0)" fill="rgb(0,0,0)"/></g><rect x="370" y="1170" width="10" height="70" transform="matrix(1,0,0,1,0,0)" fill="rgb(0,0,0)"/><rect x="380" y="1230" width="70" height="10" transform="matrix(1,0,0,1,0,0)" fill="rgb(0,0,0)"/><rect x="440" y="1170" width="10" height="60" transform="matrix(1,0,0,1,0,0)" fill="rgb(0,0,0)"/><g opacity="0.27"><path d=" M 422.433 1199.077 C 421.423 1199.077 420.533 1199.503 419.879 1200.165 C 417.472 1198.475 414.227 1197.387 410.631 1197.271 L 412.499 1188.729 L 418.447 1190.084 C 418.447 1191.561 419.633 1192.768 421.089 1192.768 C 422.573 1192.768 423.767 1191.529 423.767 1190.051 C 423.767 1188.572 422.581 1187.333 421.091 1187.333 C 420.052 1187.333 419.156 1187.969 418.709 1188.839 L 412.14 1187.361 C 411.809 1187.272 411.485 1187.512 411.397 1187.848 L 409.347 1197.264 C 405.779 1197.415 402.568 1198.501 400.153 1200.193 C 399.499 1199.503 398.575 1199.077 397.564 1199.077 C 393.815 1199.077 392.587 1204.183 396.02 1205.928 C 395.899 1206.468 395.844 1207.044 395.844 1207.619 C 395.844 1213.353 402.211 1218 410.028 1218 C 417.879 1218 424.245 1213.353 424.245 1207.619 C 424.245 1207.044 424.185 1206.441 424.037 1205.9 C 427.401 1204.148 426.163 1199.08 422.433 1199.077 Z  M 401.468 1206.291 C 401.468 1204.785 402.655 1203.573 404.145 1203.573 C 405.601 1203.573 406.789 1204.777 406.789 1206.291 C 406.789 1207.769 405.603 1208.975 404.145 1208.975 C 402.661 1208.981 401.468 1207.769 401.468 1206.291 Z  M 415.92 1212.688 C 413.465 1215.179 406.539 1215.179 404.083 1212.688 C 403.812 1212.448 403.812 1212.024 404.083 1211.751 C 404.319 1211.511 404.737 1211.511 404.973 1211.751 C 406.848 1213.701 413.067 1213.735 415.023 1211.751 C 415.259 1211.511 415.677 1211.511 415.913 1211.751 C 416.189 1212.025 416.189 1212.449 415.92 1212.688 Z  M 415.865 1208.98 C 414.409 1208.98 413.223 1207.776 413.223 1206.299 C 413.223 1204.793 414.409 1203.581 415.865 1203.581 C 417.349 1203.581 418.543 1204.785 418.543 1206.299 C 418.536 1207.769 417.349 1208.98 415.865 1208.98 Z " fill="rgb(0,0,0)"/></g><path d=" M 422.433 1196.411 C 421.423 1196.411 420.533 1196.836 419.879 1197.499 C 417.472 1195.808 414.227 1194.72 410.631 1194.604 L 412.499 1186.063 L 418.447 1187.417 C 418.447 1188.895 419.633 1190.101 421.089 1190.101 C 422.573 1190.101 423.767 1188.863 423.767 1187.384 C 423.767 1185.905 422.581 1184.667 421.091 1184.667 C 420.052 1184.667 419.156 1185.303 418.709 1186.172 L 412.14 1184.695 C 411.809 1184.605 411.485 1184.845 411.397 1185.181 L 409.347 1194.597 C 405.779 1194.748 402.568 1195.835 400.153 1197.527 C 399.499 1196.836 398.575 1196.411 397.564 1196.411 C 393.815 1196.411 392.587 1201.516 396.02 1203.261 C 395.899 1203.801 395.844 1204.377 395.844 1204.952 C 395.844 1210.687 402.211 1215.333 410.028 1215.333 C 417.879 1215.333 424.245 1210.687 424.245 1204.952 C 424.245 1204.377 424.185 1203.775 424.037 1203.233 C 427.401 1201.481 426.163 1196.413 422.433 1196.411 Z  M 401.468 1203.624 C 401.468 1202.119 402.655 1200.907 404.145 1200.907 C 405.601 1200.907 406.789 1202.111 406.789 1203.624 C 406.789 1205.103 405.603 1206.308 404.145 1206.308 C 402.661 1206.315 401.468 1205.103 401.468 1203.624 Z  M 415.92 1210.021 C 413.465 1212.512 406.539 1212.512 404.083 1210.021 C 403.812 1209.781 403.812 1209.357 404.083 1209.084 C 404.319 1208.844 404.737 1208.844 404.973 1209.084 C 406.848 1211.035 413.067 1211.068 415.023 1209.084 C 415.259 1208.844 415.677 1208.844 415.913 1209.084 C 416.189 1209.359 416.189 1209.783 415.92 1210.021 Z  M 415.865 1206.313 C 414.409 1206.313 413.223 1205.109 413.223 1203.632 C 413.223 1202.127 414.409 1200.915 415.865 1200.915 C 417.349 1200.915 418.543 1202.119 418.543 1203.632 C 418.536 1205.103 417.349 1206.313 415.865 1206.313 Z " fill="rgb(0,0,0)"/></g></svg>