<?xml version="1.0" encoding="UTF-8" standalone="no"?><!-- Generator: Gravit.io --><svg xmlns="http://www.w3.org/2000/svg" xmlns:xlink="http://www.w3.org/1999/xlink" style="isolation:isolate" viewBox="385 1173.958 50 52.083" width="50pt" height="52.083pt"><g><g opacity="0.27"><path d=" M 429.427 1196.475 C 427.848 1196.475 426.458 1197.14 425.435 1198.175 C 421.675 1195.533 416.604 1193.833 410.985 1193.652 L 413.904 1180.306 L 423.198 1182.423 C 423.198 1184.731 425.052 1186.617 427.327 1186.617 C 429.646 1186.617 431.51 1184.681 431.51 1182.371 C 431.51 1180.06 429.658 1178.125 427.329 1178.125 C 425.706 1178.125 424.306 1179.119 423.608 1180.477 L 413.344 1178.169 C 412.827 1178.029 412.321 1178.404 412.183 1178.929 L 408.979 1193.642 C 403.404 1193.877 398.387 1195.575 394.614 1198.219 C 393.592 1197.14 392.148 1196.475 390.569 1196.475 C 384.71 1196.475 382.792 1204.452 388.156 1207.179 C 387.967 1208.023 387.881 1208.923 387.881 1209.821 C 387.881 1218.781 397.829 1226.042 410.044 1226.042 C 422.31 1226.042 432.258 1218.781 432.258 1209.821 C 432.258 1208.923 432.164 1207.981 431.933 1207.135 C 437.189 1204.398 435.254 1196.479 429.427 1196.475 Z  M 396.669 1207.746 C 396.669 1205.394 398.523 1203.5 400.852 1203.5 C 403.127 1203.5 404.983 1205.381 404.983 1207.746 C 404.983 1210.056 403.129 1211.94 400.852 1211.94 C 398.533 1211.95 396.669 1210.056 396.669 1207.746 Z  M 419.25 1217.742 C 415.414 1221.633 404.592 1221.633 400.754 1217.742 C 400.331 1217.367 400.331 1216.704 400.754 1216.277 C 401.123 1215.902 401.777 1215.902 402.146 1216.277 C 405.075 1219.325 414.792 1219.377 417.848 1216.277 C 418.217 1215.902 418.871 1215.902 419.239 1216.277 C 419.671 1216.706 419.671 1217.369 419.25 1217.742 Z  M 419.164 1211.948 C 416.889 1211.948 415.035 1210.067 415.035 1207.758 C 415.035 1205.406 416.889 1203.513 419.164 1203.513 C 421.483 1203.513 423.348 1205.394 423.348 1207.758 C 423.337 1210.056 421.483 1211.948 419.164 1211.948 Z " fill="rgb(0,0,0)"/></g><path d=" M 429.427 1192.308 C 427.848 1192.308 426.458 1192.973 425.435 1194.008 C 421.675 1191.367 416.604 1189.667 410.985 1189.485 L 413.904 1176.14 L 423.198 1178.256 C 423.198 1180.565 425.052 1182.45 427.327 1182.45 C 429.646 1182.45 431.51 1180.515 431.51 1178.204 C 431.51 1175.894 429.658 1173.958 427.329 1173.958 C 425.706 1173.958 424.306 1174.952 423.608 1176.31 L 413.344 1174.002 C 412.827 1173.863 412.321 1174.238 412.183 1174.763 L 408.979 1189.475 C 403.404 1189.71 398.387 1191.408 394.614 1194.052 C 393.592 1192.973 392.148 1192.308 390.569 1192.308 C 384.71 1192.308 382.792 1200.285 388.156 1203.012 C 387.967 1203.856 387.881 1204.756 387.881 1205.654 C 387.881 1214.615 397.829 1221.875 410.044 1221.875 C 422.31 1221.875 432.258 1214.615 432.258 1205.654 C 432.258 1204.756 432.164 1203.815 431.933 1202.969 C 437.189 1200.231 435.254 1192.312 429.427 1192.308 Z  M 396.669 1203.579 C 396.669 1201.227 398.523 1199.333 400.852 1199.333 C 403.127 1199.333 404.983 1201.215 404.983 1203.579 C 404.983 1205.89 403.129 1207.773 400.852 1207.773 C 398.533 1207.783 396.669 1205.89 396.669 1203.579 Z  M 419.25 1213.575 C 415.414 1217.467 404.592 1217.467 400.754 1213.575 C 400.331 1213.2 400.331 1212.537 400.754 1212.11 C 401.123 1211.735 401.777 1211.735 402.146 1212.11 C 405.075 1215.158 414.792 1215.21 417.848 1212.11 C 418.217 1211.735 418.871 1211.735 419.239 1212.11 C 419.671 1212.54 419.671 1213.202 419.25 1213.575 Z  M 419.164 1207.781 C 416.889 1207.781 415.035 1205.9 415.035 1203.592 C 415.035 1201.24 416.889 1199.346 419.164 1199.346 C 421.483 1199.346 423.348 1201.227 423.348 1203.592 C 423.337 1205.89 421.483 1207.781 419.164 1207.781 Z " fill="rgb(0,0,0)"/></g></svg>