<?xml version="1.0" encoding="UTF-8" standalone="no"?><!-- Generator: Gravit.io --><svg xmlns="http://www.w3.org/2000/svg" xmlns:xlink="http://www.w3.org/1999/xlink" style="isolation:isolate" viewBox="1056.482 356.259 21.518 21.518" width="21.518pt" height="21.518pt"><g><rect x="1056.482" y="356.259" width="21.518" height="21.518" transform="matrix(1,0,0,1,0,0)" fill="rgb(15,15,15)"/><path d=" M 1064.367 360.143 C 1064.287 360.142 1064.209 360.174 1064.152 360.231 C 1063.922 360.45 1063.535 360.888 1063.216 361.265 C 1063.16 361.33 1063.137 361.417 1063.154 361.501 C 1063.171 361.585 1063.227 361.657 1063.303 361.695 C 1063.783 361.94 1064.689 362.503 1065.46 363.539 C 1065.563 363.677 1065.539 363.876 1065.402 363.978 C 1065.348 364.017 1065.283 364.038 1065.216 364.037 C 1065.121 364.037 1065.023 363.993 1064.963 363.91 C 1064.224 362.917 1063.287 362.39 1062.796 362.163 C 1062.773 362.152 1062.752 362.15 1062.728 362.143 C 1062.404 362.359 1062.091 362.59 1061.791 362.836 C 1061.337 363.36 1060.867 363.974 1060.542 364.72 C 1060.485 364.848 1060.531 364.995 1060.639 365.081 C 1061.342 365.472 1062.306 366.03 1062.884 366.545 C 1061.598 366.833 1060.565 367.987 1059.79 369.111 C 1059.745 369.178 1059.71 369.236 1059.673 369.287 C 1059.589 369.403 1059.587 369.556 1059.663 369.677 C 1059.98 370.175 1060.778 371.441 1060.786 371.453 C 1060.837 371.537 1060.921 371.591 1061.02 371.599 C 1061.077 371.605 1061.134 371.595 1061.186 371.57 C 1061.531 371.219 1061.992 370.77 1062.328 370.545 C 1062.168 371.003 1062.191 371.882 1062.191 371.882 L 1062.201 372.097 C 1062.242 372.177 1062.317 372.234 1062.406 372.253 L 1063.84 372.585 C 1063.855 372.589 1063.865 372.584 1063.879 372.585 C 1064.34 373.013 1065.086 373.395 1066.299 373.522 C 1066.538 373.759 1066.861 373.893 1067.197 373.893 C 1067.533 373.893 1067.855 373.759 1068.095 373.522 C 1069.316 373.399 1070.064 373.018 1070.525 372.585 C 1070.563 372.585 1070.605 372.58 1070.642 372.566 L 1071.95 372.049 C 1072.069 372 1072.146 371.884 1072.145 371.756 C 1072.113 371.382 1072.048 370.782 1071.881 370.321 C 1072.166 370.425 1072.73 370.801 1073.15 371.092 C 1073.163 371.097 1073.17 371.094 1073.179 371.102 C 1073.313 371.2 1073.5 371.179 1073.609 371.053 C 1073.615 371.046 1074.264 370.258 1074.692 369.736 C 1074.829 369.57 1074.814 369.321 1074.653 369.179 C 1074.493 369.039 1074.331 368.902 1074.165 368.77 C 1073.311 368.146 1072.516 367.823 1072.516 367.823 L 1074.175 367.803 C 1074.255 367.797 1074.329 367.758 1074.38 367.696 C 1074.439 367.626 1074.464 367.533 1074.448 367.442 L 1074.243 366.496 C 1074.222 366.386 1074.138 366.299 1074.038 366.261 C 1073.413 366.266 1072.37 366.275 1071.92 366.291 C 1072.278 365.98 1072.966 365.552 1073.462 365.256 C 1073.465 365.251 1073.472 365.246 1073.472 365.246 C 1073.546 365.208 1073.603 365.141 1073.628 365.061 C 1073.65 364.979 1073.64 364.892 1073.599 364.817 C 1073.327 364.32 1072.328 362.335 1071.764 361.968 C 1071.687 361.916 1071.59 361.901 1071.501 361.929 C 1070.004 362.508 1069.654 363.279 1069.344 363.568 C 1069.583 363.018 1069.96 362.29 1070.223 361.782 L 1070.213 361.772 C 1070.268 361.666 1070.254 361.537 1070.184 361.441 C 1070.125 361.361 1069.822 360.893 1069.452 360.621 C 1069.349 360.544 1069.21 360.536 1069.1 360.601 C 1068.842 360.762 1068.274 361.439 1068.124 362.143 C 1068.127 361.816 1068.144 360.616 1068.144 360.611 C 1068.15 360.439 1068.023 360.295 1067.851 360.289 L 1066.631 360.211 C 1066.538 360.208 1066.448 360.247 1066.387 360.318 C 1066.358 360.352 1066.331 360.394 1066.319 360.436 L 1066.709 362.563 C 1066.709 362.563 1065.927 360.936 1064.621 360.211 C 1064.56 360.188 1064.508 360.167 1064.455 360.153 C 1064.426 360.146 1064.397 360.143 1064.367 360.143 L 1064.367 360.143 Z  M 1067.246 364.837 C 1068.49 364.851 1069.394 365.405 1069.695 365.617 C 1069.702 366.492 1069.768 367.301 1069.9 368.096 C 1069.927 368.258 1070.079 368.373 1070.242 368.36 C 1070.245 368.36 1070.287 368.35 1070.29 368.35 C 1070.567 368.35 1070.798 368.58 1070.798 368.857 C 1070.798 369.067 1070.658 369.254 1070.456 369.326 C 1070.301 369.381 1070.215 369.548 1070.261 369.706 C 1070.323 369.919 1070.388 370.13 1070.456 370.341 C 1070.549 370.629 1070.632 370.875 1070.632 370.985 C 1070.632 371.382 1070.437 372.703 1067.919 372.917 C 1067.836 372.922 1067.758 372.961 1067.704 373.024 C 1067.446 373.334 1066.945 373.335 1066.689 373.024 C 1066.636 372.959 1066.559 372.916 1066.475 372.907 C 1063.895 372.678 1063.762 371.265 1063.762 370.985 C 1063.762 370.81 1063.868 370.447 1063.987 370.028 L 1064.084 369.687 C 1064.126 369.537 1064.043 369.378 1063.899 369.316 C 1063.715 369.238 1063.596 369.057 1063.596 368.857 C 1063.596 368.58 1063.827 368.351 1064.084 368.35 C 1064.093 368.351 1064.115 368.358 1064.123 368.36 C 1064.287 368.366 1064.426 368.261 1064.455 368.106 C 1064.606 367.29 1064.687 366.49 1064.699 365.686 C 1065.126 365.549 1066.124 365.23 1067.246 364.837 L 1067.246 364.837 Z  M 1066.514 366.418 C 1066.504 366.42 1066.494 366.424 1066.485 366.427 C 1066.457 366.433 1066.431 366.443 1066.407 366.457 L 1065.099 367.11 C 1064.994 367.158 1064.925 367.259 1064.917 367.374 C 1064.91 367.488 1064.966 367.597 1065.062 367.658 C 1065.159 367.719 1065.282 367.722 1065.382 367.667 L 1066.689 367.013 C 1066.836 366.951 1066.912 366.789 1066.867 366.637 C 1066.822 366.484 1066.67 366.39 1066.514 366.418 L 1066.514 366.418 Z  M 1067.802 366.749 C 1067.651 366.768 1067.536 366.893 1067.529 367.045 C 1067.521 367.196 1067.624 367.331 1067.772 367.364 L 1069.08 367.696 C 1069.192 367.733 1069.315 367.704 1069.398 367.621 C 1069.482 367.538 1069.512 367.415 1069.476 367.303 C 1069.439 367.191 1069.343 367.109 1069.227 367.091 L 1067.929 366.759 C 1067.888 366.747 1067.844 366.744 1067.802 366.749 L 1067.802 366.749 Z  M 1065.86 368.311 C 1065.657 368.311 1065.489 368.469 1065.489 368.672 C 1065.489 368.875 1065.658 369.043 1065.86 369.043 C 1066.062 369.043 1066.221 368.874 1066.221 368.672 C 1066.221 368.469 1066.062 368.311 1065.86 368.311 L 1065.86 368.311 Z  M 1068.417 368.311 C 1068.214 368.311 1068.056 368.469 1068.056 368.672 C 1068.056 368.875 1068.214 369.043 1068.417 369.043 C 1068.619 369.043 1068.788 368.874 1068.788 368.672 C 1068.788 368.469 1068.619 368.311 1068.417 368.311 Z  M 1066.221 369.999 C 1064.716 370.366 1064.591 371.629 1064.591 371.629 L 1069.803 371.629 C 1069.803 371.629 1069.821 370.433 1068.173 369.999 C 1068.173 369.999 1067.839 370.643 1067.197 370.643 C 1066.555 370.643 1066.221 369.999 1066.221 369.999 Z " fill="rgb(255,255,255)"/></g></svg>