<?xml version="1.0" encoding="UTF-8" standalone="no"?><!-- Generator: Gravit.io --><svg xmlns="http://www.w3.org/2000/svg" xmlns:xlink="http://www.w3.org/1999/xlink" style="isolation:isolate" viewBox="566.484 1175 47.031 50" width="47.031pt" height="50pt"><g><g style="opacity:0.27;"><path d=" M 606.628 1184.833 C 602.187 1180.389 596.281 1177.941 590 1177.941 C 583.719 1177.941 577.813 1180.389 573.372 1184.833 C 568.93 1189.277 566.484 1195.186 566.484 1201.471 C 566.484 1207.756 568.93 1213.664 573.372 1218.108 C 577.813 1222.552 583.719 1225 590 1225 C 596.281 1225 602.187 1222.552 606.628 1218.108 C 611.07 1213.664 613.516 1207.756 613.516 1201.471 C 613.516 1195.186 611.07 1189.277 606.628 1184.833 L 606.628 1184.833 Z  M 590 1222.243 C 578.553 1222.243 569.24 1212.924 569.24 1201.471 C 569.24 1190.017 578.553 1180.699 590 1180.699 C 601.447 1180.699 610.76 1190.017 610.76 1201.471 C 610.76 1212.924 601.447 1222.243 590 1222.243 L 590 1222.243 Z " fill="rgb(0,0,0)"/><path d=" M 597.349 1197.335 C 600.134 1197.335 602.401 1195.067 602.401 1192.279 C 602.401 1189.492 600.134 1187.224 597.349 1187.224 C 594.563 1187.224 592.296 1189.492 592.296 1192.279 C 592.296 1192.677 592.344 1193.064 592.431 1193.436 L 584.392 1197.905 C 583.476 1196.985 582.211 1196.415 580.814 1196.415 C 578.028 1196.415 575.762 1198.683 575.762 1201.471 C 575.762 1204.258 578.028 1206.526 580.814 1206.526 C 582.211 1206.526 583.476 1205.956 584.392 1205.036 L 592.431 1209.505 C 592.344 1209.877 592.296 1210.264 592.296 1210.662 C 592.296 1213.449 594.563 1215.717 597.349 1215.717 C 600.134 1215.717 602.401 1213.449 602.401 1210.662 C 602.401 1207.874 600.134 1205.607 597.349 1205.607 C 595.952 1205.607 594.686 1206.177 593.771 1207.096 L 585.731 1202.627 C 585.819 1202.255 585.866 1201.869 585.866 1201.471 C 585.866 1201.073 585.819 1200.686 585.731 1200.314 L 593.771 1195.845 C 594.686 1196.765 595.952 1197.335 597.349 1197.335 L 597.349 1197.335 Z  M 597.349 1208.364 C 598.615 1208.364 599.645 1209.395 599.645 1210.662 C 599.645 1211.929 598.615 1212.96 597.349 1212.96 C 596.082 1212.96 595.052 1211.929 595.052 1210.662 C 595.052 1209.395 596.082 1208.364 597.349 1208.364 Z  M 580.814 1203.768 C 579.548 1203.768 578.518 1202.738 578.518 1201.471 C 578.518 1200.204 579.548 1199.173 580.814 1199.173 C 582.08 1199.173 583.111 1200.204 583.111 1201.471 C 583.111 1202.738 582.08 1203.768 580.814 1203.768 Z  M 597.349 1189.982 C 598.615 1189.982 599.645 1191.012 599.645 1192.279 C 599.645 1193.546 598.615 1194.577 597.349 1194.577 C 596.082 1194.577 595.052 1193.546 595.052 1192.279 C 595.052 1191.012 596.082 1189.982 597.349 1189.982 Z " fill="rgb(0,0,0)"/></g><g><path d=" M 606.628 1181.892 C 602.187 1177.448 596.281 1175 590 1175 C 583.719 1175 577.813 1177.448 573.372 1181.892 C 568.93 1186.336 566.484 1192.244 566.484 1198.529 C 566.484 1204.814 568.93 1210.723 573.372 1215.167 C 577.813 1219.611 583.719 1222.059 590 1222.059 C 596.281 1222.059 602.187 1219.611 606.628 1215.167 C 611.07 1210.723 613.516 1204.814 613.516 1198.529 C 613.516 1192.244 611.07 1186.336 606.628 1181.892 L 606.628 1181.892 Z  M 590 1219.301 C 578.553 1219.301 569.24 1209.983 569.24 1198.529 C 569.24 1187.076 578.553 1177.757 590 1177.757 C 601.447 1177.757 610.76 1187.076 610.76 1198.529 C 610.76 1209.983 601.447 1219.301 590 1219.301 L 590 1219.301 Z " fill="rgb(0,0,0)"/><path d=" M 597.349 1194.393 C 600.134 1194.393 602.401 1192.126 602.401 1189.338 C 602.401 1186.551 600.134 1184.283 597.349 1184.283 C 594.563 1184.283 592.296 1186.551 592.296 1189.338 C 592.296 1189.736 592.344 1190.123 592.431 1190.495 L 584.392 1194.964 C 583.476 1194.044 582.211 1193.474 580.814 1193.474 C 578.028 1193.474 575.762 1195.742 575.762 1198.529 C 575.762 1201.317 578.028 1203.585 580.814 1203.585 C 582.211 1203.585 583.476 1203.015 584.392 1202.095 L 592.431 1206.564 C 592.344 1206.936 592.296 1207.323 592.296 1207.721 C 592.296 1210.508 594.563 1212.776 597.349 1212.776 C 600.134 1212.776 602.401 1210.508 602.401 1207.721 C 602.401 1204.933 600.134 1202.665 597.349 1202.665 C 595.952 1202.665 594.686 1203.235 593.771 1204.155 L 585.731 1199.686 C 585.819 1199.314 585.866 1198.927 585.866 1198.529 C 585.866 1198.131 585.819 1197.745 585.731 1197.373 L 593.771 1192.904 C 594.686 1193.823 595.952 1194.393 597.349 1194.393 L 597.349 1194.393 Z  M 597.349 1205.423 C 598.615 1205.423 599.645 1206.454 599.645 1207.721 C 599.645 1208.988 598.615 1210.018 597.349 1210.018 C 596.082 1210.018 595.052 1208.988 595.052 1207.721 C 595.052 1206.454 596.082 1205.423 597.349 1205.423 Z  M 580.814 1200.827 C 579.548 1200.827 578.518 1199.796 578.518 1198.529 C 578.518 1197.262 579.548 1196.232 580.814 1196.232 C 582.08 1196.232 583.111 1197.262 583.111 1198.529 C 583.111 1199.796 582.08 1200.827 580.814 1200.827 Z  M 597.349 1187.04 C 598.615 1187.04 599.645 1188.071 599.645 1189.338 C 599.645 1190.605 598.615 1191.636 597.349 1191.636 C 596.082 1191.636 595.052 1190.605 595.052 1189.338 C 595.052 1188.071 596.082 1187.04 597.349 1187.04 Z " fill="rgb(0,0,0)"/></g></g></svg>