<?xml version="1.0" encoding="UTF-8" standalone="no"?><!-- Generator: Gravit.io --><svg xmlns="http://www.w3.org/2000/svg" xmlns:xlink="http://www.w3.org/1999/xlink" style="isolation:isolate" viewBox="550 1160 80 80" width="80pt" height="80pt"><g><rect x="550" y="1160" width="80" height="10" transform="matrix(1,0,0,1,0,0)" fill="rgb(0,0,0)"/><g opacity="0.24"><rect x="560" y="1170" width="60" height="10" transform="matrix(1,0,0,1,0,0)" fill="rgb(0,0,0)"/></g><rect x="550" y="1170" width="10" height="70" transform="matrix(1,0,0,1,0,0)" fill="rgb(0,0,0)"/><rect x="560" y="1230" width="70" height="10" transform="matrix(1,0,0,1,0,0)" fill="rgb(0,0,0)"/><rect x="620" y="1170" width="10" height="60" transform="matrix(1,0,0,1,0,0)" fill="rgb(0,0,0)"/><g style="opacity:0.27;"><path d=" M 600.642 1190.293 C 597.799 1187.449 594.02 1185.882 590 1185.882 C 585.98 1185.882 582.201 1187.449 579.358 1190.293 C 576.515 1193.137 574.95 1196.919 574.95 1200.941 C 574.95 1204.964 576.515 1208.745 579.358 1211.589 C 582.201 1214.434 585.98 1216 590 1216 C 594.02 1216 597.799 1214.434 600.642 1211.589 C 603.485 1208.745 605.05 1204.964 605.05 1200.941 C 605.05 1196.919 603.485 1193.137 600.642 1190.293 L 600.642 1190.293 Z  M 590 1214.235 C 582.674 1214.235 576.714 1208.272 576.714 1200.941 C 576.714 1193.611 582.674 1187.647 590 1187.647 C 597.326 1187.647 603.286 1193.611 603.286 1200.941 C 603.286 1208.272 597.326 1214.235 590 1214.235 L 590 1214.235 Z " fill="rgb(0,0,0)"/><path d=" M 594.703 1198.294 C 596.486 1198.294 597.937 1196.843 597.937 1195.059 C 597.937 1193.275 596.486 1191.824 594.703 1191.824 C 592.92 1191.824 591.47 1193.275 591.47 1195.059 C 591.47 1195.313 591.5 1195.561 591.556 1195.799 L 586.411 1198.659 C 585.825 1198.071 585.015 1197.706 584.121 1197.706 C 582.338 1197.706 580.888 1199.157 580.888 1200.941 C 580.888 1202.725 582.338 1204.176 584.121 1204.176 C 585.015 1204.176 585.825 1203.812 586.411 1203.223 L 591.556 1206.083 C 591.5 1206.321 591.47 1206.569 591.47 1206.824 C 591.47 1208.607 592.92 1210.059 594.703 1210.059 C 596.486 1210.059 597.937 1208.607 597.937 1206.824 C 597.937 1205.04 596.486 1203.588 594.703 1203.588 C 593.809 1203.588 592.999 1203.953 592.414 1204.541 L 587.268 1201.681 C 587.324 1201.443 587.354 1201.196 587.354 1200.941 C 587.354 1200.686 587.324 1200.439 587.268 1200.201 L 592.414 1197.341 C 592.999 1197.929 593.809 1198.294 594.703 1198.294 L 594.703 1198.294 Z  M 594.703 1205.353 C 595.514 1205.353 596.173 1206.013 596.173 1206.824 C 596.173 1207.634 595.514 1208.294 594.703 1208.294 C 593.893 1208.294 593.233 1207.634 593.233 1206.824 C 593.233 1206.013 593.893 1205.353 594.703 1205.353 Z  M 584.121 1202.412 C 583.311 1202.412 582.651 1201.752 582.651 1200.941 C 582.651 1200.13 583.311 1199.471 584.121 1199.471 C 584.932 1199.471 585.591 1200.13 585.591 1200.941 C 585.591 1201.752 584.932 1202.412 584.121 1202.412 Z  M 594.703 1193.588 C 595.514 1193.588 596.173 1194.248 596.173 1195.059 C 596.173 1195.87 595.514 1196.529 594.703 1196.529 C 593.893 1196.529 593.233 1195.87 593.233 1195.059 C 593.233 1194.248 593.893 1193.588 594.703 1193.588 Z " fill="rgb(0,0,0)"/></g><g><path d=" M 600.642 1188.411 C 597.799 1185.566 594.02 1184 590 1184 C 585.98 1184 582.201 1185.566 579.358 1188.411 C 576.515 1191.255 574.95 1195.036 574.95 1199.059 C 574.95 1203.081 576.515 1206.863 579.358 1209.707 C 582.201 1212.551 585.98 1214.118 590 1214.118 C 594.02 1214.118 597.799 1212.551 600.642 1209.707 C 603.485 1206.863 605.05 1203.081 605.05 1199.059 C 605.05 1195.036 603.485 1191.255 600.642 1188.411 L 600.642 1188.411 Z  M 590 1212.353 C 582.674 1212.353 576.714 1206.389 576.714 1199.059 C 576.714 1191.728 582.674 1185.765 590 1185.765 C 597.326 1185.765 603.286 1191.728 603.286 1199.059 C 603.286 1206.389 597.326 1212.353 590 1212.353 L 590 1212.353 Z " fill="rgb(0,0,0)"/><path d=" M 594.703 1196.412 C 596.486 1196.412 597.937 1194.96 597.937 1193.176 C 597.937 1191.393 596.486 1189.941 594.703 1189.941 C 592.92 1189.941 591.47 1191.393 591.47 1193.176 C 591.47 1193.431 591.5 1193.679 591.556 1193.917 L 586.411 1196.777 C 585.825 1196.188 585.015 1195.824 584.121 1195.824 C 582.338 1195.824 580.888 1197.275 580.888 1199.059 C 580.888 1200.843 582.338 1202.294 584.121 1202.294 C 585.015 1202.294 585.825 1201.929 586.411 1201.341 L 591.556 1204.201 C 591.5 1204.439 591.47 1204.687 591.47 1204.941 C 591.47 1206.725 592.92 1208.176 594.703 1208.176 C 596.486 1208.176 597.937 1206.725 597.937 1204.941 C 597.937 1203.157 596.486 1201.706 594.703 1201.706 C 593.809 1201.706 592.999 1202.071 592.414 1202.659 L 587.268 1199.799 C 587.324 1199.561 587.354 1199.314 587.354 1199.059 C 587.354 1198.804 587.324 1198.557 587.268 1198.319 L 592.414 1195.459 C 592.999 1196.047 593.809 1196.412 594.703 1196.412 L 594.703 1196.412 Z  M 594.703 1203.471 C 595.514 1203.471 596.173 1204.13 596.173 1204.941 C 596.173 1205.752 595.514 1206.412 594.703 1206.412 C 593.893 1206.412 593.233 1205.752 593.233 1204.941 C 593.233 1204.13 593.893 1203.471 594.703 1203.471 Z  M 584.121 1200.529 C 583.311 1200.529 582.651 1199.87 582.651 1199.059 C 582.651 1198.248 583.311 1197.588 584.121 1197.588 C 584.932 1197.588 585.591 1198.248 585.591 1199.059 C 585.591 1199.87 584.932 1200.529 584.121 1200.529 Z  M 594.703 1191.706 C 595.514 1191.706 596.173 1192.366 596.173 1193.176 C 596.173 1193.987 595.514 1194.647 594.703 1194.647 C 593.893 1194.647 593.233 1193.987 593.233 1193.176 C 593.233 1192.366 593.893 1191.706 594.703 1191.706 Z " fill="rgb(0,0,0)"/></g></g></svg>