<?xml version="1.0" encoding="UTF-8" standalone="no"?><!-- Generator: Gravit.io --><svg xmlns="http://www.w3.org/2000/svg" xmlns:xlink="http://www.w3.org/1999/xlink" style="isolation:isolate" viewBox="763 610 50 59.535" width="50pt" height="59.535pt"><g><circle vector-effect="non-scaling-stroke" cx="767.6511627906978" cy="623.2558139534884" r="1.7441860465115724" fill="rgb(0,0,0)"/><circle vector-effect="non-scaling-stroke" cx="767.6511627906978" cy="616.2790697674419" r="1.7441860465115724" fill="rgb(0,0,0)"/><circle vector-effect="non-scaling-stroke" cx="808.3488372093025" cy="623.2558139534884" r="1.7441860465115724" fill="rgb(0,0,0)"/><circle vector-effect="non-scaling-stroke" cx="808.3488372093025" cy="616.2790697674419" r="1.7441860465115724" fill="rgb(0,0,0)"/><path d=" M 782.671 622.714 C 784.359 623.537 786.152 623.953 788 623.953 C 789.848 623.953 791.641 623.537 793.329 622.714 L 795.404 621.704 C 795.169 620.545 794.904 619.445 794.61 618.417 C 793.015 612.832 790.791 610 788 610 C 785.209 610 782.985 612.832 781.39 618.417 C 781.096 619.445 780.831 620.545 780.596 621.704 L 782.671 622.714 Z " fill="rgb(0,0,0)"/><path d=" M 796.681 638.69 C 796.708 637.823 796.721 636.987 796.721 636.163 C 796.721 632.342 796.475 628.645 796.011 625.289 L 794.857 625.851 C 792.688 626.907 790.381 627.442 788 627.442 C 785.619 627.442 783.312 626.907 781.144 625.851 L 779.989 625.289 C 779.525 628.645 779.279 632.342 779.279 636.163 C 779.279 636.987 779.292 637.823 779.319 638.69 L 775.791 639.749 L 775.791 650.116 L 778.68 650.116 L 780.567 654.834 C 780.832 655.496 781.473 655.93 782.186 655.93 L 793.814 655.93 C 794.527 655.93 795.168 655.496 795.433 654.834 L 797.32 650.116 L 800.209 650.116 L 800.209 639.749 L 796.681 638.69 Z  M 789.744 639.651 C 789.744 640.614 788.963 641.395 788 641.395 C 787.037 641.395 786.256 640.614 786.256 639.651 L 786.256 632.674 C 786.256 631.711 787.037 630.93 788 630.93 C 788.963 630.93 789.744 631.711 789.744 632.674 L 789.744 639.651 Z " fill="rgb(0,0,0)"/><g><path d=" M 781.991 659.419 C 783.146 664.743 786.503 668.724 786.674 668.924 C 787.006 669.312 787.49 669.535 788 669.535 C 788.51 669.535 788.994 669.312 789.325 668.924 C 789.497 668.724 792.854 664.743 794.009 659.419 L 781.991 659.419 Z " fill="rgb(0,0,0)"/></g><path d=" M 813 647.209 L 813 638.378 C 813 635.043 811.824 631.795 809.689 629.232 C 809.357 628.835 808.866 628.605 808.349 628.605 C 807.831 628.605 807.34 628.835 807.009 629.232 C 804.874 631.795 803.698 635.043 803.698 638.378 L 803.698 647.209 L 813 647.209 Z " fill="rgb(0,0,0)"/><path d=" M 803.698 650.698 L 803.698 654.186 C 803.698 655.149 804.479 655.93 805.442 655.93 L 811.256 655.93 C 812.219 655.93 813 655.149 813 654.186 L 813 650.698 L 803.698 650.698 Z " fill="rgb(0,0,0)"/><path d=" M 772.302 647.209 L 772.302 638.378 C 772.302 635.043 771.126 631.795 768.991 629.232 C 768.66 628.835 768.169 628.605 767.651 628.605 C 767.133 628.605 766.643 628.835 766.311 629.232 C 764.176 631.795 763 635.043 763 638.378 L 763 647.209 L 772.302 647.209 Z " fill="rgb(0,0,0)"/><path d=" M 763 650.698 L 763 654.186 C 763 655.149 763.781 655.93 764.744 655.93 L 770.558 655.93 C 771.521 655.93 772.302 655.149 772.302 654.186 L 772.302 650.698 L 763 650.698 Z " fill="rgb(0,0,0)"/></g></svg>