<?xml version="1.0" encoding="iso-8859-1"?>
<!-- Generator: Adobe Illustrator 19.0.0, SVG Export Plug-In . SVG Version: 6.00 Build 0)  -->
<svg version="1.1" id="Capa_1" xmlns="http://www.w3.org/2000/svg" xmlns:xlink="http://www.w3.org/1999/xlink" x="0px" y="0px"
	 viewBox="0 0 512 512" style="enable-background:new 0 0 512 512;" xml:space="preserve">
<g>
	<g>
		<path d="M222.041,360.49V512h67.918V360.49H222.041z M274.286,496.327h-36.571V376.163h36.571V496.327z"/>
	</g>
</g>
<g>
	<g>
		<path d="M278.395,115.984h-44.793l-23.31,151.51h91.412L278.395,115.984z M247.049,131.657h17.9l18.486,120.163h-54.873
			L247.049,131.657z"/>
	</g>
</g>
<g>
	<g>
		<path d="M467.592,242.939v89.121L367.22,259.234L309.299,0H202.701l-57.922,259.235L44.408,332.06v-89.121H28.735v100.494v3.996
			v133.224h161.959v23.51h15.673V368.327h-15.673v65.306H44.408v-82.208l114.376-82.986l56.475-252.765h81.483l56.475,252.765
			l114.376,82.986v82.208H321.306v-65.306h-15.674v135.837h15.674v-23.51h161.959V347.429v-3.996V242.939H467.592z M190.694,449.306
			v15.674H44.408v-15.674H190.694z M467.592,464.98H321.306v-15.674h146.286V464.98z"/>
	</g>
</g>
<g>
</g>
<g>
</g>
<g>
</g>
<g>
</g>
<g>
</g>
<g>
</g>
<g>
</g>
<g>
</g>
<g>
</g>
<g>
</g>
<g>
</g>
<g>
</g>
<g>
</g>
<g>
</g>
<g>
</g>
</svg>
