<?xml version="1.0" encoding="UTF-8" standalone="no"?><!-- Generator: Gravit.io --><svg xmlns="http://www.w3.org/2000/svg" xmlns:xlink="http://www.w3.org/1999/xlink" style="isolation:isolate" viewBox="1070 280 80 80" width="80pt" height="80pt"><g><rect x="1070" y="280" width="10" height="10" transform="matrix(1,0,0,1,0,0)" fill="rgb(7,254,106)"/><rect x="1080" y="280" width="10" height="10" transform="matrix(1,0,0,1,0,0)" fill="rgb(7,254,106)"/><g opacity="0.24"><rect x="1080" y="290" width="10" height="10" transform="matrix(1,0,0,1,0,0)" fill="rgb(7,254,106)"/></g><g opacity="0.34"><rect x="1090" y="340" width="10" height="10" transform="matrix(1,0,0,1,0,0)" fill="rgb(7,254,106)"/></g><g opacity="0.34"><rect x="1120" y="340" width="10" height="10" transform="matrix(1,0,0,1,0,0)" fill="rgb(7,254,106)"/></g><g opacity="0.24"><rect x="1105" y="335" width="10" height="10" transform="matrix(1,0,0,1,0,0)" fill="rgb(7,254,106)"/></g><g opacity="0.34"><rect x="1110" y="330" width="10" height="10" transform="matrix(1,0,0,1,0,0)" fill="rgb(7,254,106)"/></g><g opacity="0.34"><rect x="1100" y="330" width="10" height="10" transform="matrix(1,0,0,1,0,0)" fill="rgb(7,254,106)"/></g><g opacity="0.24"><rect x="1090" y="290" width="10" height="10" transform="matrix(1,0,0,1,0,0)" fill="rgb(7,254,106)"/></g><g opacity="0.24"><rect x="1100" y="290" width="10" height="10" transform="matrix(1,0,0,1,0,0)" fill="rgb(7,254,106)"/></g><g opacity="0.24"><rect x="1110" y="290" width="10" height="10" transform="matrix(1,0,0,1,0,0)" fill="rgb(7,254,106)"/></g><g opacity="0.24"><rect x="1120" y="290" width="10" height="10" transform="matrix(1,0,0,1,0,0)" fill="rgb(7,254,106)"/></g><g opacity="0.24"><rect x="1130" y="290" width="10" height="10" transform="matrix(1,0,0,1,0,0)" fill="rgb(7,254,106)"/></g><rect x="1090" y="320" width="10" height="10" transform="matrix(1,0,0,1,0,0)" fill="rgb(7,254,106)"/><rect x="1100" y="320" width="10" height="10" transform="matrix(1,0,0,1,0,0)" fill="rgb(7,254,106)"/><rect x="1105" y="325" width="10" height="10" transform="matrix(1,0,0,1,0,0)" fill="rgb(7,254,106)"/><rect x="1110" y="320" width="10" height="10" transform="matrix(1,0,0,1,0,0)" fill="rgb(7,254,106)"/><rect x="1120" y="320" width="10" height="10" transform="matrix(1,0,0,1,0,0)" fill="rgb(7,254,106)"/><rect x="1100" y="310" width="10" height="10" transform="matrix(1,0,0,1,0,0)" fill="rgb(7,254,106)"/><rect x="1110" y="310" width="10" height="10" transform="matrix(1,0,0,1,0,0)" fill="rgb(7,254,106)"/><rect x="1105" y="305" width="10" height="10" transform="matrix(1,0,0,1,0,0)" fill="rgb(7,254,106)"/><rect x="1120" y="330" width="10" height="10" transform="matrix(1,0,0,1,0,0)" fill="rgb(7,254,106)"/><rect x="1090" y="330" width="10" height="10" transform="matrix(1,0,0,1,0,0)" fill="rgb(7,254,106)"/><rect x="1090" y="280" width="10" height="10" transform="matrix(1,0,0,1,0,0)" fill="rgb(7,254,106)"/><rect x="1100" y="280" width="10" height="10" transform="matrix(1,0,0,1,0,0)" fill="rgb(7,254,106)"/><rect x="1110" y="280" width="10" height="10" transform="matrix(1,0,0,1,0,0)" fill="rgb(7,254,106)"/><rect x="1120" y="280" width="10" height="10" transform="matrix(1,0,0,1,0,0)" fill="rgb(7,254,106)"/><rect x="1130" y="280" width="10" height="10" transform="matrix(1,0,0,1,0,0)" fill="rgb(7,254,106)"/><rect x="1070" y="290" width="10" height="10" transform="matrix(1,0,0,1,0,0)" fill="rgb(7,254,106)"/><rect x="1070" y="300" width="10" height="10" transform="matrix(1,0,0,1,0,0)" fill="rgb(7,254,106)"/><rect x="1070" y="310" width="10" height="10" transform="matrix(1,0,0,1,0,0)" fill="rgb(7,254,106)"/><rect x="1070" y="320" width="10" height="10" transform="matrix(1,0,0,1,0,0)" fill="rgb(7,254,106)"/><rect x="1070" y="330" width="10" height="10" transform="matrix(1,0,0,1,0,0)" fill="rgb(7,254,106)"/><rect x="1070" y="340" width="10" height="10" transform="matrix(1,0,0,1,0,0)" fill="rgb(7,254,106)"/><rect x="1070" y="350" width="10" height="10" transform="matrix(1,0,0,1,0,0)" fill="rgb(7,254,106)"/><rect x="1080" y="350" width="10" height="10" transform="matrix(1,0,0,1,0,0)" fill="rgb(7,254,106)"/><rect x="1090" y="350" width="10" height="10" transform="matrix(1,0,0,1,0,0)" fill="rgb(7,254,106)"/><rect x="1100" y="350" width="10" height="10" transform="matrix(1,0,0,1,0,0)" fill="rgb(7,254,106)"/><rect x="1110" y="350" width="10" height="10" transform="matrix(1,0,0,1,0,0)" fill="rgb(7,254,106)"/><rect x="1120" y="350" width="10" height="10" transform="matrix(1,0,0,1,0,0)" fill="rgb(7,254,106)"/><rect x="1130" y="350" width="10" height="10" transform="matrix(1,0,0,1,0,0)" fill="rgb(7,254,106)"/><rect x="1140" y="350" width="10" height="10" transform="matrix(1,0,0,1,0,0)" fill="rgb(7,254,106)"/><rect x="1140" y="340" width="10" height="10" transform="matrix(1,0,0,1,0,0)" fill="rgb(7,254,106)"/><rect x="1140" y="330" width="10" height="10" transform="matrix(1,0,0,1,0,0)" fill="rgb(7,254,106)"/><rect x="1140" y="320" width="10" height="10" transform="matrix(1,0,0,1,0,0)" fill="rgb(7,254,106)"/><rect x="1140" y="310" width="10" height="10" transform="matrix(1,0,0,1,0,0)" fill="rgb(7,254,106)"/><rect x="1140" y="300" width="10" height="10" transform="matrix(1,0,0,1,0,0)" fill="rgb(7,254,106)"/><rect x="1140" y="290" width="10" height="10" transform="matrix(1,0,0,1,0,0)" fill="rgb(7,254,106)"/><rect x="1140" y="280" width="10" height="10" transform="matrix(1,0,0,1,0,0)" fill="rgb(7,254,106)"/></g></svg>