<?xml version="1.0" encoding="UTF-8" standalone="no"?><!-- Generator: Gravit.io --><svg xmlns="http://www.w3.org/2000/svg" xmlns:xlink="http://www.w3.org/1999/xlink" style="isolation:isolate" viewBox="550 1070 80 80" width="80pt" height="80pt"><g><rect x="550" y="1070" width="80" height="10" transform="matrix(1,0,0,1,0,0)" fill="rgb(0,0,0)"/><g opacity="0.24"><rect x="560" y="1080" width="60" height="10" transform="matrix(1,0,0,1,0,0)" fill="rgb(0,0,0)"/></g><rect x="550" y="1080" width="10" height="70" transform="matrix(1,0,0,1,0,0)" fill="rgb(0,0,0)"/><rect x="560" y="1140" width="70" height="10" transform="matrix(1,0,0,1,0,0)" fill="rgb(0,0,0)"/><rect x="620" y="1080" width="10" height="60" transform="matrix(1,0,0,1,0,0)" fill="rgb(0,0,0)"/><g><rect x="588" y="1095" width="4" height="30" transform="matrix(1,0,0,1,0,0)" fill="rgb(0,0,0)"/><g opacity="0.3"><rect x="588" y="1098.5" width="4" height="30" transform="matrix(1,0,0,1,0,0)" fill="rgb(0,0,0)"/></g><rect x="575" y="1095" width="4" height="15" transform="matrix(1,0,0,1,0,0)" fill="rgb(0,0,0)"/><g opacity="0.28"><rect x="575" y="1099" width="4" height="15" transform="matrix(1,0,0,1,0,0)" fill="rgb(0,0,0)"/></g><rect x="601" y="1095" width="4" height="15" transform="matrix(1,0,0,1,0,0)" fill="rgb(0,0,0)"/><g opacity="0.26"><rect x="601" y="1099" width="4" height="15" transform="matrix(1,0,0,1,0,0)" fill="rgb(0,0,0)"/></g><rect x="575" y="1095" width="30" height="4" transform="matrix(1,0,0,1,0,0)" fill="rgb(0,0,0)"/><g opacity="0.18"><rect x="575" y="1098.5" width="30" height="4" transform="matrix(1,0,0,1,0,0)" fill="rgb(0,0,0)"/></g></g></g></svg>