<?xml version="1.0" encoding="UTF-8" standalone="no"?><!-- Generator: Gravit.io --><svg xmlns="http://www.w3.org/2000/svg" xmlns:xlink="http://www.w3.org/1999/xlink" style="isolation:isolate" viewBox="565 1085 50 50" width="50pt" height="50pt"><g><g><path d=" M 580.625 1100.625 L 588.438 1100.625 L 588.438 1119.375 L 583.75 1119.375 L 583.75 1122.5 L 596.25 1122.5 L 596.25 1119.375 L 591.562 1119.375 L 591.562 1100.625 L 599.375 1100.625 L 599.375 1106.875 L 602.5 1106.875 L 602.5 1097.5 L 577.5 1097.5 L 577.5 1106.875 L 580.625 1106.875 L 580.625 1100.625 Z " fill="rgb(0,0,0)"/><path d=" M 615 1091.25 L 615 1085 L 608.75 1085 L 608.75 1088.125 L 571.25 1088.125 L 571.25 1085 L 565 1085 L 565 1091.25 L 568.125 1091.25 L 568.125 1128.75 L 565 1128.75 L 565 1135 L 571.25 1135 L 571.25 1131.875 L 608.75 1131.875 L 608.75 1135 L 615 1135 L 615 1128.75 L 611.875 1128.75 L 611.875 1091.25 L 615 1091.25 Z  M 608.75 1128.75 L 571.25 1128.75 L 571.25 1091.25 L 608.75 1091.25 L 608.75 1128.75 Z " fill="rgb(0,0,0)"/></g></g></svg>