<?xml version="1.0" encoding="UTF-8" standalone="no"?><!-- Generator: Gravit.io --><svg xmlns="http://www.w3.org/2000/svg" xmlns:xlink="http://www.w3.org/1999/xlink" style="isolation:isolate" viewBox="280 1160 80 80" width="80pt" height="80pt"><g><rect x="280" y="1160" width="80" height="10" transform="matrix(1,0,0,1,0,0)" fill="rgb(0,0,0)"/><g opacity="0.24"><rect x="290" y="1170" width="60" height="10" transform="matrix(1,0,0,1,0,0)" fill="rgb(0,0,0)"/></g><rect x="280" y="1170" width="10" height="70" transform="matrix(1,0,0,1,0,0)" fill="rgb(0,0,0)"/><rect x="290" y="1230" width="70" height="10" transform="matrix(1,0,0,1,0,0)" fill="rgb(0,0,0)"/><rect x="350" y="1170" width="10" height="60" transform="matrix(1,0,0,1,0,0)" fill="rgb(0,0,0)"/><g><path d=" M 336 1190.078 C 334.81 1190.6 333.542 1190.946 332.22 1191.114 C 333.58 1190.302 334.618 1189.026 335.106 1187.488 C 333.838 1188.244 332.438 1188.778 330.946 1189.076 C 329.742 1187.794 328.026 1187 326.154 1187 C 322.522 1187 319.598 1189.948 319.598 1193.562 C 319.598 1194.082 319.642 1194.582 319.75 1195.058 C 314.296 1194.792 309.47 1192.178 306.228 1188.196 C 305.662 1189.178 305.33 1190.302 305.33 1191.512 C 305.33 1193.784 306.5 1195.798 308.244 1196.964 C 307.19 1196.944 306.156 1196.638 305.28 1196.156 C 305.28 1196.176 305.28 1196.202 305.28 1196.228 C 305.28 1199.416 307.554 1202.064 310.536 1202.674 C 310.002 1202.82 309.42 1202.89 308.816 1202.89 C 308.396 1202.89 307.972 1202.866 307.574 1202.778 C 308.424 1205.376 310.836 1207.286 313.704 1207.348 C 311.472 1209.094 308.638 1210.146 305.57 1210.146 C 305.032 1210.146 304.516 1210.122 304 1210.056 C 306.906 1211.93 310.35 1213 314.064 1213 C 326.136 1213 332.736 1203 332.736 1194.332 C 332.736 1194.042 332.726 1193.762 332.712 1193.484 C 334.014 1192.56 335.108 1191.406 336 1190.078 Z " fill="rgb(6,6,6)"/></g><g style="opacity:0.28;"><path d=" M 336 1195.078 C 334.81 1195.6 333.542 1195.946 332.22 1196.114 C 333.58 1195.302 334.618 1194.026 335.106 1192.488 C 333.838 1193.244 332.438 1193.778 330.946 1194.076 C 329.742 1192.794 328.026 1192 326.154 1192 C 322.522 1192 319.598 1194.948 319.598 1198.562 C 319.598 1199.082 319.642 1199.582 319.75 1200.058 C 314.296 1199.792 309.47 1197.178 306.228 1193.196 C 305.662 1194.178 305.33 1195.302 305.33 1196.512 C 305.33 1198.784 306.5 1200.798 308.244 1201.964 C 307.19 1201.944 306.156 1201.638 305.28 1201.156 C 305.28 1201.176 305.28 1201.202 305.28 1201.228 C 305.28 1204.416 307.554 1207.064 310.536 1207.674 C 310.002 1207.82 309.42 1207.89 308.816 1207.89 C 308.396 1207.89 307.972 1207.866 307.574 1207.778 C 308.424 1210.376 310.836 1212.286 313.704 1212.348 C 311.472 1214.094 308.638 1215.146 305.57 1215.146 C 305.032 1215.146 304.516 1215.122 304 1215.056 C 306.906 1216.93 310.35 1218 314.064 1218 C 326.136 1218 332.736 1208 332.736 1199.332 C 332.736 1199.042 332.726 1198.762 332.712 1198.484 C 334.014 1197.56 335.108 1196.406 336 1195.078 Z " fill="rgb(6,6,6)"/></g></g></svg>