<?xml version="1.0" encoding="UTF-8" standalone="no"?><!-- Generator: Gravit.io --><svg xmlns="http://www.w3.org/2000/svg" xmlns:xlink="http://www.w3.org/1999/xlink" style="isolation:isolate" viewBox="295 1175.781 50 48.438" width="50pt" height="48.438pt"><g><g><path d=" M 345 1180.591 C 343.141 1181.406 341.159 1181.947 339.094 1182.209 C 341.219 1180.941 342.841 1178.947 343.603 1176.544 C 341.622 1177.725 339.434 1178.559 337.103 1179.025 C 335.222 1177.022 332.541 1175.781 329.616 1175.781 C 323.941 1175.781 319.372 1180.387 319.372 1186.034 C 319.372 1186.847 319.441 1187.628 319.609 1188.372 C 311.087 1187.956 303.547 1183.872 298.481 1177.65 C 297.597 1179.184 297.078 1180.941 297.078 1182.831 C 297.078 1186.381 298.906 1189.528 301.631 1191.35 C 299.984 1191.319 298.369 1190.841 297 1190.088 C 297 1190.119 297 1190.159 297 1190.2 C 297 1195.181 300.553 1199.319 305.212 1200.272 C 304.378 1200.5 303.469 1200.609 302.525 1200.609 C 301.869 1200.609 301.206 1200.572 300.584 1200.434 C 301.912 1204.494 305.681 1207.478 310.163 1207.575 C 306.675 1210.303 302.247 1211.947 297.453 1211.947 C 296.612 1211.947 295.806 1211.909 295 1211.806 C 299.541 1214.734 304.922 1216.406 310.725 1216.406 C 329.587 1216.406 339.9 1200.781 339.9 1187.237 C 339.9 1186.784 339.884 1186.347 339.862 1185.913 C 341.897 1184.469 343.606 1182.666 345 1180.591 Z " fill="rgb(6,6,6)"/></g><g style="opacity:0.28;"><path d=" M 345 1188.403 C 343.141 1189.219 341.159 1189.759 339.094 1190.022 C 341.219 1188.753 342.841 1186.759 343.603 1184.356 C 341.622 1185.537 339.434 1186.372 337.103 1186.838 C 335.222 1184.834 332.541 1183.594 329.616 1183.594 C 323.941 1183.594 319.372 1188.2 319.372 1193.847 C 319.372 1194.659 319.441 1195.441 319.609 1196.184 C 311.087 1195.769 303.547 1191.684 298.481 1185.463 C 297.597 1186.997 297.078 1188.753 297.078 1190.644 C 297.078 1194.194 298.906 1197.341 301.631 1199.162 C 299.984 1199.131 298.369 1198.653 297 1197.9 C 297 1197.931 297 1197.972 297 1198.012 C 297 1202.994 300.553 1207.131 305.212 1208.084 C 304.378 1208.312 303.469 1208.422 302.525 1208.422 C 301.869 1208.422 301.206 1208.384 300.584 1208.247 C 301.912 1212.306 305.681 1215.291 310.163 1215.387 C 306.675 1218.116 302.247 1219.759 297.453 1219.759 C 296.612 1219.759 295.806 1219.722 295 1219.619 C 299.541 1222.547 304.922 1224.219 310.725 1224.219 C 329.587 1224.219 339.9 1208.594 339.9 1195.05 C 339.9 1194.597 339.884 1194.159 339.862 1193.725 C 341.897 1192.281 343.606 1190.478 345 1188.403 Z " fill="rgb(6,6,6)"/></g></g></svg>