<?xml version="1.0" encoding="UTF-8" standalone="no"?><!-- Generator: Gravit.io --><svg xmlns="http://www.w3.org/2000/svg" xmlns:xlink="http://www.w3.org/1999/xlink" style="isolation:isolate" viewBox="1167.518 381.5 21.482 19.947" width="21.482pt" height="19.947pt"><path d=" M 1172.121 381.5 L 1173.656 386.103 L 1173.656 389.172 L 1174.679 389.172 L 1174.679 386.103 L 1176.213 381.5 L 1175.19 381.5 L 1174.167 384.569 L 1173.144 381.5 L 1172.121 381.5 Z  M 1177.748 383.546 C 1177.202 383.546 1176.934 383.632 1176.601 383.905 C 1176.281 384.175 1176.193 384.383 1176.213 385.08 L 1176.213 387.638 C 1176.213 388.147 1176.297 388.483 1176.605 388.78 C 1176.925 389.078 1177.226 389.172 1177.748 389.172 C 1178.293 389.172 1178.591 389.078 1178.898 388.78 C 1179.218 388.495 1179.282 388.147 1179.282 387.638 L 1179.282 385.08 C 1179.282 384.629 1179.202 384.201 1178.892 383.916 C 1178.573 383.622 1178.243 383.546 1177.748 383.546 Z  M 1180.305 383.546 L 1180.305 388.149 C 1180.305 388.647 1180.806 389.172 1181.328 389.172 C 1181.85 389.172 1182.125 388.91 1182.351 388.661 L 1182.351 389.172 L 1183.374 389.172 L 1183.374 383.546 L 1182.351 383.546 L 1182.351 387.638 C 1182.345 387.987 1181.934 388.149 1181.839 388.149 C 1181.734 388.149 1181.328 388.127 1181.328 387.638 L 1181.328 383.546 L 1180.305 383.546 Z  M 1177.748 384.569 C 1177.901 384.569 1178.259 384.567 1178.259 385.08 L 1178.259 387.638 C 1178.259 388.133 1177.913 388.149 1177.748 388.149 C 1177.594 388.149 1177.236 388.143 1177.236 387.638 L 1177.236 385.08 C 1177.236 384.663 1177.458 384.569 1177.748 384.569 Z  M 1170.587 390.195 C 1168.749 390.195 1167.518 391.414 1167.518 393.264 L 1167.518 398.123 C 1167.518 399.973 1168.749 401.447 1170.587 401.447 L 1185.931 401.447 C 1187.769 401.447 1189 400.229 1189 398.379 L 1189 393.264 C 1189 391.414 1187.769 390.195 1185.931 390.195 L 1170.587 390.195 Z  M 1171.61 392.241 L 1174.679 392.241 L 1174.679 393.264 L 1173.656 393.264 L 1173.656 399.401 L 1172.633 399.401 L 1172.633 393.264 L 1171.61 393.264 L 1171.61 392.241 Z  M 1178.771 392.241 L 1179.794 392.241 L 1179.794 394.287 C 1179.911 394.103 1180.087 393.957 1180.255 393.875 C 1180.408 393.792 1180.578 393.747 1180.753 393.743 C 1181.084 393.743 1181.344 393.863 1181.522 394.087 C 1181.7 394.313 1181.839 394.613 1181.839 395.054 L 1181.839 398.123 C 1181.839 398.502 1181.712 398.738 1181.544 398.94 C 1181.38 399.142 1181.135 399.397 1180.816 399.401 C 1180.279 399.408 1179.991 399.12 1179.794 398.89 L 1179.794 399.401 L 1178.771 399.401 L 1178.771 392.241 Z  M 1174.679 393.775 L 1175.702 393.775 L 1175.702 397.867 C 1175.702 397.985 1175.84 398.383 1176.213 398.379 C 1176.629 398.374 1176.633 397.987 1176.725 397.867 L 1176.725 393.775 L 1177.748 393.775 L 1177.748 399.401 L 1176.725 399.401 L 1176.725 398.89 C 1176.535 399.114 1176.437 399.184 1176.223 399.289 C 1176.011 399.41 1175.796 399.401 1175.596 399.401 C 1175.348 399.401 1175.067 399.177 1174.935 399.01 C 1174.817 398.856 1174.679 398.698 1174.679 398.379 L 1174.679 393.775 Z  M 1183.988 393.775 C 1184.472 393.775 1184.814 393.879 1185.072 394.151 C 1185.336 394.423 1185.42 394.74 1185.42 395.252 L 1185.42 396.844 L 1183.374 396.844 L 1183.374 397.635 C 1183.374 397.921 1183.412 398.103 1183.486 398.211 C 1183.555 398.328 1183.698 398.381 1183.885 398.379 C 1184.093 398.376 1184.225 398.335 1184.294 398.24 C 1184.367 398.157 1184.397 397.919 1184.397 397.611 L 1184.397 397.356 L 1185.42 397.356 L 1185.42 397.659 C 1185.42 398.217 1185.376 398.632 1185.1 398.904 C 1184.84 399.19 1184.435 399.322 1183.903 399.322 C 1183.417 399.322 1183.038 399.177 1182.767 398.882 C 1182.495 398.586 1182.352 398.181 1182.352 397.659 L 1182.352 395.252 C 1182.352 394.788 1182.515 394.445 1182.813 394.139 C 1183.052 393.893 1183.502 393.775 1183.987 393.775 L 1183.988 393.775 Z  M 1180.305 394.543 C 1180.024 394.543 1179.798 394.796 1179.794 395.054 L 1179.794 398.123 C 1179.798 398.271 1180.024 398.379 1180.305 398.379 C 1180.586 398.379 1180.816 398.161 1180.816 397.879 L 1180.816 395.31 C 1180.816 394.798 1180.586 394.543 1180.305 394.543 Z  M 1183.885 394.798 C 1183.604 394.798 1183.378 395.036 1183.374 395.31 L 1183.374 395.821 L 1184.397 395.821 L 1184.397 395.31 C 1184.397 394.996 1184.167 394.798 1183.885 394.798 Z " fill-rule="evenodd" fill="rgb(255,255,255)"/></svg>